<svg width="48" height="43" viewBox="0 0 48 43" fill="none" xmlns="http://www.w3.org/2000/svg">
<path d="M37.165 40.3828H10.8348L10.8349 27.7432V27.7432C10.8349 26.9309 11.4835 26.2733 12.2778 26.2733H35.6681C36.4802 26.2733 37.165 26.9487 37.165 27.7432V40.3828ZM9.87609 42.2733H38.0965C38.6614 42.2733 39.0553 41.8142 39.0553 41.3145V27.7429C39.0553 25.8686 37.5301 24.3826 35.668 24.3826H12.2777C10.4334 24.3826 8.94434 25.8778 8.94434 27.7429V41.3145C8.94434 41.7935 9.31866 42.2733 9.87609 42.2733Z" stroke="#FFD699"/>
<path d="M23.9815 3.14217C24.7325 3.85746 25.672 4.52846 26.6113 5.19284L26.6241 5.20203C27.6668 5.94577 28.6789 6.66776 29.4552 7.42453C30.24 8.18951 30.7084 8.91956 30.7735 9.65687L30.7734 9.65687L30.7743 9.66527C30.859 10.4704 30.4696 11.3813 29.3774 12.5C29.016 12.864 28.9719 13.4894 29.3935 13.8656C29.5563 14.0223 29.7816 14.1327 30.0538 14.1336L23.9815 3.14217ZM23.9815 3.14217C23.2232 3.85366 22.3075 4.52264 21.361 5.19217C21.3607 5.19239 21.3604 5.19261 21.3601 5.19283L21.3398 5.20737C20.2998 5.95023 19.2906 6.67102 18.5161 7.42601C17.732 8.19033 17.2639 8.91915 17.1981 9.6546C17.1347 10.4688 17.5322 11.3853 18.6226 12.5017L18.634 12.5133L18.6445 12.5257C18.9533 12.8859 18.9893 13.4815 18.6184 13.8523L18.6049 13.8658L18.5903 13.8783C18.2142 14.2007 17.668 14.2007 17.2919 13.8783L17.2735 13.8625L17.2567 13.8451C15.8833 12.4156 15.1864 10.986 15.311 9.49039L15.3111 9.48989C15.4197 8.20223 16.1385 7.12662 17.0557 6.19878C17.9469 5.29739 19.0796 4.48275 20.1497 3.7132C20.1791 3.69202 20.2085 3.67087 20.2379 3.64976L20.2384 3.64938C20.299 3.60591 20.3592 3.56277 20.4189 3.51995C21.6059 2.66919 22.622 1.94092 23.2403 1.1826C23.4352 0.929912 23.7301 0.8302 23.9839 0.8302C24.2377 0.8302 24.5326 0.929927 24.7275 1.18261C25.3457 1.94086 26.3617 2.66906 27.5486 3.51975C27.6084 3.56264 27.6687 3.60584 27.7294 3.64938L27.73 3.64979C27.7598 3.67126 27.7897 3.69277 27.8197 3.71431C28.8902 4.48439 30.0224 5.2988 30.9161 6.19931C31.8363 7.12651 32.5604 8.19987 32.6834 9.48427L32.6839 9.49039L32.6839 9.49039C32.8085 10.986 32.1116 12.4156 30.7382 13.8451L30.7101 13.8743L30.6776 13.8987C30.5416 14.0007 30.3267 14.1325 30.0572 14.1336M23.9815 3.14217L30.0572 14.1336M30.0572 14.1336V13.6336V14.1336Z" stroke="#FFD699"/>
<path d="M28.3632 11.5328L28.3697 11.5375L28.3764 11.542C28.5369 11.649 28.7139 11.7069 28.9236 11.7069C29.2468 11.7069 29.5193 11.5249 29.6745 11.318L29.6794 11.3115L29.6841 11.3047C30.0685 10.7556 30.3311 10.1669 30.2332 9.59467V9.55325L30.2183 9.49353C30.0909 8.98398 29.724 8.46701 29.1884 7.92443C28.6456 7.37449 27.8811 6.75089 26.8779 6.03178C26.5988 5.80919 26.3208 5.61469 26.0204 5.42303C25.9184 5.34941 25.8167 5.27685 25.7157 5.20467C25.3261 4.92648 24.9442 4.65377 24.5754 4.34646L24.5611 4.33452L24.5459 4.32369C24.175 4.05881 23.5654 4.07095 23.2407 4.50321C22.927 4.88811 22.9503 5.50867 23.3864 5.83064C23.9043 6.23926 24.4229 6.6213 24.9421 6.97666C25.2129 7.16623 25.4692 7.34586 25.7239 7.54964L25.7345 7.55816L25.7456 7.56608C26.866 8.36633 27.5208 8.93346 27.8999 9.32506C28.172 9.60617 28.2854 9.78011 28.3313 9.86817C28.3018 9.93746 28.2427 10.0527 28.1309 10.2262C27.9797 10.4451 27.9472 10.7027 27.986 10.9228C28.0255 11.1465 28.1467 11.3782 28.3632 11.5328Z" stroke="#FFD699"/>
<path d="M30.3125 23.2921C30.3125 23.831 30.7455 24.2239 31.2713 24.2239C31.7903 24.2239 32.203 23.8111 32.203 23.2921V15.2253C32.203 14.7464 31.8287 14.2666 31.2713 14.2666C30.7062 14.2666 30.3125 14.7258 30.3125 15.2253V23.2921ZM15.7715 23.2921C15.7715 23.8496 16.2513 24.2239 16.7302 24.2239C17.2092 24.2239 17.689 23.8496 17.689 23.2921V15.2253C17.689 14.7063 17.2492 14.2666 16.7302 14.2666C16.2112 14.2666 15.7715 14.7063 15.7715 15.2253V23.2921Z" stroke="#FFD699"/>
<path d="M32.2808 25.3431C32.2808 25.8819 32.7138 26.2748 33.2395 26.2748C34.026 26.2748 34.8999 25.7929 34.8999 24.8843V23.751C34.8999 22.8589 34.0472 22.3335 33.2395 22.3335H14.7586C14.3343 22.3335 13.9284 22.4654 13.6181 22.703C13.3068 22.9414 13.0713 23.3067 13.0713 23.751V24.8843C13.0713 25.3322 13.3105 25.6931 13.6261 25.9248C13.9384 26.1542 14.3422 26.2748 14.7586 26.2748C15.2375 26.2748 15.7173 25.9005 15.7173 25.3431C15.7173 24.903 15.4013 24.52 14.9888 24.4136V24.224H33.0094V24.411C32.5704 24.5158 32.2808 24.9146 32.2808 25.3431Z" stroke="#FFD699"/>
<path d="M15.1652 16.1841H32.8365C33.6448 16.1841 34.227 15.5357 34.227 14.7666V13.6603C34.227 12.9004 33.6265 12.2158 32.8365 12.2158H15.1652C14.3763 12.2158 13.7207 12.8714 13.7207 13.6603V14.7666C13.7207 15.5742 14.3954 16.1841 15.1652 16.1841ZM15.6382 14.2666V14.1333H32.3365V14.2666H15.6382ZM15.6382 13.6596C15.6382 13.6556 15.6382 13.654 15.6383 13.6541L15.6382 13.6596ZM15.159 14.1334C15.1589 14.1333 15.1605 14.1333 15.1644 14.1333L15.159 14.1334Z" stroke="#FFD699"/>
<path d="M25.6316 22.2003H28.9237C29.4427 22.2003 29.8555 21.7875 29.8555 21.2685V18.9208C29.8555 17.5012 28.7307 16.2891 27.2777 16.2891C25.8329 16.2891 24.6729 17.4927 24.6729 18.9208V21.2685C24.6729 21.826 25.1527 22.2003 25.6316 22.2003ZM27.965 18.9208V20.3098H26.5633V18.9208C26.5633 18.5224 26.8792 18.2065 27.2776 18.2065C27.6418 18.2065 27.965 18.5151 27.965 18.9208Z" stroke="#FFD699"/>
<path d="M19.0496 22.2003H22.3687C22.8476 22.2003 23.3274 21.826 23.3274 21.2685V18.9208C23.3274 17.4885 22.1362 16.2891 20.7226 16.2891C19.2861 16.2891 18.0908 17.4844 18.0908 18.9208V21.2685C18.0908 21.826 18.5706 22.2003 19.0496 22.2003ZM21.4099 18.9208V20.3098H20.0083V18.9208C20.0083 18.5224 20.3241 18.2065 20.7226 18.2065C21.0868 18.2065 21.4099 18.5151 21.4099 18.9208Z" stroke="#FFD699"/>
<path d="M24.8496 26.9801L24.8461 26.9727L24.846 26.9725L24.8459 26.9722L24.8458 26.9719L24.8457 26.9719L24.8421 26.9639L24.8377 26.9549C24.6844 26.6484 24.3632 26.4087 23.9857 26.4087C23.6302 26.4087 23.2737 26.6063 23.127 26.9651C23.1215 26.9756 23.1144 26.9892 23.1074 27.0026C23.105 27.0073 23.1026 27.012 23.1002 27.0165C23.0796 27.056 23.0511 27.1104 23.0133 27.1779C22.9377 27.3132 22.8244 27.5031 22.6691 27.7244C22.358 28.1675 21.8815 28.7312 21.2072 29.2311C21.1154 29.2978 21.0324 29.3592 20.9561 29.4157C20.7689 29.554 20.6215 29.663 20.4825 29.7498L20.4735 29.7555L20.4647 29.7615C19.8126 30.2089 19.2731 30.6102 18.9525 31.3926C18.6503 32.1302 18.5611 33.1618 18.5745 34.8153V41.3147C18.5745 41.8337 19.0142 42.2735 19.5332 42.2735C20.0522 42.2735 20.492 41.8337 20.492 41.3147V34.8133H20.4921L20.4919 34.8043C20.4645 33.2856 20.5198 32.5962 20.6695 32.1953C20.7945 31.8603 20.9832 31.7178 21.54 31.3419L21.5503 31.335L21.5603 31.3275C21.6879 31.2318 21.8303 31.1297 21.9903 31.015C22.0976 30.938 22.2129 30.8554 22.3369 30.7652L22.337 30.7653L22.3482 30.7567C23.0557 30.2109 23.5913 29.6364 23.9857 29.1344C24.3801 29.6364 24.9157 30.2109 25.6232 30.7567L25.6231 30.7569L25.6345 30.7652C25.7589 30.8556 25.8745 30.9385 25.9821 31.0157C26.1417 31.1301 26.2838 31.2319 26.4112 31.3275L26.4246 31.3376L26.4387 31.3467C26.9894 31.7047 27.1771 31.8487 27.3015 32.1841C27.4517 32.5891 27.5069 33.286 27.4795 34.8043L27.4795 34.8043V34.8133V41.3147C27.4795 41.6254 27.6317 41.9204 27.8827 42.0991L27.856 42.2739H28.4381C28.9956 42.2739 29.3699 41.7941 29.3699 41.3152V34.8465C29.4098 33.1865 29.3431 32.1524 29.0476 31.4117C28.7343 30.6268 28.1851 30.2232 27.5143 29.7667C27.4192 29.6958 27.3146 29.6246 27.2158 29.5573C27.193 29.5419 27.1706 29.5266 27.1486 29.5116C27.0228 29.4255 26.9004 29.3396 26.7806 29.2437L26.7733 29.2379L26.7659 29.2324C26.0907 28.7322 25.6068 28.1611 25.2917 27.7137C25.1346 27.4906 25.0209 27.3002 24.9474 27.1678C24.9107 27.1017 24.8842 27.0502 24.8674 27.0166C24.859 26.9999 24.8531 26.9876 24.8496 26.9801Z" stroke="#FFD699"/>
<path d="M23.3709 30.3795C23.6672 30.1341 24.1894 30.0256 24.5785 30.3823C24.6181 30.4117 24.6547 30.4379 24.6947 30.4664L24.696 30.4674C24.7427 30.5007 24.7938 30.5373 24.8525 30.5812L24.8655 30.591L24.8779 30.6016C25.0704 30.7667 25.2422 30.9134 25.4098 31.0331L25.6192 31.1826V31.2049C25.6225 31.2073 25.6259 31.2097 25.6293 31.2121C25.7394 31.2899 25.8482 31.3667 25.9778 31.4477L25.9841 31.4516L25.9902 31.4557C25.9981 31.461 26.0061 31.4663 26.0141 31.4717C26.2273 31.6137 26.4883 31.7876 26.6832 31.9738C26.8435 32.0958 26.9447 32.2593 26.9967 32.4152L27.0022 32.4318L27.0066 32.4488C27.0808 32.7375 27.1245 33.1729 27.1523 33.6765C27.1808 34.1918 27.1944 34.8167 27.1978 35.5052C27.2045 36.8809 27.1707 38.5306 27.1303 40.1068C27.1302 40.3953 27.1233 40.6554 27.1166 40.8653C27.1145 40.9277 27.1126 40.9842 27.1109 41.0349C27.1065 41.163 27.1033 41.2547 27.1033 41.3147C27.1033 41.7935 26.7291 42.2734 26.1716 42.2734C25.6526 42.2734 25.2129 41.8337 25.2129 41.3147C25.2129 41.0968 25.2129 40.6578 25.2402 40.0552C25.2671 39.0719 25.3006 37.5818 25.304 36.1974C25.307 34.9435 25.2846 33.8222 25.2189 33.2275C25.1404 33.1738 25.0517 33.1184 24.9521 33.0614L24.9251 33.046L24.9002 33.0273C24.8385 32.9811 24.7625 32.9265 24.6824 32.8691C24.5381 32.7655 24.3805 32.6524 24.2697 32.5612C24.1732 32.4886 24.082 32.4162 23.9948 32.3447C23.9429 32.3876 23.8935 32.4274 23.8491 32.4633C23.8075 32.4968 23.7702 32.5269 23.7392 32.5527L23.3709 30.3795ZM23.3709 30.3795C23.2177 30.5049 23.0843 30.6197 22.9612 30.7257C22.8134 30.8529 22.6803 30.9674 22.5455 31.0723L22.5454 31.0722L22.5401 31.0765C22.4227 31.1704 22.2513 31.2933 22.0514 31.4184C21.7601 31.5936 21.502 31.7936 21.3029 31.9631C21.0984 32.1149 21.03 32.3279 21.006 32.4024C21.0045 32.4073 21.0031 32.4116 21.0019 32.4152L20.9979 32.4273L20.9944 32.4395C20.9116 32.7378 20.8626 33.1823 20.8309 33.6933C20.7984 34.2163 20.7823 34.8485 20.7772 35.544C20.767 36.9336 20.8009 38.5973 20.8413 40.1878V41.3147C20.8413 41.8338 21.281 42.2735 21.8 42.2735C22.319 42.2735 22.7588 41.8338 22.7588 41.3147C22.7588 41.2356 22.7546 41.1232 22.7499 40.9946C22.7483 40.951 22.7466 40.9056 22.745 40.859C22.7383 40.6664 22.7318 40.4298 22.7318 40.1544V40.1471L22.7316 40.1397C22.7047 39.2249 22.6711 37.7127 22.6711 36.2896C22.6711 34.992 22.6998 33.8231 22.7757 33.2276C22.8684 33.161 22.9721 33.0924 23.0735 33.0345L23.1005 33.019L23.1254 33.0003C23.2081 32.9384 23.29 32.8812 23.376 32.8211C23.3936 32.8089 23.4113 32.7965 23.4293 32.784C23.53 32.7135 23.6403 32.6352 23.7392 32.5527L23.3709 30.3795Z" stroke="#FFD699"/>
<path d="M28.4371 36.3655H38.096C38.3507 36.3655 38.5967 36.2743 38.7801 36.0908C38.9635 35.9074 39.0547 35.6614 39.0547 35.4067C39.0547 34.8679 38.6217 34.475 38.096 34.475H28.4371C27.9114 34.475 27.4784 34.8679 27.4784 35.4067C27.4784 35.6614 27.5696 35.9074 27.753 36.0908C27.9364 36.2743 28.1824 36.3655 28.4371 36.3655ZM9.87511 36.3655H19.534C20.0336 36.3655 20.4927 35.9717 20.4927 35.4067C20.4927 34.8493 20.0129 34.475 19.534 34.475H9.87511C9.35611 34.475 8.94336 34.8877 8.94336 35.4067C8.94336 35.9324 9.33627 36.3655 9.87511 36.3655ZM27.8435 32.2098H38.096C38.6217 32.2098 39.0547 31.8169 39.0547 31.2781C39.0547 31.0234 38.9635 30.7774 38.7801 30.594C38.5967 30.4105 38.3507 30.3193 38.096 30.3193H27.8435C27.3439 30.3193 26.8847 30.713 26.8847 31.2781C26.8847 31.8355 27.3645 32.2098 27.8435 32.2098ZM9.87511 32.2098H20.1276C20.6066 32.2098 21.0864 31.8355 21.0864 31.2781C21.0864 30.7131 20.6272 30.3193 20.1276 30.3193H9.87511C9.33627 30.3193 8.94336 30.7524 8.94336 31.2781C8.94336 31.7971 9.35611 32.2098 9.87511 32.2098Z" stroke="#FFD699"/>
<path d="M5.44802 24.6714C5.65581 24.8792 5.91339 24.9258 6.09841 24.9258C6.29434 24.9258 6.56034 24.8868 6.7758 24.6713C7.1387 24.3084 7.18456 23.6828 6.76475 23.3055C3.95091 20.4861 2.38879 16.7337 2.38879 12.7162C2.38879 8.72666 3.95026 4.9735 6.76597 2.12583C7.15974 1.76982 7.16322 1.14828 6.77626 0.787627C6.41551 0.400622 5.79373 0.404134 5.43776 0.798298C2.2479 3.96844 0.5 8.2186 0.5 12.7164C0.5 17.2198 2.25059 21.4739 5.44802 24.6714Z" stroke="#FFD699"/>
<path d="M8.47276 22.5512C8.28774 22.5512 8.03016 22.5046 7.82236 22.2968C5.27233 19.7468 3.87109 16.3559 3.87109 12.7164C3.87109 9.11037 5.26731 5.69624 7.81237 3.17253C8.16837 2.77864 8.78995 2.77523 9.15061 3.16214C9.53746 3.52269 9.5341 4.14399 9.14065 4.50004C6.97266 6.69985 5.76159 9.61673 5.76159 12.7162C5.76159 15.8494 6.97766 18.7695 9.15015 20.942M8.47276 22.5512L9.15015 20.942M8.47276 22.5512C8.66869 22.5512 8.93469 22.5122 9.15015 22.2968C9.53432 21.9126 9.53428 21.3262 9.15015 20.942M8.47276 22.5512L8.79659 21.2956L9.15015 20.942" stroke="#FFD699"/>
<path d="M10.2203 19.9478L10.194 19.9211C8.26815 17.9669 7.2168 15.4128 7.2168 12.7178C7.2168 10.0217 8.26789 7.46768 10.1966 5.53909L10.2203 19.9478ZM10.2203 19.9478L10.2502 19.9702C10.3868 20.0727 10.6029 20.2051 10.874 20.2051C11.1119 20.2051 11.3748 20.1007 11.5513 19.9242C11.9355 19.54 11.9355 18.9536 11.5513 18.5694L11.5512 18.5693C9.97101 16.9907 9.10725 14.9048 9.10725 12.7181C9.10725 10.5382 9.96703 8.45674 11.5406 6.87766C11.9399 6.51765 11.9391 5.88505 11.5381 5.52613C11.1539 5.15497 10.5764 5.15933 10.1966 5.53908L10.2203 19.9478Z" stroke="#FFD699"/>
<path d="M42.5524 24.6714L42.5525 24.6713C45.7481 21.4741 47.5004 17.22 47.5004 12.7164C47.5004 8.21884 45.7543 3.96835 42.5626 0.798221C42.2066 0.404171 41.5849 0.400602 41.2241 0.787652C40.8373 1.14829 40.8407 1.76982 41.2345 2.12584C44.0502 4.97364 45.6116 8.72676 45.6116 12.7162C45.6116 16.7336 44.0495 20.486 41.2357 23.3055C40.8158 23.6828 40.8618 24.3085 41.2246 24.6713C41.4324 24.8791 41.69 24.9257 41.875 24.9257C42.0706 24.9257 42.3368 24.887 42.5524 24.6714Z" stroke="#FFD699"/>
<path d="M42.2378 12.7162C42.2378 15.8443 41.0259 18.7591 38.8346 20.9298C38.4134 21.307 38.4591 21.9335 38.8223 22.2968C39.0301 22.5046 39.2877 22.5511 39.4727 22.5511C39.6677 22.5511 39.9329 22.5126 40.1481 22.2987C42.7268 19.7481 44.1283 16.3563 44.1283 12.7164C44.1283 9.08255 42.7317 5.69478 40.159 3.1713C39.8028 2.77867 39.1821 2.77558 38.8218 3.16216C38.4342 3.52351 38.4383 4.14676 38.8344 4.50244C41.0258 6.67327 42.2378 9.58813 42.2378 12.7162Z" stroke="#FFD699"/>
<path d="M36.4473 19.9237C36.5984 20.0748 36.8271 20.205 37.0977 20.205C37.3802 20.205 37.6115 20.0868 37.7751 19.9233C39.7043 17.9941 40.7549 15.4397 40.7549 12.7173C40.7549 10.0034 39.7092 7.45073 37.7847 5.54812C37.4287 5.15466 36.8074 5.15128 36.4468 5.53814C36.0596 5.8991 36.0633 6.52141 36.4582 6.87727C38.0032 8.42641 38.8644 10.5072 38.8644 12.7177C38.8644 14.9315 37.9993 17.0169 36.4473 18.5689C36.0631 18.9531 36.0632 19.5395 36.4473 19.9237Z" stroke="#FFD699"/>
</svg>
