<svg width="61" height="95" viewBox="0 0 61 95" fill="none" xmlns="http://www.w3.org/2000/svg">
<path fill-rule="evenodd" clip-rule="evenodd" d="M58.4142 51.9067V51.8755C58.4025 47.1802 58.3947 42.3599 51.2228 38.8875L30.4218 28.8015L9.62083 38.8875C6.01143 40.6336 4.19113 42.6648 3.28493 44.825C2.37868 47.0164 2.37087 49.4461 2.43337 51.8758L2.64431 92.5277H58.3283L58.4025 51.9067L58.4142 51.9067ZM36.8672 82.4767H24.0042L23.9613 68.7617C23.9495 67.6679 23.9495 66.582 24.1839 65.6055C24.3949 64.7227 24.805 63.9102 25.6058 63.2266L30.4261 59.1328L35.2464 63.2266C36.8792 64.6172 36.887 66.7227 36.887 68.7618V68.7735V82.4805H36.8753L36.8672 82.4767ZM21.8122 82.4767H17.0427L16.949 62.5707C16.9177 61.2973 16.9177 60.0355 17.3474 58.9379C17.7576 57.8754 18.6013 56.8871 20.2732 56.0004L30.4292 50.6957L40.5852 56.0004C43.9016 57.727 43.9016 60.1801 43.9133 62.5785L43.8821 82.4735H39.0735V68.7665H39.093V68.7548C39.093 66.2079 39.093 63.5868 36.6711 61.5439L30.4289 56.2275L24.1867 61.5439C22.964 62.5869 22.3429 63.7978 22.0383 65.1025C21.7531 66.3017 21.7531 67.5439 21.7649 68.7861L21.8078 82.4701L21.8122 82.4767ZM14.8356 82.4767H11.445L11.2966 54.5277C11.2536 52.8754 11.2536 51.223 11.8669 49.7582C12.4567 48.3285 13.6755 46.9809 16.1091 45.8012L30.4371 38.852L44.7651 45.8012C49.5542 48.1293 49.5659 51.3715 49.5737 54.5395V54.559L49.5229 82.485H46.0932L46.1245 62.59C46.1245 59.5392 46.1127 56.4103 41.6206 54.0627L30.4406 48.2307L19.2606 54.0627C17.0301 55.2307 15.8817 56.633 15.2918 58.1565C14.7215 59.6409 14.7136 61.137 14.7449 62.6292L14.8386 82.4922L14.8356 82.4767ZM51.7616 54.5277C51.7929 64.5787 51.7187 74.6327 51.7108 84.6837H9.25785L9.1016 54.5787C9.05863 52.6725 9.05863 50.7701 9.83988 48.9068C10.6289 47.0123 12.168 45.2662 15.168 43.813L30.453 36.4028L45.738 43.813C51.7692 46.7388 51.781 50.688 51.7888 54.528L51.7616 54.5277ZM2.09763 11.0977V9.7383C2.09763 8.82424 2.09763 7.9063 2.27732 7C2.47654 5.9883 2.8867 5.0508 3.69922 4.2539L7.95312 0L12.207 4.2539C13.7968 5.8437 13.7968 7.8125 13.7968 9.7383V11.1055C14.2812 11.2422 14.7109 11.4961 15.0585 11.8438C15.5741 12.3594 15.9023 13.0743 15.9023 13.8633C15.9023 14.6523 15.5741 15.3672 15.0585 15.8828C14.7109 16.2304 14.2812 16.4843 13.7968 16.6211V18.7383C14.2812 18.875 14.7109 19.1289 15.0585 19.4765C15.5741 19.9922 15.9023 20.707 15.9023 21.496C15.9023 22.285 15.5741 22.9999 15.0585 23.5155C14.7109 23.8632 14.2812 24.1171 13.7968 24.2538V28.0546C14.2812 28.1913 14.7109 28.4452 15.0585 28.7929C15.5741 29.3085 15.9023 30.0234 15.9023 30.8124C15.9023 31.6015 15.5741 32.3163 15.0585 32.8319C14.7109 33.1796 14.2812 33.4335 13.7968 33.5702V34.4335L30.4488 26.3593L52.2068 36.9063C60.6052 40.9805 60.617 46.4961 60.6365 51.8863C60.6678 66.1713 60.5857 80.4643 60.5506 94.7493H0.47658L0.25392 51.9403C0.19142 49.2567 0.19142 46.5731 1.27342 43.9833C1.50389 43.4364 1.76951 42.8974 2.10545 42.3739V33.5731C1.62107 33.4363 1.19139 33.1824 0.84375 32.8348C0.32813 32.3192 0 31.6043 0 30.8153C0 30.0262 0.32812 29.3114 0.84375 28.7958C1.19141 28.4481 1.62109 28.1942 2.10545 28.0575V24.2567C1.62107 24.12 1.19139 23.8661 0.84375 23.5184C0.32813 23.0028 0 22.2879 0 21.4989C0 20.7099 0.32812 19.995 0.84375 19.4794C1.19141 19.1318 1.62109 18.8779 2.10545 18.7411V16.6239C1.62107 16.4872 1.19139 16.2333 0.84375 15.8857C0.32813 15.37 0 14.6552 0 13.8662C0 13.0771 0.32812 12.3623 0.84375 11.8467C1.19141 11.499 1.62109 11.2451 2.10545 11.1084L2.09763 11.0977ZM11.5703 35.4957L8.67583 36.8941C6.85553 37.7769 5.42193 38.7261 4.29693 39.7457V33.6598H11.5703V35.4957ZM11.5703 27.9488V24.3472H4.29693V27.9488H11.5703ZM13.0234 30.1597C13.2031 30.1597 13.3594 30.2339 13.4883 30.3511C13.6055 30.4683 13.6797 30.6363 13.6797 30.8159C13.6797 30.9956 13.6055 31.1519 13.4883 31.2808C13.3711 31.398 13.2031 31.4722 13.0234 31.4722H2.85543C2.67574 31.4722 2.51949 31.398 2.39059 31.2808C2.2734 31.1636 2.19918 30.9956 2.19918 30.8159C2.19918 30.6363 2.2734 30.48 2.39059 30.3511C2.50778 30.2339 2.67575 30.1597 2.85543 30.1597H13.0234ZM11.5703 18.6247V16.7185H4.29693V18.6247H11.5703ZM13.0234 20.8356H2.85543C2.67574 20.8356 2.51949 20.9098 2.39059 21.027C2.2734 21.1442 2.19918 21.3122 2.19918 21.4918C2.19918 21.6715 2.2734 21.8278 2.39059 21.9567C2.50778 22.0739 2.67575 22.1481 2.85543 22.1481H13.0234C13.2031 22.1481 13.3594 22.0739 13.4883 21.9567C13.6055 21.8395 13.6797 21.6715 13.6797 21.4918C13.6797 21.3122 13.6055 21.1559 13.4883 21.027C13.3711 20.9098 13.2031 20.8356 13.0234 20.8356ZM11.5703 10.9918V9.7301C11.5703 8.2653 11.5703 6.7613 10.6133 5.816L7.9297 3.1324L5.2461 5.816C4.78126 6.28084 4.53907 6.8355 4.42579 7.4371C4.28907 8.13241 4.28907 8.9332 4.30079 9.7301V10.9918H11.5742H11.5703ZM13.0234 13.2027H2.85543C2.67574 13.2027 2.51949 13.2769 2.39059 13.3941C2.2734 13.5113 2.19918 13.6793 2.19918 13.8589C2.19918 14.0386 2.2734 14.1949 2.39059 14.3238C2.50778 14.441 2.67575 14.5152 2.85543 14.5152H13.0234C13.2031 14.5152 13.3594 14.441 13.4883 14.3238C13.6055 14.2066 13.6797 14.0386 13.6797 13.8589C13.6797 13.6793 13.6055 13.523 13.4883 13.3941C13.3711 13.2769 13.2031 13.2027 13.0234 13.2027Z" fill="black"/>
</svg>
