<svg width="45" height="40" viewBox="0 0 45 40" fill="none" xmlns="http://www.w3.org/2000/svg">
<path d="M42.6779 26.7193C42.6779 26.7193 42.6758 26.7172 42.6737 26.7172C42.6482 26.6838 42.6164 26.6566 42.5782 26.6336C42.5654 26.6273 42.5527 26.6232 42.54 26.619C42.5187 26.6085 42.4975 26.5981 42.4742 26.5918L41.3047 26.3347L41.4979 26.2971C41.6019 26.2783 41.691 26.2114 41.7377 26.1194C42.8626 23.9769 42.6843 21.8574 41.2028 19.8233L41.1986 19.8191C41.1731 19.7857 41.1413 19.7564 41.1052 19.7334C41.0946 19.7271 41.0819 19.723 41.0691 19.7188C41.0479 19.7083 41.0246 19.6958 40.9991 19.6895L37.9767 18.983L42.9793 15.4358C43.0876 15.3585 43.1406 15.2268 43.1173 15.0972C43.0918 14.9676 42.9942 14.8631 42.8647 14.8296L41.5445 14.4868L41.3769 10.2248L42.228 9.77119C42.3638 9.69803 42.4338 9.54544 42.3999 9.39703C42.3659 9.24863 42.2365 9.13993 42.0815 9.13157L39.3839 8.98943L42.9921 7.04548C43.1194 6.9765 43.1895 6.83646 43.1682 6.69641C43.147 6.55427 43.0366 6.4414 42.8944 6.41422L41.5913 6.15712L41.43 3.07397L42.245 2.7458C42.3957 2.68518 42.4827 2.5305 42.4551 2.37164C42.4275 2.21487 42.2917 2.09781 42.1282 2.09154L14.844 1.0004C14.8036 0.998306 14.7633 1.00458 14.7251 1.01712L2.58234 4.83813C2.55687 4.84649 2.53564 4.86112 2.51229 4.87366C2.50168 4.87994 2.48895 4.88412 2.47833 4.89039C2.44437 4.91547 2.41466 4.94683 2.39343 4.98445C2.39131 4.98654 2.39131 4.98654 2.38919 4.98863C1.21121 6.94933 1.35128 8.85775 2.80519 10.6619C2.86462 10.7371 2.95376 10.7831 3.04927 10.7894L6.61924 11.0486L2.50168 12.7542C2.46348 12.7689 2.43164 12.7919 2.40193 12.817C2.39769 12.8211 2.39556 12.8274 2.39132 12.8316C2.36585 12.8567 2.34462 12.8859 2.32764 12.9173C2.32552 12.9215 2.32128 12.9236 2.31915 12.9277C1.15606 15.4779 1.28978 17.8587 2.72879 20.2063C2.7861 20.2983 2.88161 20.3589 2.99198 20.3694L3.82613 20.4488L1.29189 20.8376C1.13483 20.8627 1.01385 20.9881 1.00111 21.1449C0.988378 21.3016 1.08601 21.4459 1.2367 21.496L2.12812 21.7845L2.49955 25.3191L1.25577 25.7435C1.12206 25.7895 1.03079 25.9086 1.02442 26.0487C1.01806 26.1866 1.09658 26.3162 1.22394 26.3747L4.67931 27.9508L2.78818 28.2664C2.63112 28.2936 2.51227 28.4211 2.50165 28.5779C2.49104 28.7347 2.5908 28.8789 2.74361 28.9249L3.64139 29.2029L4.08073 32.7334L2.8476 33.1723C2.71601 33.2204 2.62474 33.3416 2.6205 33.4796C2.61626 33.6176 2.69691 33.7451 2.82426 33.8036L14.591 38.9707C14.5953 38.9728 14.5995 38.9728 14.6016 38.9728C14.642 38.9895 14.6844 39 14.7311 39C14.7545 39 14.7778 38.9979 14.8012 38.9937L43.083 33.1851C43.187 33.1642 43.274 33.0973 43.3229 33.0032C44.4074 30.8461 44.1889 28.7307 42.6692 26.7178L42.6779 26.7193ZM40.6807 26.8928L14.2326 31.7694L13.719 31.6106L39.6085 26.6587L40.6804 26.8949L40.6807 26.8928ZM39.5388 33.2221L19.8103 37.2751C20.3515 35.6113 20.0544 33.5586 18.9826 31.5853L38.8996 27.9127C40.6018 29.6664 40.2176 31.7316 39.5363 33.222L39.5388 33.2221ZM15.2831 38.2053C15.3617 37.9838 15.4232 37.7622 15.4784 37.5364C15.4826 37.5302 15.489 37.5281 15.4911 37.5197C15.5102 37.4737 15.5187 37.4257 15.5166 37.3776C15.7925 36.1025 15.6843 34.7898 15.194 33.4457C15.1982 33.3517 15.1643 33.2618 15.0964 33.1949C14.9881 32.9211 14.8608 32.6452 14.7207 32.3671L18.2716 31.7129C19.4283 33.7384 19.7 35.8475 19.0081 37.4359L15.281 38.2009L15.2831 38.2053ZM13.8314 30.1829C13.8335 30.1767 13.8398 30.1746 13.8441 30.1683C13.8632 30.1244 13.8717 30.0784 13.8717 30.0345C14.2219 28.4522 13.9778 26.7988 13.1501 25.0994L16.7137 24.4911C17.8343 26.5354 18.0699 28.6466 17.3504 30.2227L13.6001 30.9396C13.6935 30.6888 13.7698 30.4359 13.8314 30.1829ZM6.56841 20.0281C5.6239 18.3705 4.87256 15.9876 6.28188 13.6716L7.24121 13.7405C5.98472 16.065 6.59387 18.3935 7.49167 20.1159L6.56841 20.0281ZM8.31946 20.1954C7.36224 18.5378 6.58541 16.1318 8.00958 13.7971L24.6855 14.9969C23.9278 17.4676 23.9724 19.9195 24.8044 21.7714L8.31915 20.1974L8.31946 20.1954ZM30.9918 21.3241C30.9982 21.3764 31.013 21.4266 31.0449 21.4705C31.0449 21.4725 31.047 21.4725 31.047 21.4725C31.1573 21.7861 31.2847 22.0955 31.4311 22.4006L27.5895 22.0327C26.6153 20.2644 26.5262 17.7393 27.3433 15.1828L30.9875 15.4441C30.3996 17.5448 30.3996 19.5139 30.9939 21.3196L30.9918 21.3241ZM26.7808 21.9575L25.6093 21.8446C24.6584 20.0783 24.5757 17.5762 25.3885 15.045L26.6387 15.1348C25.8746 17.6286 25.9276 20.0992 26.783 21.9575L26.7808 21.9575ZM27.2881 22.6891L31.9766 23.1364C31.9872 23.1385 31.9978 23.1385 32.0106 23.1385H32.0127C32.0509 23.1385 32.0891 23.1301 32.1273 23.1176C32.14 23.1134 32.1528 23.1051 32.1634 23.0988C32.1804 23.0904 32.1973 23.0842 32.2122 23.0737L34.4832 21.4621L37.408 20.9646C39.0762 22.7414 38.6518 24.8024 37.9428 26.2823L18.153 30.0678C18.7218 28.4165 18.4586 26.3617 17.4228 24.3699L27.29 22.6893L27.2881 22.6891ZM41.1989 25.6594L39.5498 25.975L38.7666 26.1255C39.397 24.5892 39.6495 22.6201 38.202 20.8309L40.7553 20.3961C41.9439 22.1248 42.0967 23.8513 41.1989 25.6615L41.1989 25.6594ZM39.2038 19.9674L35.7633 20.5527L37.2384 19.5076L39.2038 19.9674ZM32.1294 22.2918C31.9829 22.0034 31.8598 21.7107 31.7474 21.4118L41.275 15.1179L41.9839 15.3018L32.127 22.2914L32.1294 22.2918ZM40.861 14.5723L31.5285 20.7368C31.0721 19.0834 31.1358 17.2858 31.7174 15.3648L40.7016 10.5823L40.8587 14.5705L40.861 14.5723ZM32.1631 12.1037C32.04 11.9197 31.9317 11.7358 31.8341 11.5497L41.3107 6.79438L41.8285 6.8968L32.1607 12.1037L32.1631 12.1037ZM25.6282 11.74C24.7156 10.4419 24.6349 8.60455 25.4139 6.74001L26.6449 6.8069C25.9466 8.62542 25.9784 10.4293 26.7446 11.8215L25.6282 11.74ZM6.58546 10.3604C5.29289 8.638 5.19525 7.07034 6.29893 5.69703L7.20948 5.7472C6.2841 7.16021 6.36685 8.75511 7.45356 10.4232L6.58546 10.3604ZM8.33651 10.4879C7.02058 8.75298 6.91658 7.17483 8.02451 5.79109L24.6901 6.70035C23.9961 8.50426 24.0215 10.2914 24.7708 11.6773L8.33663 10.4858L8.33651 10.4879ZM27.6042 11.8842C26.6661 10.5841 26.5812 8.73003 27.3665 6.84665L30.9959 7.04522C30.4398 8.63386 30.4568 10.1221 31.0532 11.4912C31.0596 11.5101 31.0596 11.531 31.0702 11.5519C31.0766 11.5623 31.0872 11.5665 31.0957 11.5769C31.1848 11.7734 31.2824 11.9678 31.3949 12.1601L27.6063 11.8863L27.6042 11.8842ZM40.9054 6.234L31.556 10.9246C31.1145 9.71431 31.1824 8.41415 31.7449 6.98856L40.7547 3.34729L40.9054 6.23604V6.234ZM14.8801 1.6793L40.5213 2.70564L31.4115 6.38662L4.57708 4.92132L14.8774 1.6793H14.8801ZM2.89433 5.5108L5.48159 5.65294C4.56257 7.05552 4.63685 8.64201 5.70445 10.2975L3.25938 10.1199C2.11324 8.63161 2.00078 7.12031 2.89433 5.5108ZM8.14102 11.1546L25.2902 12.3983C25.3411 12.4276 25.3985 12.4443 25.4558 12.4443C25.4982 12.4443 25.5385 12.4339 25.5789 12.4192L32.0311 12.8874C32.0396 12.8874 32.0481 12.8895 32.0566 12.8895C32.1097 12.8895 32.1606 12.8749 32.2052 12.8519C32.2115 12.8498 32.2158 12.8498 32.2222 12.8477L38.2327 9.60988L40.8221 9.74575L31.3455 14.7896L4.09927 12.831L8.13831 11.1567L8.14102 11.1546ZM2.86885 13.4226L5.5092 13.6128C4.2633 15.9184 4.85125 18.226 5.7363 19.9464L3.23814 19.7081C2.04745 17.6805 1.93286 15.6195 2.86883 13.4248L2.86885 13.4226ZM6.5959 20.7092L24.6878 22.4358L12.6618 24.4842L2.81799 21.2882L6.5959 20.7092ZM12.388 25.1134C13.2051 26.6685 13.4981 28.1359 13.2646 29.5532L3.19795 25.3182L2.85199 22.0177L12.3905 25.1155L12.388 25.1134ZM2.86037 25.9161L13.1117 30.2283C13.0438 30.4645 12.961 30.6986 12.8634 30.9327L2.29147 26.1084L2.85818 25.9161L2.86037 25.9161ZM5.78723 28.4537L10.5479 30.6276L4.31839 28.7003L5.785 28.4537L5.78723 28.4537ZM13.9608 32.3959C14.8246 33.972 15.1367 35.4624 14.9032 36.9068L4.77464 32.722L4.36501 29.4257L13.9584 32.3939L13.9608 32.3959ZM4.44787 33.3261L14.7568 37.584C14.6974 37.793 14.6316 38 14.551 38.2069L3.8899 33.5247L4.4502 33.3261L4.44787 33.3261ZM42.7752 32.5527L40.3492 33.0502C40.9499 31.5055 41.1685 29.5323 39.687 27.7618L42.2297 27.2936C43.4501 29.0076 43.6369 30.7321 42.7731 32.5527L42.7752 32.5527Z" stroke="#FFD699"/>
</svg>
