<svg width="40" height="32" viewBox="0 0 40 32" fill="none" xmlns="http://www.w3.org/2000/svg">
<path d="M19.9732 0.00021921C19.7634 0.00471924 19.5676 0.0742347 19.3794 0.203346L0.379306 15.2034C-0.0578418 15.5545 -0.119862 16.2024 0.20743 16.6253C0.530012 17.0422 1.21617 17.109 1.62931 16.7816L20.0044 2.28148L38.3796 16.7816C38.7927 17.109 39.46 17.0397 39.7858 16.6253C40.1092 16.2141 40.0744 15.5309 39.6296 15.2034L20.6294 0.203346C20.4069 0.0567296 20.183 -0.00415582 19.9732 0.00021921ZM7.50435 13.4534L5.50434 15.0316V31.0004C5.50437 31.2656 5.60973 31.52 5.79726 31.7075C5.9848 31.8951 6.23914 32.0004 6.50435 32.0004H15.5044C15.7696 32.0004 16.024 31.8951 16.2115 31.7075C16.399 31.52 16.5044 31.2656 16.5044 31.0004V22.0004H23.5045V31.0004C23.5045 31.2656 23.6099 31.52 23.7974 31.7075C23.9849 31.8951 24.2393 32.0004 24.5045 32.0004H33.5045C33.7697 32.0004 34.0241 31.8951 34.2116 31.7075C34.3991 31.52 34.5045 31.2656 34.5045 31.0004V15.0316L32.5045 13.4534V30.0004H25.5045V21.0004C25.5044 20.7352 25.3991 20.4808 25.2116 20.2933C25.024 20.1057 24.7697 20.0004 24.5045 20.0004H15.5044C15.2392 20.0004 14.9849 20.1057 14.7973 20.2933C14.6098 20.4808 14.5044 20.7352 14.5044 21.0004V30.0004H7.50435V13.4534Z" fill="#FFD699"/>
</svg>
