<svg width="36" height="35" viewBox="0 0 36 35" fill="none" xmlns="http://www.w3.org/2000/svg">
<path d="M18.0016 0L0.00157895 4.82017V4.96392H0V31.5127H0.00315771V31.5142C0.00947393 31.8501 0.257371 32.1329 0.592095 32.1876L17.5326 34.9328V34.9953L18.2337 35V34.9703L35.4095 32.1876L35.4111 32.1861C35.7442 32.1298 35.9905 31.8486 35.9968 31.5127H35.9984V21.3256H36V17.8538H35.9984V16.293H36V14.4009H35.9984V11.2823H36V4.81858L18.0016 0ZM18.3379 6.55289L35.2958 11.0947V14.2304L18.3253 10.0542L18.3379 6.55289ZM17.6305 6.56226L17.6163 10.0668L0.704048 14.229V11.0932L17.6305 6.56226ZM18.3189 11.9432L21.3505 12.6901V14.4087L18.3142 13.6947L18.3189 11.9432ZM17.6115 11.962L17.6068 13.7134L14.6542 14.4087V12.69L17.6115 11.962ZM13.0262 13.09V14.7915L10.0356 15.4946V13.8259L13.0262 13.09ZM22.9783 13.09L25.9688 13.8259V15.4946L22.9783 14.7915V13.09ZM8.40763 14.2275V15.879L4.97655 16.6852V15.0712L8.40763 14.2275ZM27.5968 14.2275L31.0279 15.0712V16.6852L27.5968 15.879V14.2275ZM3.35053 15.4728V17.068L0.707345 17.6898V16.1227L3.35053 15.4728ZM32.6559 15.4728L35.2975 16.1227V17.6898L32.6559 17.068V15.4728ZM19.2397 21.8133C22.0029 23.8194 25.2887 24.9975 28.6312 24.8553C30.0633 24.7944 31.4464 24.3678 32.7982 23.8522C32.2234 24.3507 31.584 24.7772 30.9035 25.1225H30.9019C30.7298 25.21 30.6619 25.4194 30.7503 25.5897C30.7929 25.6725 30.8656 25.735 30.954 25.7647C31.044 25.7928 31.1403 25.785 31.224 25.7444C31.7403 25.4819 32.2345 25.1772 32.6987 24.8303C31.8476 26.0209 30.8198 27.0459 29.5298 27.5802C28.0108 28.2098 26.3245 28.3614 24.7362 28.0005C23.1478 27.6396 21.6541 26.7568 20.5267 25.4928C19.9173 24.8085 19.5036 23.9726 19.1973 23.0804C19.4641 23.457 19.7609 23.8116 20.0846 24.1413L20.0862 24.1397C20.2204 24.2757 20.4415 24.2772 20.5789 24.1444C20.7162 24.0116 20.721 23.7944 20.5883 23.6569C20.0515 23.1116 19.5952 22.4882 19.2367 21.8133L19.2397 21.8133ZM17.0939 22.1179C16.7671 23.3616 16.3044 24.5662 15.4786 25.4928C14.3512 26.7568 12.8528 27.6395 11.2643 28.0004C9.67588 28.3614 7.98798 28.2098 6.47076 27.5801C5.15392 27.0333 4.1134 25.9787 3.25445 24.7568C3.64129 25.074 4.04707 25.3693 4.47024 25.6365C6.18026 26.7192 8.25184 27.3973 10.3091 27.1067C11.3512 26.9599 12.3412 26.5708 13.2238 26.0271H13.2222C13.3028 25.9787 13.3596 25.899 13.3817 25.8084C13.4022 25.7177 13.3864 25.6224 13.3359 25.5443C13.2317 25.3834 13.017 25.3349 12.8543 25.4365C12.0443 25.9349 11.1412 26.2865 10.2096 26.4177C8.37009 26.6771 6.45324 26.0661 4.84892 25.0506C4.30736 24.7084 3.79575 24.3194 3.3189 23.8928C4.63574 24.3897 5.981 24.7943 7.37355 24.8537C10.4841 24.9865 13.5443 23.9756 16.1809 22.2195C15.5652 23.096 14.8357 23.8959 14.013 24.5881H14.0114C13.8646 24.7115 13.8472 24.9303 13.9704 25.0756C14.0304 25.1475 14.1172 25.1912 14.2104 25.199C14.3051 25.2068 14.3967 25.1772 14.4678 25.1162C15.4909 24.2553 16.3767 23.2398 17.092 22.1164L17.0939 22.1179ZM18.2829 22.5804C18.635 23.8272 19.1576 25.0115 19.9976 25.9568C20.3655 26.3692 20.7713 26.7443 21.2024 27.077L18.2655 27.4223L18.2829 22.5804ZM17.5755 23.06L17.5581 27.399L14.7997 27.0756C15.2307 26.7428 15.6334 26.3678 16.0013 25.9569C16.7339 25.1351 17.225 24.1304 17.5739 23.0617L17.5755 23.06ZM1.41023 23.7569C1.77023 24.4475 2.21077 25.0881 2.71131 25.6693L1.41023 25.5193V23.7569ZM34.5904 23.7569V25.5209L33.2893 25.6724C33.7914 25.0912 34.2304 24.4491 34.5904 23.7569ZM22.0012 24.849H21.9996C21.9696 24.8475 21.938 24.8506 21.9096 24.8584C21.818 24.8787 21.7391 24.935 21.6901 25.0131C21.5907 25.1771 21.6444 25.3912 21.8101 25.4912C23.157 26.2989 24.7186 26.7599 26.2945 26.8286C27.5513 26.8833 28.8082 26.6896 29.9876 26.274V26.2724C30.0761 26.2412 30.1487 26.1771 30.1882 26.0927C30.2276 26.0084 30.2324 25.9131 30.2008 25.8256C30.1692 25.7381 30.1045 25.6662 30.0192 25.6271C29.934 25.5865 29.8361 25.5834 29.7476 25.6146C28.6487 26.0006 27.485 26.1834 26.3229 26.1334C24.8655 26.0693 23.4144 25.6412 22.1716 24.8959L22.1732 24.8944C22.1211 24.8647 22.0611 24.8475 21.9995 24.8475L22.0012 24.849ZM1.41023 26.2224L3.47394 26.4599C4.22553 27.1567 5.08133 27.7255 6.00341 28.1364V29.2394L1.41197 28.7067V26.2224L1.41023 26.2224ZM34.5904 26.224V28.7082L30.0192 29.2394V28.1301C30.9334 27.7208 31.7797 27.1552 32.5265 26.4646L34.5904 26.224ZM13.9218 27.6755L14.1081 27.6973L17.5582 28.0989L17.5503 30.5816L12.477 29.9925V28.3676C12.9775 28.1832 13.4623 27.952 13.9233 27.677L13.9218 27.6755ZM22.0833 27.677C22.5506 27.9551 23.0401 28.1879 23.5454 28.3739V29.9926L18.2542 30.6066L18.2621 28.1224L18.3221 28.1146L21.9127 27.6974L22.0833 27.677ZM29.3118 28.4082V29.3207L24.2466 29.9097V28.5973C24.3571 28.627 24.4677 28.6551 24.5798 28.6801C26.1461 29.0363 27.7928 28.9348 29.3118 28.4082ZM6.70905 28.416C8.22484 28.9363 9.86538 29.0363 11.4254 28.6817C11.5422 28.6551 11.6591 28.6254 11.7743 28.5942V29.9113L6.70916 29.3222L6.70905 28.416ZM1.41023 29.4066L3.09022 29.6004L3.0318 31.1691L1.41179 30.9066V29.4066L1.41023 29.4066ZM34.5904 29.4098V30.9066L32.9909 31.1659L32.9325 29.6004L34.5904 29.4098ZM3.78983 29.6832L9.00497 30.2878V32.1377L3.7296 31.2815L3.78983 29.6832ZM32.2314 29.6832L32.2914 31.28L27.0144 32.1362V30.2894L32.2314 29.6832ZM9.70588 30.3707L14.5107 30.9284V33.0315L9.70588 32.2518V30.3707ZM26.3133 30.3707V32.2487L21.5085 33.0283V30.9284L26.3133 30.3707ZM15.2117 31.0097L17.5438 31.28L17.5359 33.5221L15.2101 33.1456L15.2117 31.0097ZM20.8059 31.0097V33.1424L18.2433 33.558L18.2512 31.3066L18.3223 31.2988L20.8059 31.0097Z" fill="#FFD699"/>
</svg>
