<svg width="60" height="88" viewBox="0 0 60 88" fill="none" xmlns="http://www.w3.org/2000/svg">
<path d="M30.0009 19L20.0009 21.7544V21.8365H20V37.0072H20.0018V37.0081C20.0053 37.2001 20.143 37.3617 20.3289 37.3929L29.7403 38.9616V38.9973L30.1298 39V38.983L39.6719 37.3929L39.6728 37.392C39.8579 37.3599 39.9947 37.1992 39.9982 37.0072H39.9991V31.186H40V29.2022H39.9991V28.3103H40V27.2291H39.9991V25.447H40V21.7535L30.0009 19ZM30.1877 22.7445L39.6088 25.3398V27.1317L30.1807 24.7453L30.1877 22.7445ZM29.7947 22.7499L29.7868 24.7524L20.3911 27.1308V25.339L29.7947 22.7499ZM30.1772 25.8247L31.8614 26.2515V27.2336L30.1745 26.8255L30.1772 25.8247ZM29.7842 25.8354L29.7816 26.8362L28.1412 27.2336V26.2515L29.7842 25.8354ZM27.2368 26.48V27.4523L25.5754 27.8541V26.9005L27.2368 26.48ZM32.7657 26.48L34.4271 26.9005V27.8541L32.7657 27.4523V26.48ZM24.6709 27.13V28.0737L22.7648 28.5344V27.6121L24.6709 27.13ZM35.3316 27.13L37.2377 27.6121V28.5344L35.3316 28.0737V27.13ZM21.8614 27.8416V28.7531L20.393 29.1085V28.213L21.8614 27.8416ZM38.1422 27.8416L39.6097 28.213V29.1085L38.1422 28.7531V27.8416ZM30.6887 31.4647C32.2238 32.6111 34.0493 33.2843 35.9062 33.203C36.7018 33.1682 37.4702 32.9245 38.2212 32.6298C37.9019 32.9147 37.5467 33.1584 37.1686 33.3557H37.1677C37.0721 33.4057 37.0344 33.5253 37.0835 33.6227C37.1072 33.67 37.1475 33.7057 37.1967 33.7227C37.2467 33.7387 37.3002 33.7343 37.3467 33.7111C37.6335 33.5611 37.9081 33.387 38.1659 33.1888C37.6931 33.8691 37.1221 34.4548 36.4054 34.7601C35.5616 35.1199 34.6247 35.2065 33.7423 35.0003C32.8599 34.794 32.0301 34.2896 31.4037 33.5673C31.0652 33.1763 30.8353 32.6986 30.6651 32.1888C30.8134 32.404 30.9783 32.6067 31.1581 32.795L31.159 32.7941C31.2336 32.8718 31.3564 32.8727 31.4327 32.7968C31.509 32.7209 31.5116 32.5968 31.438 32.5182C31.1397 32.2067 30.8862 31.8504 30.6871 31.4647L30.6887 31.4647ZM29.4966 31.6388C29.315 32.3495 29.058 33.0379 28.5992 33.5673C27.9729 34.2896 27.1405 34.794 26.258 35.0003C25.3755 35.2065 24.4378 35.1199 23.5949 34.7601C22.8633 34.4476 22.2852 33.8449 21.808 33.1468C22.0229 33.328 22.2484 33.4967 22.4835 33.6494C23.4335 34.2681 24.5844 34.6556 25.7273 34.4896C26.3062 34.4056 26.8562 34.1833 27.3466 33.8726H27.3457C27.3904 33.845 27.422 33.7994 27.4343 33.7476C27.4457 33.6959 27.4369 33.6414 27.4088 33.5967C27.351 33.5048 27.2317 33.4771 27.1413 33.5351C26.6913 33.82 26.1895 34.0208 25.672 34.0958C24.6501 34.244 23.5851 33.8949 22.6938 33.3146C22.393 33.1191 22.1087 32.8968 21.8438 32.653C22.5754 32.937 23.3228 33.1682 24.0964 33.2021C25.8245 33.278 27.5246 32.7003 28.9894 31.6968C28.6473 32.1977 28.242 32.6548 27.785 33.0503H27.7841C27.7026 33.1209 27.6929 33.2459 27.7613 33.3289C27.7947 33.37 27.8429 33.395 27.8947 33.3994C27.9473 33.4039 27.9982 33.3869 28.0376 33.3521C28.6061 32.8602 29.0982 32.2799 29.4955 31.6379L29.4966 31.6388ZM30.1571 31.9031C30.3528 32.6155 30.6431 33.2923 31.1098 33.8324C31.3142 34.0681 31.5396 34.2824 31.7791 34.4726L30.1475 34.6699L30.1571 31.9031ZM29.7642 32.1772L29.7545 34.6566L28.2221 34.4718C28.4615 34.2816 28.6852 34.0673 28.8896 33.8325C29.2966 33.3629 29.5694 32.7888 29.7633 32.1781L29.7642 32.1772ZM20.7835 32.5754C20.9835 32.97 21.2282 33.336 21.5063 33.6682L20.7835 33.5824V32.5754ZM39.2169 32.5754V33.5834L38.4941 33.67C38.773 33.3378 39.0169 32.9709 39.2169 32.5754ZM32.2229 33.1994H32.222C32.2053 33.1986 32.1878 33.2003 32.172 33.2048C32.1211 33.2164 32.0773 33.2486 32.0501 33.2932C31.9948 33.3869 32.0246 33.5093 32.1167 33.5664C32.865 34.028 33.7325 34.2914 34.608 34.3307C35.3063 34.3619 36.0046 34.2512 36.6598 34.0137V34.0128C36.7089 33.995 36.7493 33.9584 36.7712 33.9101C36.7931 33.8619 36.7958 33.8075 36.7782 33.7575C36.7607 33.7075 36.7247 33.6664 36.6773 33.6441C36.63 33.6209 36.5756 33.6191 36.5265 33.6369C35.9159 33.8575 35.2694 33.9619 34.6238 33.9334C33.8142 33.8968 33.008 33.6521 32.3176 33.2262L32.3184 33.2253C32.2895 33.2084 32.2562 33.1986 32.2219 33.1986L32.2229 33.1994ZM20.7835 33.9842L21.93 34.1199C22.3475 34.5181 22.823 34.8431 23.3352 35.0779V35.7083L20.7844 35.4038V33.9842L20.7835 33.9842ZM39.2169 33.9851V35.4047L36.6773 35.7082V35.0744C37.1852 34.8404 37.6554 34.5172 38.0703 34.1226L39.2169 33.9851ZM27.7343 34.8145L27.8378 34.8271L29.7545 35.0565L29.7501 36.4752L26.9317 36.1386V35.21C27.2097 35.1047 27.479 34.9726 27.7352 34.8154L27.7343 34.8145ZM32.2685 34.8154C32.5281 34.9744 32.8001 35.1074 33.0808 35.2136V36.1386L30.1412 36.4895L30.1456 35.0699L30.179 35.0655L32.1737 34.8271L32.2685 34.8154ZM36.2843 35.2333V35.7547L33.4703 36.0913V35.3413C33.5317 35.3583 33.5931 35.3743 33.6554 35.3886C34.5256 35.5922 35.4405 35.5342 36.2843 35.2333ZM23.7272 35.2377C24.5694 35.535 25.4808 35.5922 26.3474 35.3895C26.4124 35.3743 26.4773 35.3574 26.5413 35.3395V36.0922L23.7273 35.7556L23.7272 35.2377ZM20.7835 35.8038L21.7168 35.9145L21.6843 36.8109L20.7843 36.6609V35.8038L20.7835 35.8038ZM39.2169 35.8056V36.6609L38.3283 36.8091L38.2958 35.9145L39.2169 35.8056ZM22.1055 35.9618L25.0028 36.3073V37.3644L22.072 36.8752L22.1055 35.9618ZM37.9063 35.9618L37.9397 36.8743L35.008 37.3635V36.3082L37.9063 35.9618ZM25.3922 36.3547L28.0615 36.6734V37.8751L25.3922 37.4296V36.3547ZM34.6185 36.3547V37.4278L31.9491 37.8733V36.6734L34.6185 36.3547ZM28.4509 36.7198L29.7465 36.8743L29.7421 38.1555L28.45 37.9403L28.4509 36.7198ZM31.5589 36.7198V37.9385L30.1352 38.176L30.1396 36.8895L30.179 36.885L31.5589 36.7198Z" fill="black"/>
<path fill-rule="evenodd" clip-rule="evenodd" d="M29.6885 7.81201C17.6265 7.81201 7.81348 17.6245 7.81348 29.687C7.81348 41.7495 17.626 51.562 29.6885 51.562C41.751 51.562 51.5635 41.7495 51.5635 29.687C51.5635 17.6245 41.751 7.81201 29.6885 7.81201ZM29.6885 10.937C40.0635 10.937 48.4385 19.312 48.4385 29.687C48.4385 40.062 40.0635 48.437 29.6885 48.437C19.3135 48.437 10.9385 40.062 10.9385 29.687C10.9385 19.312 19.3135 10.937 29.6885 10.937Z" fill="black"/>
<path fill-rule="evenodd" clip-rule="evenodd" d="M29.688 0.000100136C13.309 0.000100136 0 13.3091 0 29.6881C0 38.399 7.2812 49.6371 14.375 59.1061C15.8672 61.0983 17.3477 62.9772 18.7734 64.7428C16.2265 65.485 14.0546 66.4772 12.3476 67.6998C10.7421 68.8521 9.5078 70.2701 8.9374 71.8756H7.8124C6.94912 71.8756 6.2499 72.5748 6.2499 73.4381C6.2499 74.3014 6.94912 75.0006 7.8124 75.0006H8.72256C8.98428 76.2467 9.64053 77.3951 10.5429 78.3756C11.7226 79.6608 13.3202 80.7194 15.2226 81.5983C18.6718 83.1881 23.1601 84.1725 28.1246 84.3444V85.9382C28.1246 86.8015 28.8238 87.5007 29.6871 87.5007C30.5503 87.5007 31.2496 86.8015 31.2496 85.9382V84.3444C36.2184 84.1725 40.7027 83.1882 44.1516 81.5983C46.0578 80.7194 47.6516 79.6608 48.8313 78.3756C49.7336 77.3951 50.386 76.2467 50.6516 75.0006H51.5617C52.425 75.0006 53.1242 74.3014 53.1242 73.4381C53.1242 72.5748 52.425 71.8756 51.5617 71.8756H50.4406C49.8781 70.2662 48.6476 68.8483 47.0422 67.6959C45.3391 66.4693 43.1633 65.4732 40.6086 64.7311C42.0305 62.9694 43.507 61.0983 44.9953 59.11C52.093 49.6373 59.3743 38.399 59.3743 29.688C59.3743 13.309 46.0653 0 29.6863 0L29.688 0.000100136ZM29.688 3.1251C44.376 3.1251 56.25 15.0001 56.25 29.6871C56.25 36.5113 49.4688 47.9291 42.5 57.2341C36.4375 65.3279 31.164 71.0701 29.688 72.6641C28.2114 71.0703 22.938 65.3282 16.876 57.2341C9.9072 47.9294 3.126 36.5111 3.126 29.6871C3.126 14.9991 15.001 3.1251 29.688 3.1251ZM38.4419 67.3831C41.3247 68.0862 43.6567 69.1058 45.2231 70.2308C45.9926 70.7816 46.5473 71.3363 46.9379 71.8753H46.8754C46.0121 71.8753 45.3129 72.5745 45.3129 73.4378C45.3129 74.3011 46.0121 75.0003 46.8754 75.0003H47.3988C47.2191 75.4065 46.934 75.8245 46.5356 76.262C45.7387 77.1292 44.477 78.012 42.8442 78.762C39.9145 80.1097 35.8208 81.0393 31.2502 81.2151C31.2306 80.3674 30.5353 79.6878 29.6877 79.6878C28.84 79.6878 28.1486 80.3675 28.1291 81.2151C23.5549 81.0393 19.4611 80.1096 16.5311 78.762C14.9022 78.012 13.6366 77.1292 12.8397 76.262C12.4412 75.8245 12.16 75.4065 11.9764 75.0003H12.4998C13.3631 75.0003 14.0623 74.3011 14.0623 73.4378C14.0623 72.5745 13.3631 71.8753 12.4998 71.8753H12.449C12.8436 71.3362 13.4022 70.7894 14.1678 70.2386C15.7342 69.1136 18.0701 68.098 20.949 67.3988C25.2654 72.5785 28.5545 76.0746 28.5545 76.0746C29.1717 76.7269 30.2068 76.7269 30.824 76.0746C30.824 76.0746 34.1216 72.5706 38.4419 67.3831Z" fill="black"/>
</svg>
