<svg width="44" height="43" viewBox="0 0 44 43" fill="none" xmlns="http://www.w3.org/2000/svg">
<path d="M42.8942 4.62036C42.8942 3.66379 42.5084 2.72988 41.8329 2.05434C41.1434 1.37358 40.2357 1 39.2738 1H9.3805C7.48828 1 5.95042 2.53786 5.95042 4.43008V32.8952H1V35.84C1 39.0414 3.40018 41.6806 6.59302 41.9773C6.7571 41.9913 21.2767 41.9965 33.4298 42H33.435C34.3427 41.9983 35.2085 41.6387 35.8858 40.9788C36.6242 40.2596 37.0484 39.2629 37.0484 38.2435L37.0501 9.45347H42.8943L42.8942 4.62036ZM35.6536 4.62036V38.2419C35.6536 38.886 35.383 39.5197 34.9135 39.977C34.491 40.3872 33.9359 40.6072 33.4053 40.6002C32.8275 40.5915 32.2654 40.3593 31.8604 39.9543C31.4485 39.5424 31.2111 38.9681 31.2111 38.3781V32.8937H23.2984V34.2901H29.8146V38.3783C29.8146 39.183 30.0869 39.9702 30.574 40.6022C21.1602 40.5987 7.06102 40.5934 6.71336 40.5847C5.08474 40.4328 3.72492 39.485 2.9883 38.1444H13.5545V36.7479L2.48244 36.7497C2.42659 36.4547 2.39691 36.151 2.39691 35.8402V34.2919H20.9594V32.8954H7.34733V4.43028C7.34733 3.30962 8.26028 2.39667 9.38094 2.39667H36.4183C35.9383 3.01111 35.652 3.78268 35.652 4.62056L35.6536 4.62036ZM41.4977 8.05741H37.05V4.62036C37.05 3.39321 38.0467 2.39647 39.2739 2.39647C39.8656 2.39647 40.426 2.62863 40.8484 3.04581C41.2603 3.45777 41.4977 4.03205 41.4977 4.62206V8.05911V8.05741Z" stroke="#FFD699"/>
<path d="M13.2698 12.278L13.4496 10.8937C12.0653 10.7139 11.0215 9.52344 11.0215 8.12348C11.0215 6.58388 12.2748 5.33055 13.8144 5.33055C14.743 5.33055 15.6089 5.79136 16.1308 6.56293L17.2881 5.7809C16.5061 4.62534 15.2091 3.93408 13.8144 3.93408C11.505 3.93408 9.625 5.81406 9.625 8.12348C9.625 10.2217 11.1908 12.0074 13.2698 12.278Z" stroke="#FFD699"/>
<path d="M16.267 9.58818L14.3085 7.62964L13.3223 8.61763L16.267 11.5642L21.0798 6.75141L20.0918 5.76343L16.267 9.58818Z" stroke="#FFD699"/>
<path d="M13.2698 21.8141L13.4496 20.4298C12.0653 20.2501 11.0215 19.0596 11.0215 17.6614C11.0215 16.1218 12.2748 14.8684 13.8144 14.8684C14.743 14.8684 15.6106 15.3292 16.1308 16.0991L17.2881 15.317C16.5061 14.1615 15.2091 13.4702 13.8144 13.4702C11.505 13.4702 9.625 15.3502 9.625 17.6596C9.625 19.7578 11.1908 21.5435 13.2698 21.8141Z" stroke="#FFD699"/>
<path d="M16.267 19.1243L14.3085 17.1675L13.3223 18.1538L16.267 21.1003L21.0798 16.2875L20.0918 15.2996L16.267 19.1243Z" stroke="#FFD699"/>
<path d="M11.0215 27.1818C11.0215 25.6422 12.2748 24.3889 13.8144 24.3889C14.743 24.3889 15.6089 24.8497 16.1308 25.6213L17.2881 24.8393C16.5061 23.6837 15.2091 22.9924 13.8144 22.9924C11.505 22.9924 9.625 24.8724 9.625 27.1818C9.625 29.28 11.1908 31.0658 13.2698 31.3363L13.4496 29.9521C12.0653 29.7723 11.0215 28.5818 11.0215 27.1818Z" stroke="#FFD699"/>
<path d="M16.267 28.6463L14.3085 26.6878L13.3223 27.6758L16.267 30.6206L21.0798 25.8078L20.0918 24.8215L16.267 28.6463Z" stroke="#FFD699"/>
<path d="M21.9473 5.81079H32.7177V7.20726H21.9473V5.81079Z" stroke="#FFD699"/>
<path d="M30.209 9.04004H32.7191V10.4365H30.209V9.04004Z" stroke="#FFD699"/>
<path d="M21.9473 9.04004H29.1092V10.4365H21.9473V9.04004Z" stroke="#FFD699"/>
<path d="M25.7275 15.3328H32.717V16.7292H25.7275V15.3328Z" stroke="#FFD699"/>
<path d="M21.9473 15.3328H24.6494V16.7292H21.9473V15.3328Z" stroke="#FFD699"/>
<path d="M21.9473 18.5623H32.7177V19.9587H21.9473V18.5623Z" stroke="#FFD699"/>
<path d="M21.9473 24.8533H32.7177V26.2497H21.9473V24.8533Z" stroke="#FFD699"/>
<path d="M21.9473 28.0823H32.7177V29.4787H21.9473V28.0823Z" stroke="#FFD699"/>
<path d="M15.1094 36.7493H16.7275V38.1457H15.1094V36.7493Z" stroke="#FFD699"/>
</svg>
