<svg width="410" height="416" viewBox="0 0 410 416" fill="none" xmlns="http://www.w3.org/2000/svg">
<g filter="url(#filter0_bdd_343_484)">
<circle cx="205" cy="209" r="156" fill="url(#paint0_linear_343_484)" shape-rendering="crispEdges"/>
<circle cx="205" cy="209" r="154.5" stroke="url(#paint1_linear_343_484)" stroke-width="3" stroke-dasharray="20 20" shape-rendering="crispEdges"/>
</g>
<g clip-path="url(#clip0_343_484)">
<path d="M192.5 238.375C192.5 238.625 192.438 238.854 192.312 239.062C192.188 239.271 192 239.375 191.75 239.375C191.375 239.375 191.125 239.167 191 238.75C190.042 236.167 188.958 234.167 187.75 232.75C186.542 231.333 185.5 230.625 184.625 230.625C184.292 230.625 184.021 230.833 183.812 231.25C183.646 231.625 183.5 232.104 183.375 232.688C183.292 233.229 183.208 233.854 183.125 234.562C183.083 235.229 183.042 235.833 183 236.375C182.5 242.417 181.812 247.667 180.938 252.125C180.062 256.542 179 260.417 177.75 263.75C176.542 267.042 175.146 269.875 173.562 272.25C172.021 274.625 170.333 276.75 168.5 278.625C166.333 280.792 163.833 282.625 161 284.125C158.208 285.625 155.312 286.896 152.312 287.938C149.312 289.021 146.312 289.896 143.312 290.562C140.354 291.271 137.667 291.875 135.25 292.375C133.917 292.625 132.792 292.958 131.875 293.375C130.958 293.792 130.375 294 130.125 294C129.542 294 129.25 293.833 129.25 293.5C129.25 293.375 129.438 293.146 129.812 292.812C130.188 292.521 130.646 292.188 131.188 291.812C131.771 291.438 132.396 291.042 133.062 290.625C133.688 290.208 134.25 289.833 134.75 289.5C137.917 287.375 141.312 284.958 144.938 282.25C148.604 279.583 152.188 276.417 155.688 272.75C159.229 269.083 162.562 264.812 165.688 259.938C168.812 255.062 171.417 249.375 173.5 242.875C174.083 241.042 174.583 239.167 175 237.25C175.458 235.292 175.833 233.375 176.125 231.5C176.458 229.625 176.75 227.792 177 226C177.25 224.25 177.5 222.583 177.75 221C178.25 217.625 178.854 214.917 179.562 212.875C180.312 210.792 181.292 209.75 182.5 209.75C183.5 209.75 184.604 210.229 185.812 211.188C187.062 212.104 188.25 213.625 189.375 215.75C190.042 216.958 190.583 218.604 191 220.688C191.417 222.729 191.729 224.854 191.938 227.062C192.188 229.271 192.333 231.417 192.375 233.5C192.458 235.542 192.5 237.167 192.5 238.375ZM254.375 227.5C253.167 229.625 251.792 231.438 250.25 232.938C248.708 234.396 247 235.625 245.125 236.625C245.333 237.833 245.438 239 245.438 240.125C245.479 241.25 245.5 242.417 245.5 243.625C245.5 248.125 245.104 252.25 244.312 256C243.562 259.75 242.458 263.188 241 266.312C239.542 269.438 237.75 272.271 235.625 274.812C233.542 277.396 231.167 279.75 228.5 281.875C226.125 283.583 223.833 284.958 221.625 286C219.417 287.042 217.062 287.938 214.562 288.688C212.062 289.438 209.292 290.125 206.25 290.75C203.208 291.375 199.667 292.125 195.625 293C194.333 293.292 193.104 293.604 191.938 293.938C190.812 294.312 189.792 294.646 188.875 294.938C187.958 295.271 187.208 295.562 186.625 295.812C186.042 296.021 185.667 296.125 185.5 296.125C185.167 296.125 184.875 296.083 184.625 296C184.375 295.917 184.25 295.708 184.25 295.375C184.25 295 184.708 294.562 185.625 294.062C186.542 293.521 187.875 292.708 189.625 291.625C196.125 288.167 201.875 284.729 206.875 281.312C211.917 277.938 216.292 274.688 220 271.562C223.75 268.438 226.896 265.479 229.438 262.688C231.979 259.896 234.021 257.354 235.562 255.062C237.146 252.729 238.271 250.708 238.938 249C239.646 247.25 240 245.875 240 244.875C240 244.125 239.854 243.375 239.562 242.625C239.312 241.833 238.875 241 238.25 240.125C236.042 240.625 234.083 241 232.375 241.25C230.667 241.5 229.125 241.625 227.75 241.625C225.625 241.625 223.75 241.312 222.125 240.688C220.5 240.062 219.125 239.229 218 238.188C216.875 237.146 216.021 235.979 215.438 234.688C214.896 233.354 214.625 232 214.625 230.625C214.625 229.958 214.708 228.979 214.875 227.688C215.042 226.396 215.25 225 215.5 223.5C215.708 222 215.917 220.479 216.125 218.938C216.375 217.354 216.583 215.917 216.75 214.625C216.958 212.75 217.354 211.146 217.938 209.812C218.521 208.438 219.25 207.312 220.125 206.438C221 205.562 222 204.917 223.125 204.5C224.25 204.083 225.458 203.875 226.75 203.875C228.833 203.875 230.646 204.312 232.188 205.188C233.771 206.021 235.188 207.292 236.438 209C237.688 210.667 238.833 212.771 239.875 215.312C240.958 217.854 242.042 220.792 243.125 224.125C245.708 224.583 247.938 225.083 249.812 225.625C251.729 226.167 253.25 226.792 254.375 227.5ZM275.625 132.5C275.292 133.542 274.792 134.812 274.125 136.312C273.5 137.771 272.833 139.188 272.125 140.562C271.417 141.938 270.75 143.104 270.125 144.062C269.5 145.021 269.042 145.5 268.75 145.5C268.292 145.5 267.438 145.208 266.188 144.625C264.938 144.042 263.583 143.292 262.125 142.375C260.625 141.417 259.188 140.333 257.812 139.125C256.438 137.875 255.417 136.583 254.75 135.25C254.75 135.125 254.854 134.75 255.062 134.125C255.271 133.5 255.542 132.771 255.875 131.938C256.25 131.104 256.646 130.188 257.062 129.188C257.479 128.188 257.917 127.229 258.375 126.312C258.833 125.396 259.292 124.583 259.75 123.875C260.167 123.125 260.542 122.583 260.875 122.25C262.167 123.583 263.479 124.792 264.812 125.875C266.146 126.958 267.458 127.938 268.75 128.812C270.042 129.688 271.271 130.438 272.438 131.062C273.604 131.646 274.667 132.083 275.625 132.375V132.5ZM277.5 204.375C276.792 206.875 276.125 209.125 275.5 211.125C274.875 213.125 274.167 215 273.375 216.75C272.625 218.458 271.729 220.083 270.688 221.625C269.688 223.167 268.458 224.708 267 226.25C264.75 228.583 262.312 230.667 259.688 232.5C257.062 234.375 254.375 235.938 251.625 237.188C248.875 238.479 246.104 239.458 243.312 240.125C240.562 240.792 237.917 241.125 235.375 241.125C233.167 241.125 231.083 241 229.125 240.75C227.125 240.5 225.292 240.083 223.625 239.5C221.917 238.917 220.396 238.125 219.062 237.125C217.729 236.125 216.625 234.875 215.75 233.375C216.292 232.125 216.979 230.917 217.812 229.75C218.646 228.625 219.583 227.625 220.625 226.75C221.625 225.875 222.688 225.188 223.812 224.688C224.938 224.146 226.042 223.875 227.125 223.875C228.333 223.875 229.75 223.958 231.375 224.125C233 224.292 234.5 224.375 235.875 224.375C240.542 224.375 245.167 223.375 249.75 221.375C254.375 219.375 259.167 216.25 264.125 212C266.375 210.042 268.25 207.938 269.75 205.688C271.25 203.438 272 201.083 272 198.625C272 196.667 271.792 194.771 271.375 192.938C271 191.104 270.458 189.292 269.75 187.5C269.083 185.667 268.271 183.833 267.312 182C266.396 180.167 265.375 178.25 264.25 176.25C265.208 173.75 266.229 171.188 267.312 168.562C268.396 165.938 269.667 163.208 271.125 160.375H271.75C274.75 165.792 277 170.833 278.5 175.5C280 180.125 280.75 184.542 280.75 188.75C280.75 190.958 280.417 193.354 279.75 195.938C279.125 198.479 278.375 201.292 277.5 204.375Z" fill="url(#paint2_linear_343_484)"/>
</g>
<defs>
<filter id="filter0_bdd_343_484" x="0" y="0" width="410" height="416" filterUnits="userSpaceOnUse" color-interpolation-filters="sRGB">
<feFlood flood-opacity="0" result="BackgroundImageFix"/>
<feGaussianBlur in="BackgroundImageFix" stdDeviation="24"/>
<feComposite in2="SourceAlpha" operator="in" result="effect1_backgroundBlur_343_484"/>
<feColorMatrix in="SourceAlpha" type="matrix" values="0 0 0 0 0 0 0 0 0 0 0 0 0 0 0 0 0 0 127 0" result="hardAlpha"/>
<feMorphology radius="1" operator="dilate" in="SourceAlpha" result="effect2_dropShadow_343_484"/>
<feOffset dy="-4"/>
<feGaussianBlur stdDeviation="24"/>
<feComposite in2="hardAlpha" operator="out"/>
<feColorMatrix type="matrix" values="0 0 0 0 0.403922 0 0 0 0 0.172549 0 0 0 0 0.737255 0 0 0 1 0"/>
<feBlend mode="normal" in2="effect1_backgroundBlur_343_484" result="effect2_dropShadow_343_484"/>
<feColorMatrix in="SourceAlpha" type="matrix" values="0 0 0 0 0 0 0 0 0 0 0 0 0 0 0 0 0 0 127 0" result="hardAlpha"/>
<feMorphology radius="1" operator="erode" in="SourceAlpha" result="effect3_dropShadow_343_484"/>
<feOffset dy="4"/>
<feGaussianBlur stdDeviation="24"/>
<feComposite in2="hardAlpha" operator="out"/>
<feColorMatrix type="matrix" values="0 0 0 0 0 0 0 0 0 0 0 0 0 0 0 0 0 0 0.25 0"/>
<feBlend mode="normal" in2="effect2_dropShadow_343_484" result="effect3_dropShadow_343_484"/>
<feBlend mode="normal" in="SourceGraphic" in2="effect3_dropShadow_343_484" result="shape"/>
</filter>
<linearGradient id="paint0_linear_343_484" x1="205" y1="53" x2="205" y2="365" gradientUnits="userSpaceOnUse">
<stop stop-color="white" stop-opacity="0.4"/>
<stop offset="1" stop-color="white" stop-opacity="0.1"/>
</linearGradient>
<linearGradient id="paint1_linear_343_484" x1="49" y1="53" x2="361" y2="365" gradientUnits="userSpaceOnUse">
<stop stop-color="#FFD08A"/>
<stop offset="1" stop-color="#672CBC"/>
</linearGradient>
<linearGradient id="paint2_linear_343_484" x1="128" y1="229" x2="292" y2="229" gradientUnits="userSpaceOnUse">
<stop stop-color="#00499F"/>
<stop offset="1" stop-color="#FFD699"/>
</linearGradient>
<clipPath id="clip0_343_484">
<rect width="152" height="175" fill="white" transform="translate(129 122)"/>
</clipPath>
</defs>
</svg>
