<svg width="55" height="56" viewBox="0 0 55 56" fill="none" xmlns="http://www.w3.org/2000/svg">
<path d="M27.4998 21.4174C27.4998 27.4608 16.2168 29.2526 16.2168 38.2657C16.287 40.511 17.1141 42.6632 18.5591 44.3607" stroke="#FFD08A" stroke-width="1.5" stroke-linecap="round" stroke-linejoin="round"/>
<path d="M27.5002 44.3602H7.0127V49.5833H27.5002" stroke="#FFD08A" stroke-width="1.5" stroke-linecap="round" stroke-linejoin="round"/>
<path d="M11.5657 49.5833C11.5657 46.6985 10.5464 44.3598 9.28935 44.3598C8.03226 44.3598 7.0127 46.6985 7.0127 49.5833" stroke="#FFD08A" stroke-width="1.5" stroke-linecap="round" stroke-linejoin="round"/>
<path d="M16.1182 49.5833C16.1182 46.6985 15.099 44.3598 13.8417 44.3598C12.5845 44.3598 11.5654 46.6985 11.5654 49.5833" stroke="#FFD08A" stroke-width="1.5" stroke-linecap="round" stroke-linejoin="round"/>
<path d="M20.6708 49.5833C20.6708 46.6985 19.6516 44.3598 18.3944 44.3598C17.1372 44.3598 16.1182 46.6985 16.1182 49.5833" stroke="#FFD08A" stroke-width="1.5" stroke-linecap="round" stroke-linejoin="round"/>
<path d="M25.2238 49.5833C25.2238 46.6985 24.204 44.3598 22.9473 44.3598C21.6907 44.3598 20.6709 46.6985 20.6709 49.5833" stroke="#FFD08A" stroke-width="1.5" stroke-linecap="round" stroke-linejoin="round"/>
<path d="M29.7763 49.5833C29.7763 46.6985 28.7572 44.3598 27.4999 44.3598C26.2427 44.3598 25.2236 46.6985 25.2236 49.5833" stroke="#FFD08A" stroke-width="1.5" stroke-linecap="round" stroke-linejoin="round"/>
<path d="M13.0145 24.6779L14.1879 20.3762H13.0145V19.3975C13.0145 18.1342 12.0086 14.6747 10.7679 14.6747C9.52715 14.6747 8.52133 18.1342 8.52133 19.3975V20.3762H7.34766L8.52133 24.6779V29.5172H7.34766L8.52133 33.819V44.3598H13.0145V33.819L14.1879 29.5172H13.0145V24.6779Z" stroke="#FFD08A" stroke-width="1.5" stroke-linecap="round" stroke-linejoin="round"/>
<path d="M27.5 21.4174C27.5 27.4608 38.783 29.2526 38.783 38.2657C38.7128 40.511 37.8857 42.6632 36.4407 44.3607" stroke="#FFD08A" stroke-width="1.5" stroke-linecap="round" stroke-linejoin="round"/>
<path d="M27.5 44.3602H47.9875V49.5833H27.5" stroke="#FFD08A" stroke-width="1.5" stroke-linecap="round" stroke-linejoin="round"/>
<path d="M43.4346 49.5833C43.4346 46.6985 44.4538 44.3598 45.7109 44.3598C46.968 44.3598 47.9875 46.6985 47.9875 49.5833" stroke="#FFD08A" stroke-width="1.5" stroke-linecap="round" stroke-linejoin="round"/>
<path d="M38.8818 49.5833C38.8818 46.6985 39.9011 44.3598 41.1583 44.3598C42.4155 44.3598 43.4346 46.6985 43.4346 49.5833" stroke="#FFD08A" stroke-width="1.5" stroke-linecap="round" stroke-linejoin="round"/>
<path d="M34.3291 49.5833C34.3291 46.6985 35.3483 44.3598 36.6055 44.3598C37.8627 44.3598 38.8818 46.6985 38.8818 49.5833" stroke="#FFD08A" stroke-width="1.5" stroke-linecap="round" stroke-linejoin="round"/>
<path d="M29.7764 49.5833C29.7764 46.6985 30.7962 44.3598 32.0528 44.3598C33.3094 44.3598 34.3292 46.6985 34.3292 49.5833" stroke="#FFD08A" stroke-width="1.5" stroke-linecap="round" stroke-linejoin="round"/>
<path d="M41.985 24.6779L40.8115 20.3762H41.985V19.3975C41.985 18.1342 42.9909 14.6747 44.2316 14.6747C45.4723 14.6747 46.4781 18.1342 46.4781 19.3975V20.3762H47.6518L46.4781 24.6779V29.5172H47.6518L46.4781 33.819V44.3598H41.985V33.819L40.8115 29.5172H41.985V24.6779Z" stroke="#FFD08A" stroke-width="1.5" stroke-linecap="round" stroke-linejoin="round"/>
<path d="M10.7686 14.6747V12.4897" stroke="#FFD08A" stroke-width="1.5" stroke-linecap="round" stroke-linejoin="round"/>
<path d="M44.2314 14.6747V12.4897" stroke="#FFD08A" stroke-width="1.5" stroke-linecap="round" stroke-linejoin="round"/>
<path d="M30.0266 18.6748C28.5957 18.6792 27.205 18.1932 26.0784 17.295C24.9517 16.3968 24.1548 15.1387 23.8158 13.7233C23.4768 12.3079 23.6155 10.8175 24.2096 9.49207C24.8037 8.16666 25.8186 7.08339 27.0908 6.41666C25.7883 6.4895 24.528 6.91297 23.4387 7.64382C22.3494 8.37468 21.4701 9.38676 20.8905 10.5767C20.311 11.7667 20.0519 13.092 20.1398 14.4172C20.2277 15.7424 20.6594 17.0202 21.3908 18.12C22.1223 19.2198 23.1272 20.1024 24.3031 20.6775C25.479 21.2526 26.7838 21.4997 28.0841 21.3936C29.3845 21.2874 30.6339 20.8319 31.7048 20.0734C32.7758 19.3149 33.6298 18.2807 34.1799 17.0763C33.0301 18.1017 31.555 18.6694 30.0266 18.6748Z" stroke="#FFD08A" stroke-width="1.5" stroke-linecap="round" stroke-linejoin="round"/>
<path d="M30.5845 7.84583L31.2479 9.92249H33.3918L31.657 11.2058L32.3193 13.2825L30.5845 11.9992L28.8497 13.2825L29.5131 11.2058L27.7783 9.92249H29.9222L30.5845 7.84583Z" stroke="#FFD08A" stroke-width="1.5" stroke-linecap="round" stroke-linejoin="round"/>
</svg>
