<svg width="36" height="38" viewBox="0 0 36 38" fill="none" xmlns="http://www.w3.org/2000/svg">
<mask id="path-1-outside-1_330_295" maskUnits="userSpaceOnUse" x="0" y="0" width="36" height="38" fill="black">
<rect fill="white" width="36" height="38"/>
<path d="M16.8158 29.3224L12.7227 35.5312C12.4836 35.8917 12.1754 36.2017 11.816 36.4432C11.4566 36.6847 11.0529 36.8531 10.6282 36.9386C10.4244 36.9792 10.2172 36.9997 10.0094 37C9.40392 37.0014 8.81202 36.821 8.31067 36.4823C7.95654 36.246 7.65548 35.9389 7.42657 35.5805C7.19766 35.222 7.04589 34.82 6.9809 34.3999C6.91368 33.981 6.93251 33.5529 7.03623 33.1415C7.13996 32.7301 7.32642 32.3441 7.58429 32.0068L13.2147 24.7204C13.2765 24.6406 13.3535 24.5737 13.4412 24.5235C13.5289 24.4734 13.6257 24.441 13.726 24.4282C13.8263 24.4154 13.9281 24.4224 14.0257 24.4488C14.1233 24.4753 14.2146 24.5206 14.2946 24.5823C14.3746 24.644 14.4417 24.7208 14.4919 24.8084C14.5422 24.8959 14.5746 24.9925 14.5875 25.0925C14.6003 25.1926 14.5933 25.2942 14.5668 25.3916C14.5403 25.4889 14.4948 25.5801 14.433 25.66L8.80261 32.9464C8.67196 33.1183 8.57796 33.315 8.5264 33.5245C8.47484 33.734 8.46682 33.9518 8.50282 34.1645C8.53883 34.3772 8.6181 34.5803 8.73576 34.7612C8.85342 34.9422 9.00696 35.0972 9.18694 35.2167C9.35459 35.3285 9.54295 35.4058 9.74094 35.444C9.93893 35.4822 10.1426 35.4806 10.3399 35.4392C10.565 35.3941 10.779 35.3053 10.9696 35.1776C11.1602 35.0499 11.3236 34.886 11.4506 34.6952L15.5283 28.4787C15.642 28.3125 15.8166 28.1975 16.0145 28.1586C16.2123 28.1197 16.4176 28.1599 16.586 28.2706C16.7544 28.3813 16.8724 28.5536 16.9147 28.7503C16.957 28.9471 16.9201 29.1525 16.812 29.3224H16.8158ZM32.9883 1.83322C31.5548 0.813115 29.6062 0.736416 27.5078 1.6223C25.3438 2.609 23.4903 4.16553 22.1464 6.12456C20.2017 8.8474 19.2909 11.9652 19.7136 14.4656C19.8072 15.0444 19.7557 15.6373 19.5638 16.1914C19.5312 16.2868 19.5178 16.3877 19.5243 16.4883C19.5309 16.5889 19.5572 16.6873 19.6018 16.7777C19.6464 16.8682 19.7084 16.949 19.7843 17.0155C19.8602 17.082 19.9485 17.133 20.0442 17.1655C20.1398 17.198 20.2409 17.2113 20.3417 17.2048C20.4426 17.1983 20.5411 17.172 20.6318 17.1275C20.7224 17.083 20.8034 17.0211 20.8701 16.9454C20.9367 16.8696 20.9878 16.7815 21.0204 16.6861C21.2942 15.8916 21.3668 15.0418 21.2317 14.2125C20.882 12.134 21.7121 9.37663 23.3993 7.01428C24.5744 5.28819 26.1979 3.91351 28.0958 3.0374C29.6869 2.37012 31.1012 2.38546 32.0851 3.08726C33.069 3.78906 33.5494 5.11596 33.4341 6.83404C33.2244 8.9106 32.4525 10.8911 31.2012 12.5635C29.5293 14.9297 27.1696 16.6132 25.0865 16.9584C24.2731 17.0981 23.5056 17.4323 22.8498 17.9325C22.6706 18.069 22.4999 18.2163 22.3386 18.3735C22.2039 18.5177 22.1301 18.7081 22.1323 18.9052C22.1346 19.1022 22.2128 19.2909 22.3507 19.432C22.4887 19.5731 22.6757 19.6557 22.8731 19.6629C23.0705 19.67 23.2631 19.601 23.4109 19.4703C23.5322 19.3563 23.6605 19.25 23.7952 19.152C24.2513 18.8026 24.7853 18.5684 25.3517 18.4694C27.8614 18.0514 30.5171 16.1684 32.4656 13.4532C33.8822 11.5484 34.7525 9.29463 34.9829 6.93374C35.1213 4.66727 34.4141 2.85333 32.9883 1.83322ZM16.2124 15.781C16.1949 15.75 16.1857 15.715 16.1857 15.6794C16.1857 15.6438 16.1949 15.6088 16.2124 15.5778C16.5473 14.8225 16.6795 13.9933 16.5959 13.1717C16.5124 12.35 16.216 11.5642 15.7359 10.8914L8.87179 1.33467C8.81405 1.25024 8.73997 1.17817 8.65392 1.12271C8.56787 1.06725 8.47158 1.02951 8.3707 1.01171C8.26982 0.993917 8.1664 0.99642 8.06651 1.01908C7.96661 1.04173 7.87227 1.08409 7.78901 1.14364C7.70576 1.2032 7.63527 1.27877 7.5817 1.3659C7.52813 1.45302 7.49255 1.54996 7.47706 1.651C7.46157 1.75205 7.46647 1.85516 7.49149 1.95429C7.5165 2.05341 7.56112 2.14655 7.62273 2.22822L14.4791 11.785C14.8044 12.2401 15.0052 12.7719 15.0618 13.3281C15.1184 13.8842 15.0289 14.4454 14.8019 14.9565C14.6723 15.2409 14.622 15.555 14.6565 15.8655C14.691 16.176 14.809 16.4715 14.998 16.7206L27.6807 33.0883C27.8059 33.2449 27.8979 33.4252 27.951 33.6184C28.0041 33.8115 28.0173 34.0134 27.9897 34.2118C27.9622 34.4102 27.8945 34.601 27.7907 34.7724C27.6869 34.9439 27.5493 35.0925 27.3861 35.2091C27.223 35.3258 27.0378 35.4082 26.8417 35.4512C26.6457 35.4942 26.4429 35.4969 26.2458 35.4592C26.0486 35.4216 25.8612 35.3442 25.695 35.232C25.5287 35.1198 25.3871 34.975 25.2787 34.8064L13.772 17.5873C13.5972 17.3261 13.355 17.1169 13.0708 16.9819C12.7866 16.8468 12.4711 16.791 12.1578 16.8203C11.5998 16.8716 11.038 16.777 10.5278 16.5456C10.0176 16.3143 9.57668 15.9543 9.24843 15.5011L2.40357 5.96733C2.34583 5.88289 2.27175 5.81083 2.1857 5.75537C2.09965 5.69991 2.00336 5.66217 1.90248 5.64437C1.8016 5.62657 1.69818 5.62908 1.59829 5.65173C1.49839 5.67439 1.40405 5.71674 1.32079 5.7763C1.23754 5.83586 1.16705 5.91142 1.11348 5.99855C1.05991 6.08568 1.02433 6.18262 1.00884 6.28366C0.993348 6.38471 0.998254 6.48782 1.02327 6.58695C1.04828 6.68607 1.0929 6.77921 1.15451 6.86088L8.00705 16.4138C8.49207 17.085 9.14436 17.6182 9.89933 17.9606C10.6543 18.3029 11.4858 18.4426 12.3115 18.3658C12.3471 18.3603 12.3836 18.3641 12.4173 18.3768C12.451 18.3896 12.4807 18.4109 12.5037 18.4387L23.995 35.6539C24.218 35.9916 24.5074 36.2806 24.8457 36.5035C25.1839 36.7263 25.564 36.8782 25.9628 36.9501C26.1441 36.9833 26.3281 37 26.5124 37C27.0757 36.9985 27.6273 36.8396 28.1047 36.5414C28.5822 36.2432 28.9665 35.8176 29.2141 35.3127C29.4616 34.8079 29.5626 34.2439 29.5056 33.6847C29.4486 33.1256 29.2358 32.5935 28.8914 32.1487L16.2124 15.781ZM11.3007 13.7178C11.4416 13.7181 11.5798 13.6797 11.7003 13.6069C11.8208 13.5341 11.9189 13.4297 11.9839 13.305C12.049 13.1804 12.0784 13.0403 12.0691 12.9C12.0598 12.7598 12.012 12.6248 11.931 12.5098L5.6665 3.58197C5.60871 3.49938 5.53519 3.42895 5.45012 3.37471C5.36506 3.32047 5.27012 3.28348 5.17073 3.26586C5.07134 3.24823 4.96944 3.25031 4.87085 3.27198C4.77227 3.29364 4.67892 3.33448 4.59615 3.39214C4.51338 3.4498 4.4428 3.52317 4.38845 3.60805C4.33409 3.69293 4.29702 3.78767 4.27935 3.88685C4.26169 3.98602 4.26377 4.0877 4.28549 4.18607C4.3072 4.28445 4.34812 4.37759 4.40591 4.46018L10.6704 13.388C10.7411 13.4896 10.8353 13.5727 10.945 13.6301C11.0548 13.6875 11.1768 13.7176 11.3007 13.7178Z"/>
</mask>
<path d="M16.8158 29.3224L12.7227 35.5312C12.4836 35.8917 12.1754 36.2017 11.816 36.4432C11.4566 36.6847 11.0529 36.8531 10.6282 36.9386C10.4244 36.9792 10.2172 36.9997 10.0094 37C9.40392 37.0014 8.81202 36.821 8.31067 36.4823C7.95654 36.246 7.65548 35.9389 7.42657 35.5805C7.19766 35.222 7.04589 34.82 6.9809 34.3999C6.91368 33.981 6.93251 33.5529 7.03623 33.1415C7.13996 32.7301 7.32642 32.3441 7.58429 32.0068L13.2147 24.7204C13.2765 24.6406 13.3535 24.5737 13.4412 24.5235C13.5289 24.4734 13.6257 24.441 13.726 24.4282C13.8263 24.4154 13.9281 24.4224 14.0257 24.4488C14.1233 24.4753 14.2146 24.5206 14.2946 24.5823C14.3746 24.644 14.4417 24.7208 14.4919 24.8084C14.5422 24.8959 14.5746 24.9925 14.5875 25.0925C14.6003 25.1926 14.5933 25.2942 14.5668 25.3916C14.5403 25.4889 14.4948 25.5801 14.433 25.66L8.80261 32.9464C8.67196 33.1183 8.57796 33.315 8.5264 33.5245C8.47484 33.734 8.46682 33.9518 8.50282 34.1645C8.53883 34.3772 8.6181 34.5803 8.73576 34.7612C8.85342 34.9422 9.00696 35.0972 9.18694 35.2167C9.35459 35.3285 9.54295 35.4058 9.74094 35.444C9.93893 35.4822 10.1426 35.4806 10.3399 35.4392C10.565 35.3941 10.779 35.3053 10.9696 35.1776C11.1602 35.0499 11.3236 34.886 11.4506 34.6952L15.5283 28.4787C15.642 28.3125 15.8166 28.1975 16.0145 28.1586C16.2123 28.1197 16.4176 28.1599 16.586 28.2706C16.7544 28.3813 16.8724 28.5536 16.9147 28.7503C16.957 28.9471 16.9201 29.1525 16.812 29.3224H16.8158ZM32.9883 1.83322C31.5548 0.813115 29.6062 0.736416 27.5078 1.6223C25.3438 2.609 23.4903 4.16553 22.1464 6.12456C20.2017 8.8474 19.2909 11.9652 19.7136 14.4656C19.8072 15.0444 19.7557 15.6373 19.5638 16.1914C19.5312 16.2868 19.5178 16.3877 19.5243 16.4883C19.5309 16.5889 19.5572 16.6873 19.6018 16.7777C19.6464 16.8682 19.7084 16.949 19.7843 17.0155C19.8602 17.082 19.9485 17.133 20.0442 17.1655C20.1398 17.198 20.2409 17.2113 20.3417 17.2048C20.4426 17.1983 20.5411 17.172 20.6318 17.1275C20.7224 17.083 20.8034 17.0211 20.8701 16.9454C20.9367 16.8696 20.9878 16.7815 21.0204 16.6861C21.2942 15.8916 21.3668 15.0418 21.2317 14.2125C20.882 12.134 21.7121 9.37663 23.3993 7.01428C24.5744 5.28819 26.1979 3.91351 28.0958 3.0374C29.6869 2.37012 31.1012 2.38546 32.0851 3.08726C33.069 3.78906 33.5494 5.11596 33.4341 6.83404C33.2244 8.9106 32.4525 10.8911 31.2012 12.5635C29.5293 14.9297 27.1696 16.6132 25.0865 16.9584C24.2731 17.0981 23.5056 17.4323 22.8498 17.9325C22.6706 18.069 22.4999 18.2163 22.3386 18.3735C22.2039 18.5177 22.1301 18.7081 22.1323 18.9052C22.1346 19.1022 22.2128 19.2909 22.3507 19.432C22.4887 19.5731 22.6757 19.6557 22.8731 19.6629C23.0705 19.67 23.2631 19.601 23.4109 19.4703C23.5322 19.3563 23.6605 19.25 23.7952 19.152C24.2513 18.8026 24.7853 18.5684 25.3517 18.4694C27.8614 18.0514 30.5171 16.1684 32.4656 13.4532C33.8822 11.5484 34.7525 9.29463 34.9829 6.93374C35.1213 4.66727 34.4141 2.85333 32.9883 1.83322ZM16.2124 15.781C16.1949 15.75 16.1857 15.715 16.1857 15.6794C16.1857 15.6438 16.1949 15.6088 16.2124 15.5778C16.5473 14.8225 16.6795 13.9933 16.5959 13.1717C16.5124 12.35 16.216 11.5642 15.7359 10.8914L8.87179 1.33467C8.81405 1.25024 8.73997 1.17817 8.65392 1.12271C8.56787 1.06725 8.47158 1.02951 8.3707 1.01171C8.26982 0.993917 8.1664 0.99642 8.06651 1.01908C7.96661 1.04173 7.87227 1.08409 7.78901 1.14364C7.70576 1.2032 7.63527 1.27877 7.5817 1.3659C7.52813 1.45302 7.49255 1.54996 7.47706 1.651C7.46157 1.75205 7.46647 1.85516 7.49149 1.95429C7.5165 2.05341 7.56112 2.14655 7.62273 2.22822L14.4791 11.785C14.8044 12.2401 15.0052 12.7719 15.0618 13.3281C15.1184 13.8842 15.0289 14.4454 14.8019 14.9565C14.6723 15.2409 14.622 15.555 14.6565 15.8655C14.691 16.176 14.809 16.4715 14.998 16.7206L27.6807 33.0883C27.8059 33.2449 27.8979 33.4252 27.951 33.6184C28.0041 33.8115 28.0173 34.0134 27.9897 34.2118C27.9622 34.4102 27.8945 34.601 27.7907 34.7724C27.6869 34.9439 27.5493 35.0925 27.3861 35.2091C27.223 35.3258 27.0378 35.4082 26.8417 35.4512C26.6457 35.4942 26.4429 35.4969 26.2458 35.4592C26.0486 35.4216 25.8612 35.3442 25.695 35.232C25.5287 35.1198 25.3871 34.975 25.2787 34.8064L13.772 17.5873C13.5972 17.3261 13.355 17.1169 13.0708 16.9819C12.7866 16.8468 12.4711 16.791 12.1578 16.8203C11.5998 16.8716 11.038 16.777 10.5278 16.5456C10.0176 16.3143 9.57668 15.9543 9.24843 15.5011L2.40357 5.96733C2.34583 5.88289 2.27175 5.81083 2.1857 5.75537C2.09965 5.69991 2.00336 5.66217 1.90248 5.64437C1.8016 5.62657 1.69818 5.62908 1.59829 5.65173C1.49839 5.67439 1.40405 5.71674 1.32079 5.7763C1.23754 5.83586 1.16705 5.91142 1.11348 5.99855C1.05991 6.08568 1.02433 6.18262 1.00884 6.28366C0.993348 6.38471 0.998254 6.48782 1.02327 6.58695C1.04828 6.68607 1.0929 6.77921 1.15451 6.86088L8.00705 16.4138C8.49207 17.085 9.14436 17.6182 9.89933 17.9606C10.6543 18.3029 11.4858 18.4426 12.3115 18.3658C12.3471 18.3603 12.3836 18.3641 12.4173 18.3768C12.451 18.3896 12.4807 18.4109 12.5037 18.4387L23.995 35.6539C24.218 35.9916 24.5074 36.2806 24.8457 36.5035C25.1839 36.7263 25.564 36.8782 25.9628 36.9501C26.1441 36.9833 26.3281 37 26.5124 37C27.0757 36.9985 27.6273 36.8396 28.1047 36.5414C28.5822 36.2432 28.9665 35.8176 29.2141 35.3127C29.4616 34.8079 29.5626 34.2439 29.5056 33.6847C29.4486 33.1256 29.2358 32.5935 28.8914 32.1487L16.2124 15.781ZM11.3007 13.7178C11.4416 13.7181 11.5798 13.6797 11.7003 13.6069C11.8208 13.5341 11.9189 13.4297 11.9839 13.305C12.049 13.1804 12.0784 13.0403 12.0691 12.9C12.0598 12.7598 12.012 12.6248 11.931 12.5098L5.6665 3.58197C5.60871 3.49938 5.53519 3.42895 5.45012 3.37471C5.36506 3.32047 5.27012 3.28348 5.17073 3.26586C5.07134 3.24823 4.96944 3.25031 4.87085 3.27198C4.77227 3.29364 4.67892 3.33448 4.59615 3.39214C4.51338 3.4498 4.4428 3.52317 4.38845 3.60805C4.33409 3.69293 4.29702 3.78767 4.27935 3.88685C4.26169 3.98602 4.26377 4.0877 4.28549 4.18607C4.3072 4.28445 4.34812 4.37759 4.40591 4.46018L10.6704 13.388C10.7411 13.4896 10.8353 13.5727 10.945 13.6301C11.0548 13.6875 11.1768 13.7176 11.3007 13.7178Z" stroke="#FFD699" stroke-width="2" mask="url(#path-1-outside-1_330_295)"/>
</svg>
