<svg width="22" height="72" viewBox="0 0 22 72" fill="none" xmlns="http://www.w3.org/2000/svg">
<g clip-path="url(#clip0_277_264)">
<path d="M19.6195 16.37L10.5695 0L1.51953 16.34L10.5695 11.02L19.6195 16.37Z" fill="#FFD08A"/>
<path d="M10.57 50L21.14 52.9V69.9L10.57 71.11L0 69.93V52.93L10.57 50Z" fill="black"/>
<path d="M10.57 71.11L0 69.93V52.93L10.57 50V71.11Z" fill="#2F3336"/>
<path d="M8 58.4898V60.4898L5.52 60.8498V58.8498L8 58.4898ZM3.89 59.1798V61.0798L1.96 61.3598V59.5098L3.89 59.1798ZM10.62 58.0498V60.1098L9.62 60.2498V58.2498L10.62 58.0498ZM0 59.8298L0.32 59.7698V61.5898H0V59.8298Z" fill="#F4D786"/>
<path d="M21.1396 59.8298V61.6398H20.8196V59.7698L21.1396 59.8298ZM11.5596 58.2098V60.2098L10.5596 60.0698V58.0498L11.5596 58.2098ZM19.2296 59.5098V61.3598L17.2996 61.0798V59.1798L19.2296 59.5098ZM15.6696 58.8998V60.8998L13.1896 60.5398V58.5398L15.6696 58.8998Z" fill="#EAA941"/>
<path d="M8.57956 58.8499C8.57956 58.5999 8.65956 58.3999 8.76956 58.3999C8.87956 58.3999 8.95956 58.5999 8.95956 58.8499C9.10011 59.0365 9.17088 59.2665 9.15956 59.4999C9.16875 59.6229 9.15313 59.7464 9.11362 59.8633C9.07411 59.9801 9.01151 60.0878 8.92956 60.1799C8.92956 60.2899 8.83956 60.3699 8.76956 60.3699C8.69956 60.3699 8.63956 60.2899 8.59956 60.1799C8.44138 59.9895 8.35942 59.7472 8.36956 59.4999C8.36109 59.2653 8.43543 59.0352 8.57956 58.8499ZM4.46956 59.4799C4.46956 59.2299 4.54956 59.0299 4.65956 59.0299C4.76956 59.0299 4.84956 59.2299 4.84956 59.4799C4.99012 59.6665 5.06088 59.8965 5.04956 60.1299C5.05974 60.2514 5.04455 60.3737 5.00495 60.4891C4.96536 60.6044 4.90223 60.7103 4.81956 60.7999C4.81956 60.9199 4.72956 60.9999 4.65956 60.9999C4.58956 60.9999 4.52956 60.9199 4.48956 60.7999C4.40885 60.709 4.34697 60.6029 4.30749 60.4879C4.26801 60.3729 4.25172 60.2512 4.25956 60.1299C4.25109 59.8953 4.32543 59.6652 4.46956 59.4799ZM0.939559 60.0899C0.939559 59.8599 1.01956 59.6699 1.10956 59.6699C1.19956 59.6699 1.28956 59.8599 1.28956 60.0899C1.4266 60.2656 1.50103 60.4821 1.50103 60.7049C1.50103 60.9277 1.4266 61.1442 1.28956 61.3199C1.28956 61.4299 1.19956 61.4999 1.12956 61.4999C1.05956 61.4999 0.999559 61.4299 0.999559 61.3199C0.862515 61.1442 0.788086 60.9277 0.788086 60.7049C0.788086 60.4821 0.862515 60.2656 0.999559 60.0899H0.939559Z" fill="#F4D786"/>
<path d="M12.5603 58.8499C12.5603 58.5999 12.4803 58.3999 12.3703 58.3999C12.2603 58.3999 12.1803 58.5999 12.1803 58.8499C12.0398 59.0366 11.969 59.2666 11.9803 59.4999C11.9711 59.6229 11.9867 59.7465 12.0263 59.8633C12.0658 59.9801 12.1284 60.0878 12.2103 60.1799C12.2103 60.2899 12.3003 60.3699 12.3703 60.3699C12.4403 60.3699 12.5003 60.2899 12.5403 60.1799C12.6985 59.9896 12.7804 59.7473 12.7703 59.4999C12.7788 59.2653 12.7044 59.0352 12.5603 58.8499ZM16.6703 59.4799C16.6703 59.2299 16.5903 59.0299 16.4803 59.0299C16.3703 59.0299 16.2903 59.2299 16.2903 59.4799C16.1498 59.6666 16.079 59.8966 16.0903 60.1299C16.0801 60.2515 16.0953 60.3738 16.1349 60.4891C16.1745 60.6044 16.2376 60.7103 16.3203 60.7999C16.3203 60.9199 16.4103 60.9999 16.4803 60.9999C16.5503 60.9999 16.6103 60.9199 16.6503 60.7999C16.731 60.709 16.7929 60.603 16.8324 60.488C16.8719 60.373 16.8882 60.2513 16.8803 60.1299C16.8888 59.8953 16.8144 59.6652 16.6703 59.4799ZM20.2003 60.0899C20.2003 59.8599 20.1203 59.6699 20.0303 59.6699C19.9403 59.6699 19.8503 59.8599 19.8503 60.0899C19.7133 60.2657 19.6388 60.4821 19.6388 60.7049C19.6388 60.9278 19.7133 61.1442 19.8503 61.3199C19.8503 61.4299 19.9403 61.4999 20.0103 61.4999C20.0803 61.4999 20.1303 61.4299 20.1603 61.3199C20.2974 61.1442 20.3718 60.9278 20.3718 60.7049C20.3718 60.4821 20.2974 60.2657 20.1603 60.0899H20.2003ZM21.1403 56.5099V58.5699L10.5703 56.6499V54.4399L21.1403 56.5099Z" fill="#EAA941"/>
<path d="M10.57 54.4399V56.6499L0 58.5699V56.5099L10.57 54.4399Z" fill="#F4D786"/>
</g>
<defs>
<clipPath id="clip0_277_264">
<rect width="21.14" height="71.11" fill="white"/>
</clipPath>
</defs>
</svg>
