<svg width="40" height="42" viewBox="0 0 40 42" fill="none" xmlns="http://www.w3.org/2000/svg">
<path d="M39.399 19.224C39.2745 17.919 39.0465 16.6455 38.5815 15.4155C38.1135 14.1765 37.473 12.9915 36.786 11.859C36.1185 10.7625 35.4015 9.69 34.602 8.682C33.8085 7.686 32.9775 6.723 32.0715 5.8245C31.653 5.4165 31.218 5.025 30.774 4.6455C30.228 4.1835 29.6805 3.714 29.097 3.3C28.125 2.61 27.081 1.992 26.0085 1.4685C25.4295 1.1865 24.843 0.9165 24.2445 0.684C23.595 0.429 22.935 0.228 22.2615 0.0435001C22.1565 0.0135001 22.0485 0 21.942 0C21.4005 0 20.8935 0.363 20.7435 0.906C20.631 1.314 20.763 1.731 21.027 2.0355C21.357 2.8545 21.6975 3.6705 22.032 4.4925C22.3905 5.3745 22.56 6.303 22.7085 7.2405C22.8255 8.1975 22.8975 9.153 22.9275 10.1175C22.962 11.1975 22.9545 12.27 22.851 13.344C22.749 13.9665 22.6095 14.574 22.413 15.177C22.215 15.7905 21.978 16.3905 21.7305 16.9875C21.456 17.5965 21.1635 18.1875 20.8365 18.7755C20.5215 19.3395 20.1285 19.854 19.737 20.3685C19.191 21.066 18.6195 21.738 18.057 22.419C17.46 23.139 16.803 23.7765 16.086 24.375C15.3705 24.93 14.649 25.485 13.8945 25.9875C13.077 26.5305 12.1995 26.985 11.3085 27.396C10.197 27.828 9.03 28.056 7.89 28.3965C7.2945 28.5675 6.702 28.722 6.0945 28.8495C5.538 28.9665 4.98 29.0955 4.4175 29.184C3.876 29.2365 3.3315 29.271 2.787 29.2905C2.1465 29.3085 1.518 29.2875 0.8865 29.4C0.3645 29.4945 0 30.0645 0 30.5655C0 30.7095 0.033 30.8505 0.084 30.9855C0.078 31.0035 0.0645003 31.017 0.0600003 31.035C0.0030003 31.248 0.0030003 31.4655 0.0600003 31.6785C0.1185 31.8825 0.2235 32.061 0.3705 32.211C0.741 32.664 1.1385 33.0975 1.518 33.5415C1.8945 33.9855 2.28 34.416 2.7 34.8195C3.5925 35.685 4.5075 36.5535 5.5065 37.2945C5.9865 37.65 6.4935 37.968 7.0035 38.2815C7.4985 38.583 7.9755 38.919 8.4705 39.2265C8.9805 39.543 9.4935 39.864 10.017 40.158C10.5855 40.4775 11.214 40.7235 11.8275 40.9425C12.3675 41.1345 12.918 41.304 13.47 41.4675C14.1465 41.6715 14.8335 41.829 15.5355 41.9055C16.7415 42.039 17.9715 42.012 19.1775 41.937C20.469 41.8605 21.759 41.712 23.019 41.3985C23.6025 41.253 24.189 41.1045 24.765 40.9275C25.3995 40.7295 26.013 40.4685 26.6235 40.2075C27.693 39.7485 28.725 39.1695 29.73 38.586C30.8325 37.9425 31.7895 37.0455 32.7495 36.2115C33.1995 35.817 33.657 35.421 34.068 34.9845C34.542 34.4865 34.9815 33.951 35.3895 33.396C35.763 32.886 36.1215 32.364 36.45 31.8255C36.7545 31.326 37.0035 30.7995 37.245 30.267C37.776 29.0805 38.25 27.8625 38.652 26.631C39.0555 25.389 39.2655 24.0975 39.399 22.8015C39.5235 21.6105 39.5115 20.418 39.399 19.224ZM36.876 23.3715C36.7395 24.264 36.5595 25.1535 36.2865 26.0115C35.985 26.961 35.6295 27.894 35.253 28.818C34.989 29.43 34.713 30.0375 34.371 30.612C33.9825 31.2645 33.5595 31.893 33.1065 32.5035C32.5755 33.1545 32.001 33.7455 31.3725 34.302C30.732 34.8675 30.093 35.436 29.4285 35.9745C28.773 36.441 28.077 36.837 27.3645 37.2165C26.751 37.548 26.124 37.8675 25.482 38.145C24.681 38.472 23.865 38.724 23.025 38.9385C22.218 39.1485 21.417 39.3345 20.595 39.456C19.788 39.549 18.9795 39.603 18.168 39.6285C17.3235 39.657 16.479 39.66 15.6405 39.5775C14.9775 39.456 14.3415 39.285 13.6965 39.0825C13.107 38.8965 12.5265 38.703 11.955 38.4705C11.0475 38.052 10.2 37.5285 9.3585 36.987C8.4975 36.435 7.6095 35.913 6.7875 35.3025C5.9505 34.623 5.1615 33.879 4.3875 33.1335C3.9165 32.682 3.4815 32.1945 3.0585 31.6965C3.6135 31.662 4.1715 31.617 4.719 31.536C5.2995 31.4505 5.8725 31.299 6.447 31.1745C7.0125 31.053 7.5765 30.9285 8.136 30.7635C8.7555 30.582 9.375 30.402 10.0065 30.2535C10.572 30.12 11.133 29.9445 11.6745 29.7375C12.285 29.5065 12.8745 29.2095 13.4475 28.902C14.025 28.593 14.586 28.2705 15.1305 27.903C15.6345 27.5625 16.1205 27.192 16.6095 26.8275C17.1255 26.439 17.6445 26.046 18.1275 25.6095C18.6165 25.1715 19.0755 24.711 19.506 24.21C19.8825 23.7735 20.25 23.3295 20.6175 22.8885C21.0645 22.353 21.486 21.792 21.9015 21.2295C22.251 20.7615 22.578 20.2755 22.8675 19.7685C23.526 18.615 24.0435 17.397 24.51 16.1595C24.717 15.6105 24.9015 15.042 25.011 14.4675C25.1475 13.782 25.218 13.089 25.269 12.393C25.314 11.7705 25.308 11.145 25.302 10.5195C25.296 9.912 25.281 9.3015 25.242 8.694C25.1595 7.416 24.963 6.132 24.699 4.8795C24.5805 4.3185 24.3525 3.792 24.147 3.2595C25.479 3.8625 26.748 4.5825 27.9345 5.4375C28.83 6.1455 29.7045 6.8805 30.513 7.689C31.3335 8.5155 32.079 9.414 32.8005 10.3305C34.068 12.024 35.169 13.821 36.054 15.7425C36.228 16.1775 36.381 16.617 36.5235 17.064C36.687 17.5815 36.7755 18.126 36.8595 18.6645C36.951 19.44 37.0245 20.211 37.0245 20.9925C37.0275 21.7905 36.972 22.581 36.876 23.3715ZM34.98 21.7995C35.004 22.464 35.016 23.115 34.959 23.7765C34.908 24.417 34.7925 25.0785 34.6485 25.7055C34.509 26.301 34.32 26.88 34.098 27.4485C33.864 28.056 33.606 28.6785 33.2985 29.25C33.0285 29.751 32.727 30.231 32.415 30.708C32.0445 31.2795 31.656 31.8345 31.221 32.3595C30.432 33.3075 29.4435 34.0995 28.4505 34.8225C27.4785 35.5305 26.391 36.0165 25.2735 36.444C25.0065 36.5475 24.657 36.471 24.42 36.3345C24.174 36.189 23.988 35.949 23.913 35.6745C23.8335 35.3895 23.874 35.079 24.0225 34.821C24.18 34.557 24.405 34.4205 24.684 34.314C24.8355 34.2555 24.984 34.2015 25.134 34.143C25.908 33.801 26.6475 33.396 27.336 32.9025C28.1625 32.2365 28.941 31.5285 29.613 30.7065C30.36 29.667 30.9975 28.5315 31.5135 27.3585C31.734 26.826 31.9395 26.289 32.106 25.7355C32.2545 25.2375 32.343 24.732 32.4165 24.2205C32.4555 23.841 32.4945 23.463 32.4915 23.0835C32.4885 22.6545 32.4675 22.227 32.4495 21.801C32.4225 21.111 33.048 20.532 33.7155 20.532C34.422 20.5305 34.956 21.108 34.98 21.7995Z" fill="#FFD08A"/>
</svg>
