<svg width="28" height="43" viewBox="0 0 28 43" fill="none" xmlns="http://www.w3.org/2000/svg">
<path d="M25.4546 35.0237V33.5163C25.4546 31.1152 24.1064 28.9565 21.9368 27.8824L17.8181 25.8441V18.2307C17.8181 16.2237 16.8754 14.3858 15.2981 13.2094C15.3805 12.7659 15.6545 12.3928 16.0109 12.2755C18.6148 11.4178 20.3635 9.01579 20.3635 6.29804C20.3635 2.40494 16.8493 -0.544353 12.9401 0.0848599C9.91702 0.570963 7.63618 3.35858 7.63618 6.56772V10.8257C4.46402 14.148 2.54539 18.6494 2.54539 23.5024V30.6178C2.54539 32.5036 3.0767 34.3083 4.06839 35.8652C1.69023 36.7783 0 39.0678 0 41.7402V43H24.1816C26.2868 43 28 41.3043 28 39.2207C28.0008 38.3583 27.7643 37.5119 27.3158 36.7725C26.8674 36.0331 26.2239 35.4285 25.4546 35.0237ZM21.0449 30.2694C22.2013 30.9489 22.9089 32.1693 22.9089 33.5163V34.1134L20.0258 33.162L21.0449 30.2694ZM10.1819 6.56772C10.1819 4.58064 11.5434 2.86223 13.3491 2.57156C15.7914 2.17792 17.8181 4.03835 17.8181 6.29804C17.8191 7.09169 17.5673 7.86545 17.0986 8.5094C16.63 9.15334 15.9682 9.63471 15.2074 9.88511C14.2028 10.2158 13.4219 10.9861 13.0226 11.9647L10.1819 10.5587V6.56772ZM5.09079 23.5024C5.09079 19.5454 6.53852 15.8077 9.18496 12.8827L13.1618 14.8505C14.464 15.4944 15.2727 16.7905 15.2727 18.2308V27.4011L18.7524 29.1238L17.611 32.3658L12.7272 30.754V18.8962H10.1818V32.5699L14.0371 33.8421C12.3396 35.7074 9.65221 36.4584 7.1467 35.632L7.06609 35.6052C5.79077 34.2435 5.09079 32.4848 5.09079 30.6177V23.5024ZM24.1816 40.4805H2.76345C3.26828 39.0704 4.5963 38.0432 6.17258 37.9659C6.28559 37.9941 7.47938 38.4858 9.21975 38.4858C12.1221 38.4858 14.8942 37.0984 16.6048 34.6889L23.9101 37.0991C24.3601 37.2472 24.7515 37.5319 25.0288 37.9128C25.3061 38.2936 25.4551 38.7513 25.4547 39.2207C25.4547 39.9152 24.8837 40.4805 24.1817 40.4805H24.1816Z" fill="#FFD08A"/>
</svg>
