<svg width="64" height="49" viewBox="0 0 64 49" fill="none" xmlns="http://www.w3.org/2000/svg">
<path d="M19.2249 17.7757C19.1349 17.7757 19.0449 17.7557 18.9649 17.7057C18.7349 17.5657 18.6649 17.2557 18.8049 17.0257L26.2149 5.14567C26.7549 4.28567 26.5149 3.16567 25.6749 2.59567C25.2549 2.31567 24.7549 2.21567 24.2749 2.31567C23.7849 2.41567 23.3649 2.69567 23.0849 3.11567L15.1249 15.1457C14.9749 15.3757 14.6649 15.4357 14.4449 15.2857C14.2149 15.1357 14.1549 14.8257 14.3049 14.6057L22.2549 2.56567C22.6749 1.92567 23.3249 1.49567 24.0749 1.34567C24.8249 1.19567 25.5849 1.34567 26.2149 1.76567C27.5049 2.62567 27.8749 4.33567 27.0449 5.65567L19.6449 17.5457C19.5449 17.6957 19.3849 17.7757 19.2249 17.7757Z" fill="black"/>
<path d="M10.655 12.2056C10.555 12.2056 10.455 12.1756 10.375 12.1156C10.155 11.9556 10.105 11.6556 10.255 11.4256L17.495 1.20563C18.405 -0.0843725 20.195 -0.384373 21.475 0.525627C22.225 1.05563 22.665 1.92563 22.665 2.84563C22.665 3.42563 22.495 3.97563 22.175 4.43563C22.025 4.66563 21.715 4.71563 21.495 4.56563C21.275 4.41563 21.215 4.10563 21.365 3.88563C21.575 3.58563 21.675 3.22563 21.675 2.84563C21.675 2.23563 21.395 1.67563 20.895 1.32563C20.055 0.725627 18.885 0.935627 18.285 1.77563L11.045 11.9956C10.965 12.1356 10.805 12.2056 10.655 12.2056Z" fill="black"/>
<path d="M22.5457 21.2756C22.4557 21.2756 22.3657 21.2556 22.2857 21.1956C22.0557 21.0556 21.9857 20.7456 22.1257 20.5156L28.7757 9.92559C29.3157 9.06559 29.0757 7.94558 28.2357 7.37558C27.8157 7.09558 27.3157 6.99559 26.8357 7.09559C26.3457 7.19559 25.9257 7.47559 25.6457 7.89559C25.4957 8.12559 25.1857 8.18559 24.9657 8.03559C24.7357 7.88559 24.6757 7.57559 24.8257 7.35559C25.2457 6.71559 25.8957 6.28559 26.6457 6.13559C27.3857 5.98559 28.1557 6.13559 28.7857 6.55559C30.0757 7.41559 30.4457 9.12558 29.6157 10.4456L22.9557 21.0456C22.8657 21.1956 22.7057 21.2756 22.5457 21.2756Z" fill="black"/>
<path d="M3.82508 37.6356C3.74508 37.6356 3.66508 37.6156 3.59508 37.5756C3.35508 37.4456 3.26508 37.1456 3.39508 36.9056C3.61508 36.4856 3.84508 36.1056 4.04508 35.7656C4.52508 34.9556 4.62508 34.0556 4.35508 33.2156C4.14508 32.6156 3.98508 31.9456 3.85508 31.4356C2.86508 27.2356 3.22508 24.3056 4.21508 20.3656C4.66508 18.5856 5.02508 15.4056 5.33508 10.6556C5.38508 9.96558 5.67508 9.31558 6.17508 8.80558C6.69508 8.28558 7.32508 7.98558 8.00508 7.92558C8.80508 7.86558 9.58508 8.12558 10.1851 8.67558C10.7751 9.21558 11.1251 9.98558 11.1351 10.7856L11.2851 19.2456C15.3751 21.9856 14.7151 26.9356 14.6751 27.1456C14.6351 27.4156 14.3751 27.5956 14.1151 27.5656C13.8451 27.5256 13.6551 27.2756 13.6951 27.0056C13.7251 26.8156 14.3151 22.2956 10.5251 19.9356C10.3851 19.8456 10.2951 19.6956 10.2951 19.5256L10.1351 10.8056C10.1251 10.2656 9.90508 9.76558 9.50508 9.40558C9.10508 9.04558 8.59508 8.86558 8.06508 8.90558C7.63508 8.93558 7.21508 9.14558 6.86508 9.48558C6.53508 9.82558 6.33508 10.2556 6.30508 10.7156C5.99508 15.5356 5.62508 18.7656 5.16508 20.6056C4.18508 24.4856 3.86508 27.1856 4.80508 31.2056C4.92508 31.6956 5.08508 32.3356 5.28508 32.9056C5.64508 34.0156 5.51508 35.2156 4.93508 36.2056C4.70508 36.5956 4.48508 36.9656 4.27508 37.3756C4.17508 37.5456 4.00508 37.6356 3.82508 37.6356Z" fill="black"/>
<path d="M16.4153 42.2757C16.3653 42.2757 16.3153 42.2657 16.2653 42.2557C16.0053 42.1757 15.8653 41.8957 15.9453 41.6357L16.5653 39.7357C16.7053 39.3157 16.9953 38.9757 17.3853 38.7657C25.5653 34.3957 25.1553 28.2457 24.9853 25.6157L24.9653 25.3057C24.9553 25.2157 24.9753 25.1257 25.0253 25.0457L30.2853 15.2657C30.4553 14.9357 30.5453 14.5857 30.5453 14.2457C30.5453 13.8357 30.4153 13.2757 29.7753 12.8957C29.4453 12.6957 29.1053 12.6357 28.7853 12.7157C28.3253 12.8357 27.8753 13.2257 27.5253 13.8257C27.3853 14.0557 27.0853 14.1357 26.8553 13.9957C26.6253 13.8557 26.5453 13.5557 26.6853 13.3257C27.1753 12.5057 27.8353 11.9457 28.5553 11.7657C29.1353 11.6157 29.7353 11.7157 30.2853 12.0457C31.0853 12.5157 31.5353 13.3157 31.5353 14.2457C31.5353 14.7457 31.4053 15.2557 31.1553 15.7357L25.9653 25.3957L25.9753 25.5657C26.1653 28.3857 26.6053 34.9757 17.8553 39.6457C17.6853 39.7357 17.5553 39.8857 17.5053 40.0557L16.8853 41.9557C16.8153 42.1357 16.6153 42.2757 16.4153 42.2757Z" fill="black"/>
<path d="M15.1052 48.2857C15.0452 48.2857 14.9852 48.2757 14.9252 48.2457C14.6752 48.1457 14.5552 47.8557 14.6552 47.6057L16.7352 42.4157L3.09523 37.3957L0.945229 42.6557C0.845229 42.9057 0.555229 43.0257 0.305229 42.9257C0.0552288 42.8257 -0.0647712 42.5357 0.0352288 42.2857L2.36523 36.5957C2.46523 36.3457 2.74523 36.2257 2.99523 36.3157L17.5552 41.6857C17.6852 41.7357 17.7852 41.8257 17.8352 41.9457C17.8852 42.0657 17.8952 42.2057 17.8452 42.3257L15.5752 47.9857C15.4852 48.1757 15.3052 48.2857 15.1052 48.2857Z" fill="black"/>
<path d="M44.7651 17.7757C44.6051 17.7757 44.4451 17.6957 44.3451 17.5457L36.9351 5.66568C36.1051 4.34568 36.4751 2.64568 37.7651 1.77568C38.3951 1.35568 39.1551 1.20568 39.9151 1.35568C40.6651 1.50568 41.3051 1.93568 41.7251 2.57568L49.6751 14.6157C49.8251 14.8457 49.7651 15.1457 49.5351 15.2957C49.3051 15.4457 49.0051 15.3857 48.8551 15.1557L40.9051 3.11568C40.6251 2.70568 40.2051 2.41568 39.7151 2.31568C39.2251 2.21568 38.7251 2.31568 38.3151 2.59568C37.4651 3.16568 37.2251 4.27568 37.7751 5.14568L45.1851 17.0357C45.3251 17.2657 45.2551 17.5657 45.0251 17.7157C44.9451 17.7557 44.8551 17.7757 44.7651 17.7757Z" fill="black"/>
<path d="M53.3354 12.2057C53.1854 12.2057 53.0254 12.1357 52.9354 11.9957L45.6954 1.77566C45.0954 0.93566 43.9354 0.73566 43.0854 1.32566C42.5954 1.67566 42.3054 2.23566 42.3054 2.84566C42.3054 3.22566 42.4154 3.58566 42.6154 3.88566C42.7654 4.10566 42.7154 4.41566 42.4854 4.56566C42.2654 4.71566 41.9554 4.66566 41.8054 4.43566C41.4854 3.96566 41.3154 3.41566 41.3154 2.84566C41.3154 1.92566 41.7654 1.05566 42.5054 0.52566C43.7954 -0.38434 45.5854 -0.0743399 46.4854 1.20566L53.7254 11.4257C53.8854 11.6457 53.8254 11.9557 53.6054 12.1157C53.5354 12.1757 53.4354 12.2057 53.3354 12.2057Z" fill="black"/>
<path d="M41.4455 21.2756C41.2855 21.2756 41.1255 21.1956 41.0255 21.0456L34.3755 10.4556C33.5455 9.13559 33.9155 7.4256 35.2055 6.5656C35.8355 6.1456 36.6055 5.99559 37.3455 6.14559C38.0955 6.29559 38.7355 6.7256 39.1655 7.3656C39.3155 7.5956 39.2555 7.89559 39.0255 8.04559C38.7955 8.19559 38.4955 8.1356 38.3455 7.9056C38.0655 7.4856 37.6455 7.20559 37.1555 7.10559C36.6655 7.00559 36.1655 7.10559 35.7555 7.38559C34.9055 7.95559 34.6655 9.0656 35.2155 9.9356L41.8655 20.5256C42.0055 20.7556 41.9455 21.0556 41.7055 21.2056C41.6255 21.2556 41.5355 21.2756 41.4455 21.2756Z" fill="black"/>
<path d="M60.1654 37.6356C59.9854 37.6356 59.8154 37.5456 59.7354 37.3756C59.5054 36.9456 59.2754 36.5456 59.0754 36.2056C58.4954 35.2256 58.3654 34.0256 58.7254 32.9156C58.9254 32.3356 59.0854 31.6956 59.2054 31.2056C60.1454 27.1856 59.8254 24.4856 58.8454 20.6056C58.3854 18.7656 58.0054 15.5356 57.6954 10.7156C57.6654 10.2656 57.4654 9.82558 57.1354 9.48558C56.7954 9.14558 56.3754 8.93558 55.9254 8.90558C55.4054 8.86558 54.8854 9.04558 54.4954 9.40558C54.0954 9.76558 53.8754 10.2656 53.8654 10.8056L53.7054 19.5256C53.7054 19.6956 53.6154 19.8456 53.4754 19.9356C49.6754 22.3056 50.3054 26.9556 50.3054 27.0056C50.3454 27.2756 50.1554 27.5256 49.8854 27.5656C49.6154 27.6056 49.3654 27.4156 49.3254 27.1456C49.2954 26.9356 48.6354 21.9856 52.7154 19.2456L52.8654 10.7856C52.8754 9.98558 53.2254 9.21558 53.8154 8.67558C54.4154 8.12558 55.1854 7.86558 55.9854 7.92558C56.6654 7.98558 57.3054 8.29558 57.8154 8.79558C58.3154 9.30558 58.6154 9.96558 58.6654 10.6556C58.9754 15.4156 59.3354 18.5956 59.7854 20.3756C60.7854 24.3156 61.1354 27.2456 60.1454 31.4456C60.0254 31.9656 59.8554 32.6256 59.6454 33.2356C59.3754 34.0656 59.4754 34.9756 59.9154 35.7156C60.1254 36.0756 60.3654 36.4856 60.5954 36.9256C60.7254 37.1656 60.6354 37.4656 60.3954 37.5956C60.3154 37.6156 60.2454 37.6356 60.1654 37.6356Z" fill="black"/>
<path d="M47.5751 42.2757C47.3651 42.2757 47.1751 42.1457 47.1051 41.9357L46.4851 40.0357C46.4251 39.8657 46.3051 39.7157 46.1351 39.6257C37.3951 34.9557 37.8351 28.3557 38.0151 25.5457L38.0251 25.3757L32.8351 15.7157C32.5851 15.2357 32.4551 14.7257 32.4551 14.2257C32.4551 13.2957 32.9151 12.4957 33.7151 12.0257C34.2651 11.6957 34.8751 11.5957 35.4451 11.7457C36.1651 11.9257 36.8251 12.4857 37.3151 13.3057C37.4551 13.5357 37.3751 13.8457 37.1451 13.9757C36.9151 14.1157 36.6051 14.0357 36.4751 13.8057C36.1251 13.2057 35.6751 12.8157 35.2151 12.6957C34.8951 12.6157 34.5651 12.6757 34.2251 12.8757C33.5851 13.2557 33.4451 13.8157 33.4451 14.2257C33.4451 14.5657 33.5351 14.9257 33.7151 15.2557L38.9651 25.0357C39.0051 25.1157 39.0251 25.2057 39.0251 25.2957L39.0051 25.6057C38.8351 28.2357 38.4151 34.3857 46.6051 38.7557C47.0051 38.9657 47.2951 39.3157 47.4351 39.7257L48.0551 41.6257C48.1351 41.8857 47.9951 42.1657 47.7351 42.2457C47.6851 42.2657 47.6351 42.2757 47.5751 42.2757Z" fill="black"/>
<path d="M48.8855 48.2856C48.6855 48.2856 48.5055 48.1656 48.4255 47.9756L46.1555 42.3156C46.1055 42.1956 46.1055 42.0556 46.1655 41.9356C46.2155 41.8156 46.3155 41.7156 46.4455 41.6756L60.9955 36.3056C61.2455 36.2156 61.5255 36.3356 61.6255 36.5856L63.9555 42.2756C64.0555 42.5256 63.9355 42.8156 63.6855 42.9156C63.4355 43.0156 63.1455 42.8956 63.0455 42.6456L60.8955 37.3856L47.2555 42.4156L49.3355 47.6056C49.4355 47.8556 49.3155 48.1456 49.0655 48.2456C49.0055 48.2756 48.9455 48.2856 48.8855 48.2856Z" fill="black"/>
</svg>
