<svg width="46" height="46" viewBox="0 0 46 46" fill="none" xmlns="http://www.w3.org/2000/svg">
<mask id="path-1-outside-1_330_208" maskUnits="userSpaceOnUse" x="0" y="0" width="46" height="46" fill="black">
<rect fill="white" width="46" height="46"/>
<path fill-rule="evenodd" clip-rule="evenodd" d="M17.4439 19.2006C17.4647 19.1072 17.5235 18.775 17.5425 18.6626C16.9646 18.801 16.4577 18.4238 16.7847 18.1729C21.1499 15.3944 26.8094 12.8997 28.0341 12.3306C28.1154 12.123 28.2019 11.9102 28.2901 11.6783C26.2901 12.2268 18.1756 16.3634 16.4681 17.7474C15.4629 18.526 16.3643 19.4308 17.4439 19.199L17.4439 19.2006ZM30.356 7.39456L37.8285 8.12987L39.2386 17.1695L44 22.9707L38.607 30.3565L37.8716 37.8288L28.8316 39.2388L23.0302 44L15.644 38.6072L8.1715 37.8719L6.76141 28.8322L2 23.0311L7.39302 15.6435L8.12836 8.17124L17.1684 6.76121L22.9698 2L30.3577 7.39279L30.356 7.39456ZM23.0322 4.17315L17.8952 8.38937L9.71003 9.66617L9.05947 16.2752L4.17005 22.9688L8.38645 28.1056L9.6633 36.2904L16.2726 36.941L22.9665 41.8302L28.1035 37.614L36.2887 36.3372L36.9392 29.7281L41.8287 23.0345L37.6123 17.8978L36.3354 9.7129L29.7261 9.06236L23.0322 4.17315ZM30.5482 22.481C29.2782 20.462 31.7195 20.9499 32.0932 21.8443C31.7922 22.1073 31.0863 22.3564 30.5482 22.481ZM27.1276 33.9637C26.3941 34.5571 25.0826 34.3686 25.0047 33.7561C25.5999 33.5139 26.7816 33.6869 27.1276 33.9637ZM23.0894 28.0678C24.3023 28.156 28.6432 28.374 29.4201 28.4173C27.3543 29.2425 24.5878 29.7408 24.3021 32.2304C21.4958 32.611 23.7623 21.3881 20.0753 17.9813C19.6999 18.9034 19.5009 19.2841 19.0891 20.2529C20.3141 21.6214 21.9404 25.5642 20.6013 27.4846C18.1635 30.7978 11.16 35.5158 13.6217 26.9535C7.18919 36.5348 17.1634 36.3169 21.6913 28.2425C21.5702 36.6333 27.2832 36.5797 28.6 33.9502C28.2955 33.0107 26.8387 32.4173 24.9425 32.4761C25.8785 30.6266 33.4616 28.8049 35.5708 28.6889L36.1989 26.9692L26.2349 26.4935C26.4374 25.5661 31.9464 23.8309 32.9966 22.9139C35.9534 20.3499 26.6694 17.3325 29.3702 22.9364C27.2766 23.7115 22.9132 25.6302 23.0931 28.0661L23.0894 28.0678ZM15.7484 14.5836C16.2242 13.1822 14.0737 13.286 15.7484 14.5836ZM15.4958 15.1182C14.7086 16.4555 11.2413 19.0507 9.80207 19.805C12.4769 18.9676 15.4529 16.4036 16.0411 15.4157C16.5705 15.6579 16.8352 15.7185 17.2193 15.8361C16.83 15.4901 16.6657 15.3707 16.2764 15.0247C17.6536 11.9348 11.7087 12.6943 15.4958 15.1182ZM22.1707 11.3587C22.015 10.9781 21.2848 10.0282 20.6153 9.70989C18.9214 10.1147 21.0928 10.1165 22.188 12.4694C22.5634 11.4538 22.7832 10.6943 23.1032 9.88116C23.7884 9.9123 24.2054 9.8777 24.2054 9.08012C22.7053 8.7168 22.9683 9.18566 22.1689 11.3586L22.1707 11.3587ZM20.7104 32.1007C20.655 33.099 21.3125 34.3672 22.2104 35.2685C21.0945 35.3135 20.4838 34.5159 20.2675 33.772C19.5529 34.3222 18.873 34.3654 18.4491 34.0834C19.3851 33.6872 20.3298 32.9485 20.7104 32.1024V32.1007ZM22.3939 22.3551C22.6845 22.2271 30.2247 18.7582 30.486 18.632C30.5829 18.4468 30.794 18.023 30.9393 17.7635C30.3874 18.0057 23.3197 21.3067 23.0394 21.4382C22.9027 21.606 22.5392 22.1458 22.3939 22.3551ZM14.5772 15.5366C10.9057 13.7598 16.2693 10.8219 18.2278 11.291C15.3557 9.49685 8.94904 14.9934 14.5772 15.5366ZM23.223 16.2407C23.2853 18.4068 21.7731 18.4276 22.3769 16.54C21.0638 17.3947 22.1261 19.5106 23.4064 18.2719C24.5915 19.0712 25.7802 17.3878 23.915 16.0539C25.0085 17.8757 23.5361 18.4899 23.223 16.239L23.223 16.2407ZM32.1833 13.4293C32.6591 12.0279 30.5085 12.1317 32.1833 13.4293ZM31.9307 13.9639C31.1435 15.3012 27.6762 17.8964 26.237 18.6507C28.9118 17.8133 31.8878 15.2493 32.476 14.2614C33.0054 14.5036 33.2701 14.5659 33.6542 14.6818C33.2649 14.3358 33.1023 14.2164 32.7113 13.8704C34.0885 10.7805 28.1436 11.54 31.9307 13.9639Z"/>
</mask>
<path d="M17.4439 19.2006L16.4439 19.2058L18.4201 19.4175L17.4439 19.2006ZM17.5425 18.6626L18.5285 18.8295L18.781 17.3376L17.3096 17.6901L17.5425 18.6626ZM16.7847 18.1729L16.2478 17.3293L16.2108 17.3529L16.176 17.3795L16.7847 18.1729ZM28.0341 12.3306L28.4555 13.2374L28.819 13.0685L28.9652 12.6953L28.0341 12.3306ZM28.2901 11.6783L29.2247 12.034L29.9253 10.193L28.0257 10.7139L28.2901 11.6783ZM16.4681 17.7474L17.0804 18.538L17.0892 18.5312L17.0978 18.5243L16.4681 17.7474ZM17.4439 19.199L18.4439 19.1938L18.4375 17.9628L17.2339 18.2213L17.4439 19.199ZM30.356 7.39456L29.6487 6.68761L28.1542 8.18274L30.258 8.38976L30.356 7.39456ZM37.8285 8.12987L38.8166 7.97575L38.6972 7.21052L37.9264 7.13468L37.8285 8.12987ZM39.2386 17.1695L38.2505 17.3237L38.2926 17.5931L38.4656 17.804L39.2386 17.1695ZM44 22.9707L44.8076 23.5604L45.2643 22.9349L44.773 22.3362L44 22.9707ZM38.607 30.3565L37.7994 29.7668L37.6385 29.9871L37.6118 30.2586L38.607 30.3565ZM37.8716 37.8288L38.0258 38.8168L38.791 38.6975L38.8668 37.9267L37.8716 37.8288ZM28.8316 39.2388L28.6775 38.2507L28.408 38.2928L28.1972 38.4658L28.8316 39.2388ZM23.0302 44L22.4405 44.8076L23.066 45.2643L23.6646 44.773L23.0302 44ZM15.644 38.6072L16.2337 37.7996L16.0134 37.6387L15.742 37.612L15.644 38.6072ZM8.1715 37.8719L7.18345 38.026L7.30282 38.7912L8.07357 38.8671L8.1715 37.8719ZM6.76141 28.8322L7.74946 28.6781L7.70743 28.4086L7.53439 28.1978L6.76141 28.8322ZM2 23.0311L1.19232 22.4415L0.735722 23.0669L1.22702 23.6655L2 23.0311ZM7.39302 15.6435L8.2007 16.2331L8.3615 16.0128L8.38821 15.7414L7.39302 15.6435ZM8.12836 8.17124L7.97425 7.18319L7.20902 7.30254L7.13317 8.0733L8.12836 8.17124ZM17.1684 6.76121L17.3225 7.74927L17.592 7.70723L17.8028 7.53421L17.1684 6.76121ZM22.9698 2L23.5594 1.19229L22.9339 0.735762L22.3354 1.227L22.9698 2ZM30.3577 7.39279L31.065 8.09975L31.8907 7.27369L30.9473 6.58508L30.3577 7.39279ZM23.0322 4.17315L23.6221 3.36562L22.9966 2.90875L22.3978 3.40017L23.0322 4.17315ZM17.8952 8.38937L18.0494 9.37742L18.3188 9.33538L18.5297 9.16235L17.8952 8.38937ZM9.71003 9.66617L9.55591 8.67812L8.79071 8.79748L8.71484 9.56821L9.71003 9.66617ZM9.05947 16.2752L9.86698 16.865L10.0279 16.6447L10.0547 16.3731L9.05947 16.2752ZM4.17005 22.9688L3.36254 22.3789L2.90561 23.0045L3.3971 23.6032L4.17005 22.9688ZM8.38645 28.1056L9.3745 27.9514L9.33246 27.6819L9.15941 27.4711L8.38645 28.1056ZM9.6633 36.2904L8.67526 36.4446L8.79463 37.2098L9.56535 37.2856L9.6633 36.2904ZM16.2726 36.941L16.8624 36.1334L16.6421 35.9725L16.3705 35.9458L16.2726 36.941ZM22.9665 41.8302L22.3766 42.6377L23.0022 43.0946L23.6009 42.6032L22.9665 41.8302ZM28.1035 37.614L27.9494 36.6259L27.6799 36.6679L27.4691 36.841L28.1035 37.614ZM36.2887 36.3372L36.4428 37.3252L37.208 37.2058L37.2839 36.4351L36.2887 36.3372ZM36.9392 29.7281L36.1317 29.1383L35.9708 29.3586L35.9441 29.6302L36.9392 29.7281ZM41.8287 23.0345L42.6362 23.6244L43.0931 22.9989L42.6016 22.4001L41.8287 23.0345ZM37.6123 17.8978L36.6242 18.0519L36.6663 18.3214L36.8393 18.5322L37.6123 17.8978ZM36.3354 9.7129L37.3235 9.55876L37.2041 8.79357L36.4334 8.71771L36.3354 9.7129ZM29.7261 9.06236L29.1363 9.86989L29.3566 10.0308L29.6282 10.0576L29.7261 9.06236ZM30.5482 22.481L29.7017 23.0134L30.0806 23.6157L30.7738 23.4552L30.5482 22.481ZM32.0932 21.8443L32.7511 22.5975L33.2937 22.1235L33.0159 21.4588L32.0932 21.8443ZM27.1276 33.9637L27.7566 34.7412L28.7231 33.9594L27.7523 33.1828L27.1276 33.9637ZM25.0047 33.7561L24.6278 32.8299L23.9157 33.1196L24.0127 33.8822L25.0047 33.7561ZM23.0894 28.0678L22.6728 27.1587L23.0169 29.0652L23.0894 28.0678ZM29.4201 28.4173L29.7911 29.3459L29.4757 27.4188L29.4201 28.4173ZM24.3021 32.2304L24.4365 33.2213L25.207 33.1168L25.2956 32.3444L24.3021 32.2304ZM20.0753 17.9813L20.754 17.2468L19.6936 16.267L19.1492 17.6042L20.0753 17.9813ZM19.0891 20.2529L18.1688 19.8618L17.9203 20.4465L18.344 20.9199L19.0891 20.2529ZM20.6013 27.4846L21.4068 28.0773L21.4143 28.0671L21.4216 28.0566L20.6013 27.4846ZM13.6217 26.9535L14.5828 27.2298L12.7915 26.3961L13.6217 26.9535ZM21.6913 28.2425L22.6912 28.2569L20.8191 27.7533L21.6913 28.2425ZM28.6 33.9502L29.4942 34.3979L29.6777 34.0316L29.5513 33.6418L28.6 33.9502ZM24.9425 32.4761L24.0502 32.0246L23.2894 33.5279L24.9735 33.4756L24.9425 32.4761ZM35.5708 28.6889L35.6257 29.6874L36.284 29.6513L36.5102 29.032L35.5708 28.6889ZM36.1989 26.9692L37.1382 27.3123L37.6046 26.0352L36.2466 25.9704L36.1989 26.9692ZM26.2349 26.4935L25.2579 26.2802L25.0057 27.4359L26.1872 27.4923L26.2349 26.4935ZM32.9966 22.9139L32.3414 22.1584L32.3389 22.1607L32.9966 22.9139ZM29.3702 22.9364L29.7173 23.8742L30.7482 23.4925L30.271 22.5023L29.3702 22.9364ZM23.0931 28.0661L23.5097 28.9752L24.1415 28.6856L24.0903 27.9925L23.0931 28.0661ZM15.7484 14.5836L15.136 15.3741L16.2445 16.233L16.6953 14.9051L15.7484 14.5836ZM15.4958 15.1182L16.3576 15.6255L16.8463 14.7952L16.0349 14.2759L15.4958 15.1182ZM9.80207 19.805L9.33787 18.9193L10.1008 20.7593L9.80207 19.805ZM16.0411 15.4157L16.4571 14.5064L15.641 14.133L15.1818 14.9041L16.0411 15.4157ZM17.2193 15.8361L16.9265 16.7923L17.8837 15.0887L17.2193 15.8361ZM16.2764 15.0247L15.363 14.6176L15.0651 15.286L15.6121 15.7722L16.2764 15.0247ZM22.1707 11.3587L22.1452 12.3584L23.676 12.3973L23.0962 10.98L22.1707 11.3587ZM20.6153 9.70989L21.0447 8.80677L20.726 8.65525L20.3828 8.73728L20.6153 9.70989ZM22.188 12.4694L21.2814 12.8914L22.2939 15.0667L23.1259 12.8161L22.188 12.4694ZM23.1032 9.88116L23.1486 8.88219L22.4345 8.84973L22.1727 9.51491L23.1032 9.88116ZM24.2054 9.08012H25.2054V8.29341L24.4408 8.10822L24.2054 9.08012ZM22.1689 11.3586L21.2304 11.0134L20.7487 12.3228L22.1435 12.3583L22.1689 11.3586ZM20.7104 32.1007H21.7104L19.7119 32.0454L20.7104 32.1007ZM22.2104 35.2685L22.2507 36.2677L24.526 36.176L22.9189 34.5628L22.2104 35.2685ZM20.2675 33.772L21.2277 33.4928L20.8186 32.0856L19.6574 32.9796L20.2675 33.772ZM18.4491 34.0834L18.0593 33.1625L16.348 33.8868L17.8952 34.916L18.4491 34.0834ZM20.7104 32.1024L21.6223 32.5127L21.7104 32.317V32.1024H20.7104ZM22.3939 22.3551L21.5724 21.7848L19.5474 24.7015L22.7969 23.2702L22.3939 22.3551ZM30.486 18.632L30.9211 19.5324L31.2187 19.3885L31.372 19.0957L30.486 18.632ZM30.9393 17.7635L31.8118 18.2521L33.2697 15.6487L30.5375 16.8478L30.9393 17.7635ZM23.0394 21.4382L22.6147 20.5328L22.4081 20.6297L22.264 20.8067L23.0394 21.4382ZM14.5772 15.5366L14.4811 16.532L15.0128 14.6365L14.5772 15.5366ZM18.2278 11.291L17.9949 12.2635L18.7576 10.4428L18.2278 11.291ZM23.223 16.2407L22.2233 16.2665L22.2234 16.2695L23.223 16.2407ZM22.3769 16.54L23.3294 16.8447L24.1849 14.1702L21.8315 15.7019L22.3769 16.54ZM23.4064 18.2719L23.9655 17.4428L23.2935 16.9896L22.711 17.5532L23.4064 18.2719ZM23.915 16.0539L24.4967 15.2405L23.0576 16.5685L23.915 16.0539ZM23.223 16.239L24.2134 16.1012L22.2233 16.2648L23.223 16.239ZM32.1833 13.4293L31.5709 14.2198L32.6794 15.0787L33.1302 13.7508L32.1833 13.4293ZM31.9307 13.9639L32.7925 14.4712L33.2812 13.6409L32.4698 13.1216L31.9307 13.9639ZM26.237 18.6507L25.7728 17.765L26.5357 19.605L26.237 18.6507ZM32.476 14.2614L32.892 13.3521L32.0759 12.9787L31.6167 13.7498L32.476 14.2614ZM33.6542 14.6818L33.3653 15.6392L34.3186 13.9344L33.6542 14.6818ZM32.7113 13.8704L31.7979 13.4633L31.4993 14.1333L32.0486 14.6193L32.7113 13.8704ZM18.4201 19.4175C18.4475 19.2942 18.5107 18.9348 18.5285 18.8295L16.5565 18.4957C16.5478 18.5472 16.529 18.6545 16.5098 18.7607C16.5003 18.8135 16.4909 18.8643 16.4829 18.9066C16.4789 18.9277 16.4754 18.9456 16.4726 18.96C16.4711 18.9671 16.47 18.9728 16.4691 18.9772C16.4681 18.9817 16.4677 18.9837 16.4677 18.9837L18.4201 19.4175ZM17.3096 17.6901C17.2607 17.7018 17.2863 17.6681 17.3896 17.7389C17.4322 17.768 17.6244 17.9124 17.6722 18.2222C17.7318 18.6087 17.5173 18.8713 17.3934 18.9663L16.176 17.3795C15.8887 17.6 15.6148 18.0039 15.6956 18.5273C15.7646 18.974 16.0583 19.2511 16.259 19.3886C16.6784 19.6761 17.2465 19.7617 17.7754 19.6351L17.3096 17.6901ZM17.3217 19.0165C21.6172 16.2824 27.2019 13.82 28.4555 13.2374L27.6126 11.4237C26.4168 11.9794 20.6827 14.5065 16.2478 17.3293L17.3217 19.0165ZM28.9652 12.6953C29.0398 12.5048 29.1349 12.2701 29.2247 12.034L27.3555 11.3226C27.2689 11.5503 27.191 11.7412 27.1029 11.9659L28.9652 12.6953ZM28.0257 10.7139C27.438 10.8751 26.4875 11.2695 25.4249 11.7533C24.3392 12.2475 23.07 12.8663 21.8137 13.5094C20.5575 14.1524 19.3063 14.8239 18.2574 15.4246C17.2294 16.0132 16.3359 16.5673 15.8384 16.9706L17.0978 18.5243C17.454 18.2355 18.2151 17.7535 19.2513 17.1601C20.2666 16.5787 21.4892 15.9223 22.7251 15.2897C23.9608 14.6571 25.2019 14.0523 26.2536 13.5735C27.3284 13.0842 28.1422 12.7558 28.5546 12.6427L28.0257 10.7139ZM15.8558 16.9568C15.481 17.2471 15.1691 17.6381 15.0659 18.1301C14.9582 18.644 15.1102 19.1214 15.392 19.4752C15.9184 20.1359 16.8381 20.3519 17.6539 20.1767L17.2339 18.2213C17.121 18.2455 17.0309 18.2359 16.9748 18.2195C16.9121 18.2012 16.9213 18.185 16.9563 18.229C16.9758 18.2535 17.002 18.2961 17.018 18.3573C17.0345 18.4205 17.035 18.4849 17.0234 18.5405C17.0002 18.6511 16.9525 18.6371 17.0804 18.538L15.8558 16.9568ZM16.4439 19.2041L16.4439 19.2058L18.4439 19.1954L18.4439 19.1938L16.4439 19.2041ZM30.258 8.38976L37.7306 9.12507L37.9264 7.13468L30.4539 6.39937L30.258 8.38976ZM36.8404 8.284L38.2505 17.3237L40.2266 17.0154L38.8166 7.97575L36.8404 8.284ZM38.4656 17.804L43.227 23.6051L44.773 22.3362L40.0116 16.5351L38.4656 17.804ZM43.1924 22.381L37.7994 29.7668L39.4146 30.9462L44.8076 23.5604L43.1924 22.381ZM37.6118 30.2586L36.8765 37.7308L38.8668 37.9267L39.6022 30.4545L37.6118 30.2586ZM37.7175 36.8407L28.6775 38.2507L28.9857 40.2268L38.0258 38.8168L37.7175 36.8407ZM28.1972 38.4658L22.3958 43.227L23.6646 44.773L29.466 40.0118L28.1972 38.4658ZM23.6199 43.1924L16.2337 37.7996L15.0544 39.4149L22.4405 44.8076L23.6199 43.1924ZM15.742 37.612L8.26943 36.8767L8.07357 38.8671L15.5461 39.6024L15.742 37.612ZM9.15955 37.7178L7.74946 28.6781L5.77336 28.9864L7.18345 38.026L9.15955 37.7178ZM7.53439 28.1978L2.77298 22.3967L1.22702 23.6655L5.98844 29.4667L7.53439 28.1978ZM2.80768 23.6207L8.2007 16.2331L6.58534 15.0538L1.19232 22.4415L2.80768 23.6207ZM8.38821 15.7414L9.12355 8.26918L7.13317 8.0733L6.39783 15.5455L8.38821 15.7414ZM8.28247 9.15929L17.3225 7.74927L17.0143 5.77316L7.97425 7.18319L8.28247 9.15929ZM17.8028 7.53421L23.6042 2.773L22.3354 1.227L16.534 5.98821L17.8028 7.53421ZM22.3802 2.80771L29.7682 8.2005L30.9473 6.58508L23.5594 1.19229L22.3802 2.80771ZM29.6505 6.68584L29.6487 6.68761L31.0632 8.10152L31.065 8.09975L29.6505 6.68584ZM22.3978 3.40017L17.2608 7.61639L18.5297 9.16235L23.6667 4.94613L22.3978 3.40017ZM17.7411 7.40132L9.55591 8.67812L9.86416 10.6542L18.0494 9.37742L17.7411 7.40132ZM8.71484 9.56821L8.06428 16.1772L10.0547 16.3731L10.7052 9.76413L8.71484 9.56821ZM8.25196 15.6853L3.36254 22.3789L4.97756 23.5586L9.86698 16.865L8.25196 15.6853ZM3.3971 23.6032L7.61349 28.74L9.15941 27.4711L4.94301 22.3343L3.3971 23.6032ZM7.3984 28.2597L8.67526 36.4446L10.6514 36.1363L9.3745 27.9514L7.3984 28.2597ZM9.56535 37.2856L16.1746 37.9362L16.3705 35.9458L9.76126 35.2952L9.56535 37.2856ZM15.6828 37.7485L22.3766 42.6377L23.5563 41.0226L16.8624 36.1334L15.6828 37.7485ZM23.6009 42.6032L28.7379 38.3869L27.4691 36.841L22.332 41.0572L23.6009 42.6032ZM28.2576 38.602L36.4428 37.3252L36.1346 35.3491L27.9494 36.6259L28.2576 38.602ZM37.2839 36.4351L37.9344 29.8261L35.9441 29.6302L35.2935 36.2392L37.2839 36.4351ZM37.7468 30.318L42.6362 23.6244L41.0212 22.4447L36.1317 29.1383L37.7468 30.318ZM42.6016 22.4001L38.3852 17.2633L36.8393 18.5322L41.0557 23.669L42.6016 22.4001ZM38.6003 17.7436L37.3235 9.55876L35.3474 9.86704L36.6242 18.0519L38.6003 17.7436ZM36.4334 8.71771L29.8241 8.06717L29.6282 10.0576L36.2375 10.7081L36.4334 8.71771ZM30.3159 8.25483L23.6221 3.36562L22.4424 4.98068L29.1363 9.86989L30.3159 8.25483ZM31.3947 21.9486C31.266 21.7441 31.2118 21.6135 31.1916 21.5469C31.1701 21.4764 31.2014 21.5269 31.1714 21.6468C31.1554 21.7105 31.1245 21.7828 31.0731 21.8524C31.022 21.9216 30.9626 21.9722 30.9071 22.0065C30.8033 22.0708 30.7301 22.0699 30.7416 22.0694C30.7475 22.0692 30.7847 22.0699 30.8495 22.0871C30.9118 22.1036 30.9799 22.1301 31.0438 22.1642C31.1085 22.1989 31.1536 22.2332 31.1789 22.2572C31.2063 22.2833 31.1906 22.2779 31.1705 22.2299L33.0159 21.4588C32.7978 20.9367 32.3506 20.5952 31.9874 20.4008C31.6103 20.1991 31.1344 20.0534 30.667 20.0708C30.2017 20.0882 29.4422 20.3182 29.2312 21.1612C29.0687 21.8105 29.3609 22.4717 29.7017 23.0134L31.3947 21.9486ZM31.4354 21.0912C31.4389 21.0881 31.4107 21.1118 31.3303 21.1546C31.2554 21.1946 31.1585 21.2387 31.0434 21.284C30.8119 21.3751 30.5483 21.4545 30.3226 21.5068L30.7738 23.4552C31.0862 23.3829 31.4446 23.2755 31.7758 23.1451C32.0803 23.0253 32.4657 22.8467 32.7511 22.5975L31.4354 21.0912ZM26.4987 33.1862C26.4475 33.2277 26.3672 33.2698 26.2574 33.297C26.1474 33.3242 26.0323 33.3299 25.9349 33.3187C25.8299 33.3066 25.7945 33.2811 25.8113 33.292C25.8334 33.3064 25.9687 33.4096 25.9967 33.63L24.0127 33.8822C24.0796 34.4088 24.4081 34.7653 24.7209 34.9687C25.0285 35.1687 25.3814 35.2681 25.7057 35.3055C26.3411 35.3788 27.1379 35.2417 27.7566 34.7412L26.4987 33.1862ZM25.3816 34.6824C25.3973 34.676 25.4678 34.6545 25.6063 34.6452C25.7368 34.6363 25.8896 34.6408 26.0452 34.6587C26.2014 34.6767 26.3399 34.7059 26.4424 34.7371C26.5674 34.7751 26.5635 34.793 26.503 34.7446L27.7523 33.1828C27.5188 32.996 27.2374 32.8885 27.0248 32.8238C26.7899 32.7523 26.5309 32.7014 26.274 32.6718C25.8 32.6173 25.1564 32.6148 24.6278 32.8299L25.3816 34.6824ZM23.0169 29.0652C24.2405 29.1542 28.6061 29.3735 29.3645 29.4157L29.4757 27.4188C28.6804 27.3745 24.364 27.1579 23.162 27.0704L23.0169 29.0652ZM29.0491 27.4886C28.55 27.688 28.0407 27.8555 27.4472 28.0714C26.8817 28.2771 26.2753 28.5153 25.7138 28.8223C24.5694 29.4481 23.5024 30.4283 23.3087 32.1164L25.2956 32.3444C25.3876 31.5429 25.8466 31.0292 26.6734 30.5771C27.0975 30.3452 27.5878 30.1485 28.131 29.9509C28.6461 29.7635 29.2573 29.5591 29.7911 29.3459L29.0491 27.4886ZM24.1677 31.2395C24.1577 31.2408 24.193 31.2361 24.2421 31.2582C24.2853 31.2775 24.2873 31.2945 24.2578 31.2563C24.1794 31.1547 24.0621 30.9075 23.9513 30.4214C23.7324 29.4613 23.642 28.0861 23.516 26.4494C23.3939 24.8627 23.24 23.0824 22.8713 21.4749C22.5073 19.8879 21.9 18.3057 20.754 17.2468L19.3967 18.7158C20.0942 19.3603 20.5862 20.4585 20.9219 21.9221C21.2529 23.3652 21.399 25.0055 21.5219 26.6029C21.641 28.1501 21.7406 29.7223 22.0013 30.8659C22.1302 31.4316 22.325 32.0254 22.6743 32.478C23.0753 32.9978 23.6833 33.3235 24.4365 33.2213L24.1677 31.2395ZM19.1492 17.6042C18.7664 18.5442 18.6152 18.8114 18.1688 19.8618L20.0095 20.6441C20.3866 19.7567 20.6334 19.2626 21.0015 18.3584L19.1492 17.6042ZM18.344 20.9199C18.8307 21.4636 19.4821 22.6435 19.844 23.9322C20.2205 25.2728 20.178 26.3435 19.781 26.9127L21.4216 28.0566C22.3638 26.7054 22.1776 24.8445 21.7695 23.3914C21.3468 21.8865 20.5725 20.4108 19.8342 19.586L18.344 20.9199ZM19.7959 26.892C19.2458 27.6395 18.4144 28.4948 17.5086 29.2248C16.5892 29.9658 15.6807 30.5068 14.9873 30.7144C14.6411 30.8181 14.4397 30.8107 14.3484 30.7878C14.3056 30.7771 14.2753 30.7691 14.2286 30.674C14.1603 30.5349 14.0789 30.2242 14.1132 29.628C14.1468 29.0432 14.2873 28.2578 14.5828 27.2298L12.6607 26.6772C12.3408 27.7898 12.1616 28.73 12.1165 29.5131C12.0721 30.2848 12.153 30.9844 12.4332 31.5553C12.7351 32.1702 13.2394 32.5719 13.8626 32.7279C14.4374 32.8719 15.0333 32.7884 15.561 32.6303C16.6156 32.3146 17.7611 31.59 18.7636 30.7821C19.7797 29.9632 20.7379 28.9864 21.4068 28.0773L19.7959 26.892ZM12.7915 26.3961C11.1501 28.841 10.4049 30.8652 10.5357 32.4165C10.6041 33.2283 10.9174 33.936 11.4875 34.4461C12.0466 34.9464 12.7599 35.174 13.4871 35.2172C14.9149 35.3019 16.6039 34.6983 18.1802 33.6203C19.7801 32.5261 21.3572 30.8829 22.5636 28.7316L20.8191 27.7533C19.7615 29.6393 18.3939 31.0512 17.0512 31.9694C15.6848 32.9038 14.4332 33.2698 13.6056 33.2207C13.2051 33.1969 12.9619 33.0816 12.8212 32.9557C12.6914 32.8396 12.5614 32.6375 12.5286 32.2485C12.4569 31.3983 12.8771 29.8567 14.452 27.5109L12.7915 26.3961ZM20.6914 28.228C20.6282 32.6072 22.0926 35.1985 24.1977 36.1415C26.2372 37.0552 28.583 36.2175 29.4942 34.3979L27.7059 33.5024C27.3003 34.3124 26.1312 34.8162 25.0153 34.3163C23.9649 33.8458 22.6333 32.2685 22.6912 28.2569L20.6914 28.228ZM29.5513 33.6418C29.2705 32.7755 28.5198 32.2257 27.7429 31.9117C26.9444 31.5889 25.9613 31.444 24.9115 31.4766L24.9735 33.4756C25.8199 33.4494 26.5133 33.5718 26.9934 33.7659C27.4951 33.9687 27.6251 34.1854 27.6488 34.2585L29.5513 33.6418ZM25.8347 32.9277C25.8527 32.8921 25.937 32.7715 26.1835 32.5855C26.4178 32.4088 26.7398 32.2169 27.1445 32.0169C27.9532 31.6173 28.9987 31.2307 30.1111 30.8881C32.3552 30.197 34.6891 29.7389 35.6257 29.6874L35.516 27.6905C34.3434 27.7549 31.8311 28.2657 29.5224 28.9767C28.3583 29.3353 27.2007 29.7582 26.2584 30.2239C25.7875 30.4566 25.3471 30.7114 24.9793 30.9887C24.6237 31.2569 24.2662 31.5978 24.0502 32.0246L25.8347 32.9277ZM36.5102 29.032L37.1382 27.3123L35.2596 26.6262L34.6315 28.3459L36.5102 29.032ZM36.2466 25.9704L26.2826 25.4946L26.1872 27.4923L36.1512 27.9681L36.2466 25.9704ZM27.2119 26.7067C27.1573 26.9569 27.0095 27.0167 27.1661 26.8911C27.2717 26.8065 27.4493 26.6915 27.7095 26.549C28.2254 26.2664 28.9266 25.9504 29.6953 25.6174C30.4445 25.2929 31.2624 24.9505 31.9424 24.6386C32.5813 24.3455 33.263 24.0089 33.6543 23.6672L32.3389 22.1607C32.2051 22.2774 31.8044 22.5015 31.1085 22.8207C30.454 23.121 29.685 23.4423 28.9004 23.7822C28.1352 24.1136 27.3556 24.4625 26.7488 24.7948C26.4477 24.9597 26.1534 25.1396 25.9149 25.3309C25.7274 25.4813 25.3631 25.7982 25.2579 26.2802L27.2119 26.7067ZM33.6517 23.6694C34.1549 23.2331 34.5043 22.6908 34.5731 22.0568C34.6416 21.4255 34.4134 20.8734 34.1007 20.4519C33.503 19.6462 32.4597 19.1094 31.5054 18.888C30.6023 18.6785 29.3142 18.6549 28.4902 19.5174C27.5835 20.4663 27.7556 21.8896 28.4693 23.3706L30.271 22.5023C29.9687 21.8751 29.8775 21.454 29.8716 21.1982C29.8662 20.9653 29.9289 20.9067 29.9363 20.899C30.001 20.8312 30.3427 20.6714 31.0534 20.8363C31.7129 20.9893 32.2674 21.3374 32.4944 21.6435C32.5941 21.7778 32.585 21.8384 32.5848 21.841C32.584 21.8477 32.5805 21.8738 32.5516 21.9229C32.5211 21.9747 32.46 22.0556 32.3414 22.1584L33.6517 23.6694ZM29.023 21.9986C27.9519 22.3952 26.2529 23.1001 24.8269 24.0448C24.1148 24.5164 23.4235 25.0784 22.9148 25.7313C22.4028 26.3884 22.0267 27.2044 22.0958 28.1397L24.0903 27.9925C24.0695 27.7098 24.1714 27.3725 24.4924 26.9605C24.8167 26.5443 25.3134 26.1215 25.9313 25.7121C27.1654 24.8946 28.6949 24.2528 29.7173 23.8742L29.023 21.9986ZM22.6764 27.1571L22.6728 27.1587L23.5061 28.9769L23.5097 28.9752L22.6764 27.1571ZM16.3609 13.7931C16.1914 13.6618 16.101 13.5688 16.0589 13.5177C16.0102 13.4586 16.0527 13.4884 16.0806 13.6033C16.1127 13.7355 16.1244 14.0117 15.9186 14.2688C15.7274 14.5076 15.4799 14.5639 15.347 14.5703C15.0941 14.5825 14.9422 14.4581 14.8751 14.3547C14.7807 14.2094 14.8454 14.1329 14.8015 14.2621L16.6953 14.9051C16.8894 14.3336 16.8637 13.7446 16.5522 13.2651C16.268 12.8276 15.7723 12.5475 15.2506 12.5726C14.9833 12.5855 14.6201 12.6906 14.3572 13.0189C14.0797 13.3656 14.0636 13.7724 14.137 14.075C14.2062 14.3601 14.3592 14.6 14.5153 14.7895C14.678 14.9869 14.8867 15.181 15.136 15.3741L16.3609 13.7931ZM14.634 14.6109C14.5086 14.8241 14.2253 15.1604 13.7813 15.5898C13.353 16.004 12.8269 16.4557 12.2712 16.8974C11.147 17.7911 9.97676 18.5844 9.33787 18.9193L10.2663 20.6907C11.0667 20.2712 12.3497 19.3899 13.5157 18.463C14.1051 17.9945 14.6835 17.4995 15.1716 17.0275C15.6441 16.5705 16.0895 16.0809 16.3576 15.6255L14.634 14.6109ZM10.1008 20.7593C11.5907 20.2929 13.1077 19.3695 14.3064 18.4651C14.9123 18.0079 15.4552 17.5417 15.8914 17.1175C16.3112 16.7093 16.6843 16.2901 16.9003 15.9273L15.1818 14.9041C15.1037 15.0353 14.8843 15.3071 14.4971 15.6836C14.1263 16.0442 13.6477 16.4566 13.1017 16.8686C11.9967 17.7024 10.6883 18.4797 9.50332 18.8507L10.1008 20.7593ZM15.625 16.3251C16.229 16.6014 16.5698 16.6831 16.9265 16.7923L17.5122 14.88C17.1006 14.7539 16.912 14.7145 16.4571 14.5064L15.625 16.3251ZM17.8837 15.0887C17.6782 14.906 17.531 14.7823 17.3913 14.6649C17.2541 14.5496 17.1245 14.4406 16.9407 14.2773L15.6121 15.7722C15.8176 15.9548 15.9648 16.0785 16.1044 16.1959C16.2416 16.3112 16.3712 16.4202 16.555 16.5836L17.8837 15.0887ZM17.1898 15.4318C17.6424 14.4163 17.5946 13.4187 16.9331 12.7117C16.354 12.0928 15.5054 11.9294 14.8566 12.0117C14.5195 12.0545 14.1437 12.173 13.8268 12.4201C13.4895 12.6831 13.2186 13.1006 13.2138 13.6376C13.2093 14.1379 13.438 14.5758 13.7257 14.9261C14.0177 15.2817 14.4316 15.6243 14.9568 15.9604L16.0349 14.2759C15.6133 14.0061 15.3845 13.7947 15.2714 13.6569C15.1539 13.5139 15.215 13.5189 15.2137 13.6554C15.2122 13.8286 15.1155 13.9514 15.0566 13.9973C15.018 14.0274 15.0249 14.0064 15.1082 13.9958C15.1838 13.9862 15.2727 13.9925 15.3512 14.0159C15.4291 14.039 15.4637 14.0686 15.4727 14.0781C15.4762 14.0819 15.4772 14.0838 15.4781 14.0858C15.4788 14.0875 15.4842 14.0996 15.4867 14.1283C15.4918 14.1877 15.4857 14.3423 15.363 14.6176L17.1898 15.4318ZM23.0962 10.98C22.9564 10.6384 22.6507 10.2077 22.3365 9.85051C22.0185 9.48886 21.5614 9.05248 21.0447 8.80677L20.1859 10.613C20.3387 10.6857 20.5815 10.8834 20.8348 11.1714C20.9518 11.3044 21.0534 11.4367 21.1304 11.5494C21.1688 11.6055 21.1983 11.6528 21.2193 11.6894C21.2418 11.7287 21.2478 11.7438 21.2451 11.7373L23.0962 10.98ZM20.3828 8.73728C20.1649 8.78935 19.9413 8.84985 19.7556 8.92995C19.663 8.96985 19.5266 9.03673 19.3951 9.14691C19.2586 9.26136 19.07 9.47264 19.0094 9.79749C18.9481 10.1255 19.0503 10.3923 19.1391 10.5488C19.223 10.6966 19.3253 10.8024 19.3872 10.8619C19.5079 10.9777 19.6626 11.0904 19.7622 11.1639C20.2134 11.4966 20.8476 11.9595 21.2814 12.8914L23.0946 12.0474C22.4331 10.6264 21.4341 9.91188 20.9493 9.5543C20.8899 9.51048 20.8472 9.47873 20.813 9.45203C20.7773 9.42423 20.7682 9.41526 20.7723 9.41917C20.7754 9.4221 20.7876 9.43403 20.8046 9.45422C20.821 9.47382 20.8492 9.50996 20.8786 9.56191C20.9375 9.66574 21.0279 9.88333 20.9754 10.1644C20.9236 10.4424 20.7643 10.6089 20.68 10.6796C20.6368 10.7158 20.6007 10.738 20.5811 10.7492C20.5608 10.7608 20.5483 10.7661 20.5477 10.7664C20.5466 10.7669 20.5521 10.7645 20.5663 10.7595C20.5803 10.7546 20.5999 10.7482 20.6264 10.7404C20.6802 10.7244 20.7523 10.7053 20.8477 10.6825L20.3828 8.73728ZM23.1259 12.8161C23.3193 12.293 23.4728 11.8353 23.6134 11.4205C23.7553 11.002 23.8835 10.6293 24.0338 10.2474L22.1727 9.51491C22.003 9.9462 21.8612 10.3598 21.7193 10.7783C21.5762 11.2004 21.4321 11.6302 21.25 12.1226L23.1259 12.8161ZM23.0578 10.8801C23.2319 10.888 23.4426 10.895 23.6478 10.8778C23.8518 10.8608 24.1251 10.8151 24.3932 10.6676C25.054 10.3041 25.2054 9.62995 25.2054 9.08012H23.2054C23.2054 9.13765 23.2015 9.16958 23.1994 9.18202C23.1974 9.19419 23.1985 9.17959 23.2119 9.14854C23.2263 9.11549 23.2522 9.0697 23.2949 9.02237C23.3379 8.97463 23.3855 8.93927 23.4293 8.91523C23.4708 8.89237 23.5012 8.88389 23.5096 8.88176C23.5173 8.87984 23.5102 8.88235 23.4812 8.88477C23.4524 8.88718 23.4115 8.88877 23.3535 8.88841C23.2956 8.88805 23.2291 8.88584 23.1486 8.88219L23.0578 10.8801ZM24.4408 8.10822C24.0652 8.01725 23.6364 7.93186 23.2331 7.98627C22.713 8.05642 22.3355 8.33661 22.0842 8.72593C21.8894 9.02778 21.7641 9.41101 21.6619 9.72712C21.546 10.0856 21.4213 10.4944 21.2304 11.0134L23.1075 11.7039C23.3162 11.1364 23.4584 10.6717 23.5649 10.3425C23.6851 9.97088 23.7377 9.85217 23.7646 9.8106C23.7654 9.80935 23.7362 9.85457 23.6673 9.90047C23.5947 9.9489 23.5285 9.96452 23.5004 9.96831C23.4947 9.96909 23.5955 9.96133 23.97 10.052L24.4408 8.10822ZM22.1435 12.3583L22.1452 12.3584L22.1961 10.359L22.1944 10.359L22.1435 12.3583ZM19.7119 32.0454C19.6717 32.7708 19.8888 33.5109 20.2037 34.1583C20.5236 34.8162 20.9782 35.4485 21.502 35.9743L22.9189 34.5628C22.5448 34.1872 22.2216 33.7347 22.0022 33.2836C21.7777 32.822 21.6937 32.429 21.7089 32.1561L19.7119 32.0454ZM22.1702 34.2693C21.8824 34.2809 21.7026 34.1914 21.5699 34.0722C21.418 33.9357 21.2957 33.7265 21.2277 33.4928L19.3072 34.0511C19.5973 35.049 20.5055 36.338 22.2507 36.2677L22.1702 34.2693ZM19.6574 32.9796C19.1339 33.3827 18.936 33.2063 19.0029 33.2508L17.8952 34.916C18.81 35.5245 19.972 35.2616 20.8775 34.5643L19.6574 32.9796ZM18.8388 35.0043C19.9055 34.5528 21.1005 33.6726 21.6223 32.5127L19.7984 31.6921C19.559 32.2243 18.8646 32.8216 18.0593 33.1625L18.8388 35.0043ZM21.7104 32.1024V32.1007H19.7104V32.1024H21.7104ZM22.7969 23.2702C23.0967 23.1382 30.6477 19.6645 30.9211 19.5324L30.051 17.7316C30.051 17.7315 30.0484 17.7328 30.0416 17.736C30.0353 17.739 30.0271 17.7428 30.0167 17.7477C29.9959 17.7574 29.9682 17.7703 29.9338 17.7863C29.865 17.8183 29.7711 17.8618 29.6555 17.9153C29.4242 18.0222 29.1075 18.1684 28.7336 18.3408C27.9857 18.6856 27.0099 19.135 26.033 19.5844C24.0709 20.4871 22.1262 21.3803 21.9908 21.4399L22.7969 23.2702ZM31.372 19.0957C31.4879 18.8742 31.6745 18.4973 31.8118 18.2521L30.0668 17.2749C29.9135 17.5486 29.6779 18.0194 29.6001 18.1682L31.372 19.0957ZM30.5375 16.8478C29.9706 17.0966 22.8856 20.4058 22.6147 20.5328L23.464 22.3436C23.7539 22.2076 30.8042 18.9148 31.3412 18.6792L30.5375 16.8478ZM22.264 20.8067C22.0951 21.0141 21.687 21.6198 21.5724 21.7848L23.2153 22.9254C23.3914 22.6717 23.7103 22.1979 23.8147 22.0697L22.264 20.8067ZM15.0128 14.6365C14.6364 14.4543 14.4567 14.2948 14.3785 14.1976C14.3418 14.1521 14.33 14.1237 14.3264 14.1134C14.3231 14.1042 14.3225 14.0985 14.3227 14.0907C14.3248 14.0277 14.4119 13.7541 14.9145 13.3536C15.371 12.9898 16.0007 12.6627 16.6274 12.4565C17.2872 12.2394 17.7753 12.2109 17.9949 12.2635L18.4607 10.3185C17.701 10.1365 16.7843 10.2994 16.0023 10.5567C15.1872 10.8249 14.3383 11.2554 13.668 11.7895C13.0439 12.2869 12.356 13.0517 12.3238 14.0246C12.2873 15.1287 13.0795 15.9228 14.1415 16.4367L15.0128 14.6365ZM18.7576 10.4428C17.6975 9.78059 16.4247 9.84992 15.3703 10.1622C14.2977 10.4799 13.2626 11.0989 12.5192 11.819C12.1464 12.1801 11.8153 12.5971 11.5989 13.0513C11.3835 13.5035 11.251 14.0621 11.4013 14.6424C11.7219 15.8807 13.0233 16.3913 14.4811 16.532L14.6732 14.5412C13.317 14.4103 13.3087 14.0301 13.3374 14.1411C13.3417 14.1577 13.3177 14.0936 13.4044 13.9116C13.4902 13.7317 13.6549 13.5034 13.9107 13.2555C14.4244 12.7579 15.1777 12.3052 15.9383 12.0799C16.717 11.8492 17.3221 11.9043 17.698 12.1391L18.7576 10.4428ZM22.2234 16.2695C22.2359 16.7038 22.166 16.9537 22.1189 17.0594C22.0952 17.1124 22.0879 17.1058 22.1218 17.0725C22.152 17.0428 22.2627 16.9467 22.4624 16.9196C22.6912 16.8885 22.9154 16.9666 23.0692 17.1068C23.2016 17.2274 23.2317 17.3448 23.2348 17.3577C23.2396 17.3772 23.2073 17.2265 23.3294 16.8447L21.4245 16.2353C21.2447 16.7973 21.175 17.3518 21.2915 17.8306C21.3505 18.0731 21.4738 18.3587 21.7222 18.5851C21.9921 18.831 22.3552 18.9524 22.7314 18.9014C23.4003 18.8106 23.7744 18.2576 23.9455 17.8741C24.1455 17.4256 24.2412 16.8607 24.2226 16.212L22.2234 16.2695ZM21.8315 15.7019C20.6872 16.4467 20.5597 17.7842 21.0405 18.6686C21.2851 19.1185 21.7371 19.541 22.3774 19.6337C23.0316 19.7284 23.6326 19.4445 24.1017 18.9906L22.711 17.5532C22.6254 17.636 22.5765 17.6568 22.5724 17.6584C22.5709 17.659 22.5794 17.6555 22.5971 17.6533C22.615 17.651 22.638 17.6506 22.664 17.6544C22.7861 17.672 22.8146 17.7444 22.7977 17.7133C22.7812 17.6831 22.767 17.622 22.7809 17.5579C22.787 17.5299 22.7982 17.5027 22.8163 17.4763C22.8339 17.4506 22.865 17.4155 22.9224 17.3781L21.8315 15.7019ZM22.8472 19.1009C23.3496 19.4397 23.9405 19.5668 24.5053 19.4165C25.0628 19.2681 25.4994 18.8724 25.7216 18.3618C26.1911 17.2826 25.6518 16.0665 24.4967 15.2405L23.3333 16.8673C23.681 17.1159 23.8136 17.3287 23.8598 17.445C23.9046 17.5578 23.8762 17.5901 23.8876 17.5639C23.8976 17.5409 23.9314 17.4996 23.9909 17.4837C24.0579 17.4659 24.0557 17.5036 23.9655 17.4428L22.8472 19.1009ZM23.0576 16.5685C23.2745 16.9298 23.3106 17.1461 23.313 17.2068C23.3142 17.2376 23.3057 17.1887 23.3471 17.0965C23.3908 16.9993 23.5084 16.8248 23.7501 16.7356C23.997 16.6444 24.2106 16.7023 24.3213 16.7587C24.422 16.8099 24.4495 16.8609 24.4301 16.8338C24.3913 16.7795 24.2785 16.5687 24.2134 16.1012L22.2325 16.3768C22.324 17.0348 22.5127 17.5913 22.8039 17.9979C23.0442 18.3337 23.6453 18.9063 24.4429 18.6118C25.2111 18.3281 25.3273 17.5359 25.3115 17.129C25.2922 16.6325 25.1023 16.0888 24.7724 15.5393L23.0576 16.5685ZM22.2233 16.2648L22.2233 16.2665L24.2227 16.215L24.2226 16.2133L22.2233 16.2648ZM32.7958 12.6388C32.6263 12.5075 32.5359 12.4145 32.4938 12.3634C32.4451 12.3043 32.4876 12.3341 32.5155 12.449C32.5476 12.5812 32.5593 12.8574 32.3535 13.1145C32.1623 13.3533 31.9148 13.4096 31.7819 13.416C31.529 13.4282 31.3771 13.3038 31.31 13.2004C31.2156 13.0551 31.2803 12.9786 31.2364 13.1078L33.1302 13.7508C33.3243 13.1793 33.2986 12.5903 32.9871 12.1108C32.7029 11.6733 32.2072 11.3932 31.6855 11.4184C31.4182 11.4313 31.055 11.5363 30.7921 11.8646C30.5146 12.2113 30.4985 12.6181 30.5719 12.9207C30.6411 13.2058 30.7941 13.4457 30.9502 13.6352C31.1129 13.8326 31.3216 14.0267 31.5709 14.2198L32.7958 12.6388ZM31.0689 13.4566C30.9434 13.6698 30.6602 14.0061 30.2162 14.4355C29.7879 14.8497 29.2618 15.3014 28.7061 15.7431C27.5818 16.6368 26.4116 17.4301 25.7728 17.765L26.7012 19.5364C27.5015 19.1169 28.7846 18.2356 29.9506 17.3087C30.54 16.8402 31.1184 16.3452 31.6065 15.8732C32.079 15.4162 32.5244 14.9267 32.7925 14.4712L31.0689 13.4566ZM26.5357 19.605C28.0255 19.1386 29.5426 18.2152 30.7413 17.3108C31.3472 16.8536 31.89 16.3874 32.3263 15.9632C32.7461 15.555 33.1192 15.1358 33.3352 14.773L31.6167 13.7498C31.5386 13.881 31.3192 14.1528 30.932 14.5293C30.5612 14.8899 30.0826 15.3023 29.5366 15.7143C28.4316 16.5481 27.1232 17.3254 25.9382 17.6964L26.5357 19.605ZM32.0599 15.1708C32.664 15.4472 33.0005 15.5291 33.3653 15.6392L33.9431 13.7245C33.5397 13.6027 33.3467 13.5601 32.892 13.3521L32.0599 15.1708ZM34.3186 13.9344C34.1136 13.7522 33.9673 13.6289 33.8274 13.5111C33.6899 13.3953 33.5596 13.2858 33.374 13.1215L32.0486 14.6193C32.254 14.8011 32.4005 14.9242 32.5394 15.0411C32.6759 15.1561 32.8056 15.2654 32.9899 15.4293L34.3186 13.9344ZM33.6247 14.2775C34.0773 13.262 34.0295 12.2644 33.368 11.5574C32.7889 10.9385 31.9403 10.7751 31.2915 10.8574C30.9544 10.9002 30.5786 11.0187 30.2617 11.2658C29.9243 11.5288 29.6535 11.9463 29.6487 12.4833C29.6442 12.9836 29.8729 13.4215 30.1606 13.7718C30.4526 14.1274 30.8665 14.47 31.3916 14.8061L32.4698 13.1216C32.0481 12.8518 31.8194 12.6404 31.7063 12.5026C31.5888 12.3596 31.6498 12.3646 31.6486 12.5011C31.6471 12.6743 31.5504 12.7971 31.4915 12.843C31.4529 12.8731 31.4598 12.8521 31.5431 12.8415C31.6187 12.832 31.7076 12.8383 31.786 12.8616C31.864 12.8847 31.8986 12.9143 31.9075 12.9238C31.9111 12.9276 31.9121 12.9295 31.9129 12.9315C31.9137 12.9332 31.9191 12.9453 31.9215 12.974C31.9267 13.0334 31.9206 13.188 31.7979 13.4633L33.6247 14.2775Z" fill="#FFD699" mask="url(#path-1-outside-1_330_208)"/>
</svg>
