<svg width="34" height="43" viewBox="0 0 34 43" fill="none" xmlns="http://www.w3.org/2000/svg">
<path d="M7.27802 34.5167H24.1833C24.6958 34.5167 25.0681 34.1042 25.0681 33.6078C25.0681 33.1152 24.6759 32.723 24.1833 32.723H7.27802C6.82548 32.723 6.36914 33.0767 6.36914 33.6078C6.36914 34.1435 6.80485 34.5167 7.27802 34.5167ZM30.1757 26.7308C30.1757 27.2234 30.5679 27.6156 31.0605 27.6156C31.5569 27.6156 31.9694 27.2432 31.9694 26.7308V9.12809C31.9694 8.61565 31.5569 8.24326 31.0605 8.24326C30.5679 8.24326 30.1757 8.63549 30.1757 9.12809V26.7308ZM7.27802 3.15992H24.1833C24.6958 3.15992 25.0681 2.74743 25.0681 2.25104C25.0681 1.75843 24.6759 1.36621 24.1833 1.36621H7.27802C6.82548 1.36621 6.36914 1.72 6.36914 2.25104C6.36914 2.78673 6.80484 3.15992 7.27802 3.15992Z" stroke="#FFD699"/>
<path d="M4.31912 3.15984H4.31913L6.36858 3.15977V32.723H4.31912C3.57704 32.723 2.8805 32.9373 2.29371 33.3013V5.18525C2.29371 4.06641 3.20028 3.15984 4.31912 3.15984ZM0.5 36.5422C0.5 37.0386 0.872383 37.4511 1.38483 37.4511C1.62486 37.4511 1.85839 37.3651 2.03301 37.1904C2.20764 37.0158 2.29371 36.7823 2.29371 36.5422C2.29371 35.4234 3.20028 34.5168 4.31912 34.5168H7.27747C7.75063 34.5168 8.18634 34.1437 8.18634 33.608V2.25079C8.18634 1.71976 7.73001 1.36597 7.27747 1.36597H4.31912C2.21506 1.36597 0.5 3.08102 0.5 5.18509V36.5422Z" stroke="#FFD699"/>
<path d="M12.0144 40.9128H31.0599C31.5956 40.9128 31.969 40.477 31.969 40.0038V34.4495C31.969 33.9371 31.5566 33.5647 31.0602 33.5647C30.5676 33.5647 30.1753 33.9569 30.1753 34.4495V39.1191H12.0144C11.5618 39.1191 11.1055 39.4729 11.1055 40.004C11.1055 40.4966 11.5218 40.9128 12.0144 40.9128ZM4.31912 40.9128H7.87878C8.3714 40.9128 8.78765 40.4966 8.78765 40.004C8.78765 39.4729 8.33132 39.1191 7.87878 39.1191H4.31911C3.20642 39.1191 2.2937 38.1947 2.2937 37.0697V36.5405C2.2937 36.0281 1.88122 35.6557 1.38483 35.6557C0.892221 35.6557 0.5 36.0479 0.5 36.5405V37.0697C0.5 39.1954 2.21271 40.9128 4.31912 40.9128Z" stroke="#FFD699"/>
<path d="M6.17096 37.2344H13.7218C14.195 37.2344 14.6307 36.8612 14.6307 36.3255C14.6307 35.7945 14.1743 35.4407 13.7218 35.4407H6.17096C5.67835 35.4407 5.28613 35.8329 5.28613 36.3255C5.28613 36.8219 5.65852 37.2344 6.17096 37.2344Z" stroke="#FFD699"/>
<path d="M7.87862 42.5L7.87953 42.5C7.93126 42.4998 7.97488 42.4934 8.00514 42.4877C8.02614 42.4838 8.04579 42.4792 8.05868 42.476H8.12191L8.21474 42.437L9.96865 41.7008L11.6387 42.4074C11.9393 42.5503 12.2674 42.5125 12.5085 42.3437C12.761 42.183 12.9227 41.9097 12.9227 41.5912V36.3255C12.9227 35.7945 12.4663 35.4407 12.0138 35.4407H7.8786C7.42606 35.4407 6.96973 35.7945 6.96973 36.3255V41.5912C6.96973 41.9141 7.13591 42.1905 7.39446 42.3503C7.52965 42.4383 7.69271 42.4997 7.87691 42.5V42.5C7.87748 42.5 7.87805 42.5 7.87862 42.5ZM10.3355 39.9046L10.3356 39.9044L10.3252 39.9003C10.108 39.8134 9.86693 39.7935 9.62414 39.9072L8.78748 40.247V37.2344H11.1066V40.2332L10.3355 39.9046Z" stroke="#FFD699"/>
<path d="M20.6003 37.7156H25.3126C25.8251 37.7156 26.1974 37.3031 26.1974 36.8067C26.1974 36.3141 25.8052 35.9219 25.3126 35.9219H20.6003C20.1477 35.9219 19.6914 36.2757 19.6914 36.8067C19.6914 37.3424 20.1271 37.7156 20.6003 37.7156Z" stroke="#FFD699"/>
<path d="M17.0876 39.3252H27.284C27.8197 39.3252 28.1928 38.8895 28.1928 38.4163C28.1928 37.9039 27.7804 37.5315 27.284 37.5315H17.0876C16.635 37.5315 16.1787 37.8853 16.1787 38.4163C16.1787 38.9089 16.595 39.3252 17.0876 39.3252Z" stroke="#FFD699"/>
<path d="M23.928 3.64058L29.6704 9.38301V9.43691L29.8538 9.58695C30.1963 9.86713 30.6183 10.0367 31.0603 10.0367C31.2494 10.0367 31.4224 10.0132 31.5926 9.9648H31.649L31.7468 9.92076C32.397 9.62815 32.8353 8.99915 32.8353 8.26221V2.2507C32.8353 1.29498 32.028 0.5 31.0606 0.5H25.0491C24.3089 0.5 23.6531 0.922268 23.4038 1.59023C23.1425 2.25003 23.2801 2.9502 23.7348 3.46984L23.8842 3.64058H23.928ZM25.1255 2.29341H31.0414V8.20931L25.1255 2.29341Z" stroke="#FFD699"/>
<path d="M27.5977 3.88111H30.3156C30.5556 3.88111 30.7891 3.79504 30.9637 3.62042C31.1384 3.44579 31.2244 3.21226 31.2244 2.97223C31.2244 2.45979 30.812 2.0874 30.3156 2.0874H27.5977C27.1051 2.0874 26.7129 2.47962 26.7129 2.97223C26.7129 3.46862 27.0853 3.88111 27.5977 3.88111Z" stroke="#FFD699"/>
<path d="M29.6695 26.4754L23.927 32.2178H23.8832L23.7338 32.3885C23.2791 32.9081 23.1375 33.6386 23.4088 34.2828C23.6776 34.9212 24.2895 35.3584 25.0481 35.3584H31.0596C32.0271 35.3584 32.8341 34.5637 32.8341 33.6079V27.5964C32.8341 26.8647 32.3991 26.2248 31.7303 25.9553C31.0872 25.6865 30.3587 25.8284 29.8402 26.2821L29.6695 26.4315V26.4754ZM31.0408 33.5647H25.1249L31.0408 27.6488V33.5647Z" stroke="#FFD699"/>
<path d="M29.4297 32.8622C29.4297 33.3586 29.8021 33.7711 30.3145 33.7711C30.5545 33.7711 30.7881 33.685 30.9627 33.5104C31.1373 33.3357 31.2234 33.1022 31.2234 32.8622V30.1684C31.2234 29.9284 31.1373 29.6948 30.9627 29.5202C30.7881 29.3456 30.5545 29.2595 30.3145 29.2595C29.8021 29.2595 29.4297 29.672 29.4297 30.1684V32.8622Z" stroke="#FFD699"/>
<path d="M18.7134 29.8331L18.7574 29.8586L18.8058 29.8747C18.8095 29.8759 18.8136 29.8773 18.8181 29.8788C18.8814 29.9003 19.0236 29.9484 19.1803 29.9484C19.352 29.9484 19.5015 29.895 19.5964 29.8476L19.61 29.8408L19.6231 29.8331C21.4441 28.7798 22.9918 27.3318 24.1309 25.6217C26.3365 25.3657 28.073 23.5007 28.073 21.2244V14.6358C28.073 12.3595 26.3366 10.4945 24.1309 10.2385C22.9937 8.53076 21.4469 7.08353 19.6261 6.02878C19.336 5.85673 19.0092 5.87818 18.7403 6.01266L18.7267 6.01946L18.7135 6.02707C16.8925 7.08047 15.3448 8.52839 14.2058 10.2385C12.0001 10.4945 10.2637 12.3595 10.2637 14.6358V21.2244C10.2637 23.5007 12 25.3657 14.2057 25.6217C15.3436 27.3303 16.8913 28.7782 18.7134 29.8331ZM15.472 11.5786C16.3864 10.0963 17.6547 8.81829 19.1784 7.86396C20.6776 8.81718 21.9252 10.0945 22.8424 11.5788C23.0179 11.8682 23.3368 12.0106 23.6299 12.0106C25.0905 12.0106 26.2807 13.1867 26.2807 14.6373V21.226C26.2807 22.6766 25.0905 23.8527 23.6299 23.8527C23.3374 23.8527 23.0191 23.9945 22.8434 24.2828C21.9261 25.7451 20.6776 27.0228 19.1757 27.9974C17.6547 27.0433 16.3874 25.766 15.4719 24.2845C15.3128 24.0219 15.0343 23.8527 14.7084 23.8527C13.2528 23.8527 12.0817 22.6816 12.0817 21.226V14.6373C12.0817 13.1817 13.2528 12.0106 14.7084 12.0106C15.0344 12.0106 15.313 11.8413 15.472 11.5786Z" stroke="#FFD699"/>
<path d="M14.5215 17.9294C14.5215 20.4924 16.6235 22.5646 19.1809 22.5646C21.7182 22.5646 23.7923 20.4887 23.7923 17.9294C23.7923 15.372 21.7199 13.2942 19.1809 13.2942C16.6253 13.2942 14.5215 15.3644 14.5215 17.9294ZM16.3377 17.9293C16.3377 16.3799 17.6027 15.1102 19.1809 15.1102C20.7327 15.1102 22 16.3776 22 17.9293C22 19.5075 20.7303 20.7725 19.1809 20.7725C17.6051 20.7725 16.3377 19.5052 16.3377 17.9293Z" stroke="#FFD699"/>
<path d="M12.8848 17.9288C12.8848 21.405 15.7071 24.1998 19.1795 24.1998C22.6302 24.1998 25.4263 21.4026 25.4263 17.9288C25.4263 14.4596 22.6347 11.634 19.1795 11.634C15.7063 11.634 12.8848 14.4537 12.8848 17.9288ZM14.7024 17.9272C14.7024 15.4629 16.7139 13.4501 19.1795 13.4501C21.618 13.4501 23.6324 15.4599 23.6324 17.9272C23.6324 20.393 21.6195 22.4043 19.1795 22.4043C16.7153 22.4043 14.7024 20.3928 14.7024 17.9272Z" stroke="#FFD699"/>
<path d="M17.0489 10.4072L17.0489 10.4072L17.046 10.4101C16.879 10.577 16.7793 10.8249 16.7793 11.0522C16.7793 11.319 16.8904 11.5388 17.046 11.6944L18.5372 13.1856C18.6928 13.3412 18.9126 13.4523 19.1794 13.4523C19.4387 13.4523 19.6431 13.3258 19.768 13.2321L19.7981 13.2095L19.8244 13.1827L21.2708 11.7126C21.5168 11.5069 21.5554 11.2351 21.5554 11.0522C21.5554 10.9085 21.5246 10.6039 21.2677 10.3894L19.7958 8.94119C19.4426 8.58985 18.9045 8.62611 18.5654 8.91683L18.5523 8.92801L18.5401 8.94005L17.0489 10.4072ZM19.3862 11.0615L19.1748 11.2785L18.9579 11.0617L19.1749 10.8558L19.3862 11.0615Z" stroke="#FFD699"/>
<path d="M17.046 24.1643L17.046 24.1643C16.8904 24.3199 16.7793 24.5397 16.7793 24.8065C16.7793 25.0653 16.9037 25.2823 17.046 25.4246L18.5174 26.896C18.7233 27.1437 18.996 27.1825 19.1794 27.1825C19.3827 27.1825 19.6149 27.1224 19.8215 26.9158L19.8215 26.9158L19.8244 26.9129L21.2797 25.4337C21.6553 25.0924 21.6553 24.4966 21.2797 24.1552L19.8244 22.676L19.8244 22.676L19.8216 22.6731C19.4792 22.3307 18.8859 22.2849 18.5262 22.6841L17.046 24.1643ZM19.3908 24.8019L19.1748 25.0179L18.9531 24.8019L19.1748 24.5802L19.3908 24.8019Z" stroke="#FFD699"/>
</svg>
