<svg width="66" height="90" viewBox="0 0 66 90" fill="none" xmlns="http://www.w3.org/2000/svg">
<path fill-rule="evenodd" clip-rule="evenodd" d="M9.13671 86.7231H7.01951C5.14841 86.7231 3.38671 85.9926 2.05861 84.6684C0.734407 83.3442 0.00390625 81.5786 0.00390625 79.7036C0.00390625 75.8364 3.15231 72.688 7.01951 72.688H64.6795C65.2459 72.688 65.7068 73.1489 65.7068 73.7153C65.7068 74.2817 65.2459 74.7426 64.6795 74.7426H7.01951C4.28511 74.7426 2.05861 76.9692 2.05861 79.7035C2.05861 81.0277 2.57423 82.2777 3.51171 83.2113C4.44921 84.1488 5.69531 84.6644 7.01951 84.6644H9.13671C9.70312 84.6644 10.164 85.1253 10.164 85.6917C10.164 86.258 9.70307 86.719 9.13671 86.719V86.7231Z" fill="black"/>
<path fill-rule="evenodd" clip-rule="evenodd" d="M62.9024 86.7232H16.8284C16.262 86.7232 15.8011 86.2623 15.8011 85.6959C15.8011 85.1296 16.262 84.6686 16.8284 84.6686H62.9024C63.3165 84.6686 63.6524 84.3327 63.6524 83.9186V4.54764C63.6524 3.17264 62.5352 2.05544 61.1602 2.05544H9.98821C9.73821 2.05544 9.4843 2.06716 9.2304 2.0906C5.1406 2.47732 2.0546 5.8718 2.0546 9.9851V79.7041C2.0546 80.2705 1.59366 80.7314 1.0273 80.7314C0.46094 80.7314 0 80.2705 0 79.7041V9.9851C0 4.8054 3.8867 0.5281 9.0391 0.0437002C9.35941 0.0124502 9.67972 0.000732422 9.98832 0.000732422H61.1603C63.6681 0.000732422 65.7072 2.03983 65.7072 4.54763V83.9186C65.7072 85.4655 64.4493 86.7232 62.9024 86.7232Z" fill="black"/>
<path fill-rule="evenodd" clip-rule="evenodd" d="M9.13667 74.7463C8.57026 74.7463 8.10938 74.2854 8.10938 73.719V1.071C8.10938 0.504591 8.57031 0.0437012 9.13667 0.0437012C9.70303 0.0437012 10.164 0.504641 10.164 1.071V73.719C10.164 74.2854 9.70303 74.7463 9.13667 74.7463Z" fill="black"/>
<path fill-rule="evenodd" clip-rule="evenodd" d="M12.9844 85.3523C13.168 85.3523 13.3555 85.4031 13.5195 85.5046L15.8047 86.8991V80.735H10.168V86.8991L12.4492 85.5046C12.6133 85.4031 12.8008 85.3523 12.9844 85.3523ZM16.8321 89.7585C16.6485 89.7585 16.461 89.7077 16.2969 89.61L12.9844 87.5866L9.67582 89.61C9.35941 89.8014 8.96098 89.8132 8.63672 89.6296C8.31246 89.446 8.11328 89.1061 8.11328 88.7311V79.7077C8.11328 79.1413 8.57422 78.6804 9.14058 78.6804H64.6836C65.25 78.6804 65.7109 79.1414 65.7109 79.7077C65.7109 80.2741 65.2499 80.735 64.6836 80.735H17.8596V88.7311C17.8596 89.1022 17.6565 89.446 17.3361 89.6296C17.1799 89.7155 17.004 89.7585 16.8321 89.7585Z" fill="black"/>
<path fill-rule="evenodd" clip-rule="evenodd" d="M29.4297 50.129C30.082 50.129 30.7149 50.3556 31.2109 50.7735L36.4375 55.0508C36.7109 55.2735 37.1094 55.2735 37.3828 55.0508L42.6328 50.7539C43.1328 50.3438 43.7617 50.1211 44.4062 50.1211H48.9414C49.1406 50.1211 49.3281 50.043 49.4687 49.9024C49.6094 49.7617 49.6875 49.5742 49.6875 49.3711L49.6679 44.8711C49.6679 44.2149 49.8945 43.582 50.3047 43.082L54.5899 37.8476C54.8164 37.5742 54.8125 37.1757 54.5899 36.9023L50.2969 31.6523C49.8867 31.1562 49.6602 30.5273 49.6602 29.8789V25.3437C49.6602 25.1445 49.582 24.957 49.4414 24.8164C49.3008 24.6757 49.1133 24.5976 48.9141 24.5976H48.9102L44.4102 24.6171H44.3984C43.75 24.6171 43.1211 24.3945 42.625 23.9843L37.3867 19.6991C37.1133 19.4726 36.7149 19.4726 36.4414 19.6991L31.1914 23.996C30.6953 24.4062 30.0664 24.6288 29.418 24.6288H24.918C24.5079 24.6288 24.1758 24.9648 24.1758 25.3749V29.8749C24.1758 30.5156 23.9493 31.1483 23.5391 31.6483L19.2461 36.8983C19.0196 37.1718 19.0196 37.5702 19.2461 37.8436L23.543 43.0936C23.9532 43.5858 24.1797 44.2186 24.1797 44.867V49.4022C24.1797 49.6015 24.2579 49.789 24.3985 49.9296C24.5391 50.0702 24.7266 50.1483 24.9219 50.1483H24.9258L29.4258 50.1288H29.4376L29.4297 50.129ZM36.9102 57.2696C36.2813 57.2696 35.6485 57.0586 35.1368 56.6368L29.8985 52.3516C29.7618 52.2383 29.6016 52.1797 29.4297 52.1797H29.4258L24.9258 52.1992C24.1719 52.1992 23.4688 51.9141 22.9375 51.3828C22.4062 50.8516 22.1133 50.1484 22.1133 49.3984V44.8632C22.1133 44.6913 22.0547 44.5273 21.9453 44.3945L17.6484 39.1406C16.8086 38.1133 16.8086 36.6211 17.6484 35.5937L21.9453 30.3437C22.0547 30.2109 22.1133 30.0429 22.1133 29.871V25.371C22.1133 23.8241 23.3672 22.5702 24.9141 22.5702H29.4141C29.586 22.5702 29.75 22.5116 29.8829 22.4062L35.1368 18.1093C36.1641 17.2655 37.6563 17.2655 38.6837 18.1093L43.922 22.3945C44.0548 22.4999 44.2227 22.5624 44.3946 22.5624H44.3985L48.8985 22.5429C49.6524 22.5351 50.3555 22.832 50.8868 23.3593C51.4181 23.8906 51.711 24.5937 51.711 25.3437V29.8789C51.711 30.0508 51.7696 30.2148 51.879 30.3477L56.1759 35.6016C57.0158 36.6289 57.0158 38.121 56.1759 39.1484L51.8907 44.3867C51.7813 44.5196 51.7227 44.6914 51.7227 44.8672L51.7462 49.3633C51.7462 50.1133 51.4571 50.8203 50.9298 51.3516C50.3985 51.8829 49.6954 52.1758 48.9454 52.1758H44.4102C44.2344 52.1758 44.0742 52.2344 43.9375 52.3438L38.6836 56.6407C38.1719 57.0626 37.543 57.2735 36.9102 57.2735L36.9102 57.2696Z" fill="black"/>
<path fill-rule="evenodd" clip-rule="evenodd" d="M31.4179 45.4261C31.8554 45.4261 32.2773 45.5745 32.6054 45.848L36.9101 49.3714L41.2187 45.8441C41.5469 45.5745 41.9648 45.4261 42.3984 45.4261H44.9765L44.9648 42.8675C44.9609 42.4378 45.1094 42.0159 45.3828 41.68L48.9062 37.3753L45.3789 33.0667C45.1094 32.7386 44.957 32.3206 44.957 31.887V29.3089L42.3984 29.3206C41.9609 29.3206 41.543 29.1722 41.2109 28.8987L36.9062 25.3753L32.5976 28.9026C32.2695 29.1722 31.8515 29.3206 31.4179 29.3206H28.8515V31.887C28.8515 32.3128 28.7031 32.7307 28.4375 33.0628L24.9102 37.3753L28.4375 41.6839C28.707 42.012 28.8554 42.43 28.8554 42.8597V45.4378L31.414 45.4261H31.4179ZM36.9101 51.4808C36.4922 51.4808 36.0703 51.3402 35.7304 51.0628L31.3554 47.4847L28.6718 47.4964H28.664C28.1679 47.4964 27.7031 47.305 27.3515 46.9535C27 46.6019 26.8047 46.1331 26.8047 45.6332V42.9262L23.2227 38.5512C22.6641 37.8676 22.6641 36.8793 23.2227 36.1957L26.8047 31.8207V29.1254C26.8047 28.102 27.6406 27.266 28.6641 27.266H31.3594L35.7344 23.684C36.4179 23.1254 37.4102 23.1254 38.0899 23.684L42.4649 27.2621L45.1485 27.2503H45.1563C45.6524 27.2503 46.1172 27.4417 46.4688 27.7933C46.8203 28.1449 47.0156 28.6136 47.0156 29.1136V31.8206L50.5976 36.1995C51.1562 36.8831 51.1562 37.8714 50.5976 38.555L47.0195 42.9261L47.0313 45.6136C47.0352 46.1136 46.8438 46.5824 46.4883 46.9339C46.1367 47.2855 45.668 47.4808 45.1719 47.4808H42.4649L38.0899 51.0628C37.7501 51.344 37.3282 51.4807 36.9141 51.4807L36.9101 51.4808Z" fill="black"/>
<path fill-rule="evenodd" clip-rule="evenodd" d="M36.9101 33.6642C34.8671 33.6642 33.2031 35.3283 33.2031 37.3712C33.2031 39.4142 34.8672 41.0821 36.9101 41.0821C38.9531 41.0821 40.6171 39.418 40.6171 37.3712C40.6171 35.3282 38.953 33.6642 36.9101 33.6642ZM36.9101 43.1369C33.7304 43.1369 31.1484 40.551 31.1484 37.3713C31.1484 34.1916 33.7343 31.6096 36.9101 31.6096C40.0898 31.6096 42.6718 34.1955 42.6718 37.3713C42.6718 40.5471 40.0859 43.1369 36.9101 43.1369Z" fill="black"/>
<path fill-rule="evenodd" clip-rule="evenodd" d="M14.4179 10.9843H9.13667C8.57026 10.9843 8.10938 10.5234 8.10938 9.95702C8.10938 9.39066 8.57031 8.92972 9.13667 8.92972H13.8594V6.33992C13.8594 5.5157 14.5313 4.84382 15.3555 4.84382H19.0547V1.02742C19.0547 0.461012 19.5156 0.00012207 20.082 0.00012207C20.6484 0.00012207 21.1093 0.461062 21.1093 1.02742V5.39852C21.1093 6.22274 20.4374 6.89462 19.6132 6.89462H15.914V9.48442C15.914 10.3086 15.2421 10.9805 14.4179 10.9805V10.9843Z" fill="black"/>
<path fill-rule="evenodd" clip-rule="evenodd" d="M64.6796 10.9843H59.3984C58.5742 10.9843 57.9023 10.3124 57.9023 9.4882V6.8984H54.2031C53.3789 6.8984 52.707 6.22652 52.707 5.4023V1.0273C52.707 0.46089 53.168 0 53.7343 0C54.3007 0 54.7616 0.46094 54.7616 1.0273V4.8437H58.4608C59.2851 4.8437 59.9569 5.51558 59.9569 6.3398V8.9296H64.6757C65.2421 8.9296 65.703 9.39054 65.703 9.9569C65.703 10.5233 65.2421 10.9842 64.6757 10.9842L64.6796 10.9843Z" fill="black"/>
<path fill-rule="evenodd" clip-rule="evenodd" d="M20.082 74.7469C19.5156 74.7469 19.0547 74.286 19.0547 73.7196V69.9032H15.3555C14.5274 69.9032 13.8594 69.2313 13.8594 68.4071V65.8173H9.13667C8.57026 65.8173 8.10938 65.3564 8.10938 64.79C8.10938 64.2236 8.57031 63.7627 9.13667 63.7627H14.4179C15.2421 63.7627 15.914 64.4346 15.914 65.2588V67.8486H19.6132C20.4413 67.8486 21.1093 68.5205 21.1093 69.3447V73.7197C21.1093 74.2861 20.6483 74.7469 20.082 74.7469Z" fill="black"/>
<path fill-rule="evenodd" clip-rule="evenodd" d="M53.7382 74.7463C53.1718 74.7463 52.7109 74.2853 52.7109 73.719V69.344C52.7109 68.5158 53.3828 67.8479 54.207 67.8479H57.9062V65.2581C57.9062 64.4338 58.5781 63.762 59.4023 63.762H64.6835C65.25 63.762 65.7108 64.2229 65.7108 64.7893C65.7108 65.3556 65.2499 65.8166 64.6835 65.8166H59.9647V68.4064C59.9647 69.2306 59.2929 69.9025 58.4686 69.9025H54.7694V73.7189C54.7694 74.2853 54.3085 74.7462 53.7421 74.7462L53.7382 74.7463Z" fill="black"/>
</svg>
