<svg width="48" height="48" viewBox="0 0 48 48" fill="none" xmlns="http://www.w3.org/2000/svg">
<path fill-rule="evenodd" clip-rule="evenodd" d="M24 2.5C24.8284 2.5 25.5 3.17158 25.5 4V6C25.5 6.82842 24.8284 7.5 24 7.5C23.1716 7.5 22.5 6.82842 22.5 6V4C22.5 3.17158 23.1716 2.5 24 2.5ZM8.79722 8.79722C9.383 8.21144 10.3328 8.21144 10.9185 8.79722L11.7042 9.5829C12.29 10.1687 12.29 11.1184 11.7042 11.7042C11.1184 12.29 10.1687 12.29 9.5829 11.7042L8.79722 10.9185C8.21144 10.3328 8.21144 9.383 8.79722 8.79722ZM39.2022 8.79774C39.788 9.38352 39.788 10.3333 39.2022 10.9191L38.4166 11.7047C37.8308 12.2905 36.881 12.2905 36.2952 11.7047C35.7094 11.1189 35.7094 10.1692 36.2952 9.58342L37.081 8.79774C37.6668 8.21196 38.6164 8.21196 39.2022 8.79774ZM24 13.5C18.201 13.5 13.5 18.201 13.5 24C13.5 26.427 14.3219 28.6592 15.7042 30.4374H22.5V23.6214L21.0606 25.0606C20.4748 25.6464 19.5251 25.6464 18.9393 25.0606C18.3536 24.4748 18.3536 23.5252 18.9393 22.9394L22.9394 18.9393C23.5252 18.3536 24.4748 18.3536 25.0606 18.9393L29.0606 22.9394C29.6464 23.5252 29.6464 24.4748 29.0606 25.0606C28.4748 25.6464 27.5252 25.6464 26.9394 25.0606L25.5 23.6214V30.4374H32.2958C33.6782 28.6592 34.5 26.427 34.5 24C34.5 18.201 29.799 13.5 24 13.5ZM12.1653 30.5C11.1042 28.5716 10.5 26.3556 10.5 24C10.5 16.5442 16.5442 10.5 24 10.5C31.4558 10.5 37.5 16.5442 37.5 24C37.5 26.3556 36.8958 28.5716 35.8346 30.5H44C44.8284 30.5 45.5 31.1716 45.5 32C45.5 32.8284 44.8284 33.5 44 33.5H4C3.17158 33.5 2.5 32.8284 2.5 32C2.5 31.1716 3.17158 30.5 4 30.5H12.1653ZM2.5 24C2.5 23.1716 3.17158 22.5 4 22.5H6C6.82842 22.5 7.5 23.1716 7.5 24C7.5 24.8284 6.82842 25.5 6 25.5H4C3.17158 25.5 2.5 24.8284 2.5 24ZM40.5 24C40.5 23.1716 41.1716 22.5 42 22.5H44C44.8284 22.5 45.5 23.1716 45.5 24C45.5 24.8284 44.8284 25.5 44 25.5H42C41.1716 25.5 40.5 24.8284 40.5 24ZM8.5 38C8.5 37.1716 9.17158 36.5 10 36.5H38C38.8284 36.5 39.5 37.1716 39.5 38C39.5 38.8284 38.8284 39.5 38 39.5H10C9.17158 39.5 8.5 38.8284 8.5 38ZM14.5 44C14.5 43.1716 15.1716 42.5 16 42.5H32C32.8284 42.5 33.5 43.1716 33.5 44C33.5 44.8284 32.8284 45.5 32 45.5H16C15.1716 45.5 14.5 44.8284 14.5 44Z" fill="#FFD08A"/>
</svg>
