<svg width="42" height="44" viewBox="0 0 42 44" fill="none" xmlns="http://www.w3.org/2000/svg">
<mask id="path-1-outside-1_330_204" maskUnits="userSpaceOnUse" x="0" y="0" width="42" height="44" fill="black">
<rect fill="white" width="42" height="44"/>
<path d="M40.9333 39.2365C40.8828 39.1411 39.7972 37.157 37.3236 35.7517L37.3713 35.7331C37.5712 35.6547 37.7057 35.4653 37.7122 35.2525C37.7201 35.0382 37.5986 34.8397 37.4053 34.7496C37.1335 34.6229 36.952 34.3865 36.9415 34.3734C36.7443 34.1265 36.4856 33.5035 36.3995 33.0659C36.3054 32.5943 36.2779 32.0836 36.3171 31.5481C36.449 29.675 35.5856 28.6274 34.8254 28.161C34.9038 27.8057 34.8777 27.4308 34.7418 27.0782C34.5293 26.5343 34.0871 26.152 33.571 25.983C33.5906 25.8271 33.6057 25.703 33.6159 25.6142C34.1398 25.5506 34.6254 25.1819 34.8527 24.5951C34.9259 24.3887 35.0017 24.1824 35.0931 23.9642C35.3394 23.352 35.1907 22.6986 34.7825 22.3061C34.8275 22.1967 34.8685 22.0859 34.9122 21.9762C35.0967 21.9744 35.2848 21.934 35.4641 21.8481C35.8442 21.6678 36.1434 21.3165 36.2883 20.8789L36.5195 20.1448C36.6527 19.6942 36.5979 19.2187 36.3693 18.8438C36.264 18.6717 36.1248 18.5418 35.9705 18.441C35.9915 18.3109 36.0214 18.1825 36.0368 18.0512C36.2279 17.9983 36.4123 17.9159 36.5678 17.7741C36.8931 17.4749 37.0707 17.0295 37.055 16.5658L37.0537 16.3098C37.0537 16.1269 37.0537 15.9427 37.0419 15.7167C36.9792 15.223 36.7402 14.7932 36.3875 14.536C36.2441 14.4318 36.0878 14.363 35.9274 14.3263C35.8959 14.1946 35.8595 14.0671 35.8224 13.9417C35.9835 13.8166 36.1245 13.6606 36.219 13.4597C36.4097 13.0534 36.4071 12.5845 36.2229 12.1953L35.9343 11.5004C35.7736 11.0746 35.4484 10.7428 35.0434 10.5912C34.8404 10.5142 34.6315 10.5031 34.4287 10.5268L34.2452 10.1991C34.3605 10.0498 34.4503 9.88037 34.4909 9.68478C34.5745 9.27202 34.4673 8.81741 34.1995 8.44255L33.7763 7.84168C33.5281 7.46811 33.1454 7.21597 32.7274 7.15066C32.5203 7.1192 32.3202 7.14679 32.1302 7.20694L31.8957 6.92825C31.9864 6.75723 32.0485 6.56929 32.0574 6.36175C32.0744 5.94117 31.9059 5.51664 31.5806 5.18097L31.032 4.65589C30.7067 4.31755 30.2705 4.13992 29.8251 4.17C29.6064 4.18349 29.4114 4.25886 29.2375 4.36387C29.1326 4.28447 29.0178 4.22225 28.9101 4.14766C28.9397 3.97638 28.9393 3.79832 28.8925 3.61871C28.7827 3.20071 28.4719 2.82585 28.0539 2.59726C27.8841 2.49929 27.7039 2.42616 27.5236 2.3556L27.2806 2.25634C26.8287 2.06951 26.3506 2.07089 25.9613 2.24981C25.7866 2.33137 25.6464 2.45219 25.5316 2.59279L25.1754 2.49052C25.1526 2.31323 25.0987 2.13964 24.9973 1.98074C24.77 1.62419 24.3677 1.36809 23.8778 1.27408L23.6336 1.22965C23.4494 1.19304 23.264 1.1578 23.0968 1.14732C22.6265 1.10942 22.1693 1.23223 21.8441 1.50783C21.7049 1.62625 21.6013 1.7683 21.5263 1.92205C21.4026 1.91809 21.279 1.90967 21.1552 1.90838C21.0856 1.72791 20.9837 1.55767 20.8345 1.4163C20.5222 1.12111 20.1004 0.974843 19.6523 1.00355L18.9117 1.04144C18.465 1.0558 18.0483 1.25044 17.7701 1.57572C17.6369 1.73084 17.5533 1.91062 17.5026 2.09641C17.3813 2.11008 17.2614 2.13242 17.1405 2.14866C17.0511 1.9981 16.9343 1.86223 16.7826 1.75464C16.4391 1.51169 15.9832 1.42155 15.5286 1.50121C15.3588 1.52991 15.1902 1.57176 15.0231 1.61482L14.7631 1.67755C14.3099 1.78987 13.9298 2.06161 13.7194 2.42341C13.6256 2.58608 13.5773 2.76088 13.56 2.93714L13.2184 3.04198C13.1049 2.90405 12.9667 2.78555 12.7972 2.70296C12.4184 2.52009 11.9508 2.50831 11.504 2.67555L11.2715 2.76174C11.103 2.8231 10.9358 2.88455 10.7843 2.95639C10.3559 3.1458 10.0267 3.48147 9.88172 3.87859C9.817 4.05312 9.79784 4.23102 9.80961 4.40495C9.70142 4.46081 9.5909 4.51263 9.48382 4.56995C9.34065 4.44904 9.17582 4.35313 8.98307 4.30441C8.56902 4.19595 8.10401 4.28739 7.70818 4.54735L7.51482 4.66887C7.34501 4.77337 7.1752 4.87916 7.03804 4.99414C6.65141 5.28934 6.40451 5.70338 6.35879 6.13058C6.33963 6.31663 6.36678 6.49366 6.4229 6.65858L6.15332 6.90711C6.00189 6.84094 5.83191 6.80312 5.626 6.80725C5.19623 6.81773 4.76259 7.03189 4.4478 7.38329C4.31589 7.52173 4.20219 7.6759 4.08858 7.83128L3.93965 8.0298C3.6497 8.39941 3.52689 8.85798 3.60398 9.28637C3.64033 9.49305 3.72936 9.67009 3.84469 9.82486C3.77826 9.93469 3.71905 10.0486 3.65675 10.1607C3.46175 10.1409 3.26092 10.1546 3.06446 10.2295C2.653 10.3836 2.32257 10.7219 2.16057 11.1491L1.86925 11.8897C1.71774 12.3403 1.74773 12.8171 1.95286 13.1985C2.04516 13.3688 2.17175 13.503 2.31535 13.6105C2.28776 13.7314 2.25132 13.8502 2.22718 13.9719C2.22692 13.973 2.22666 13.9743 2.2264 13.9754C2.04628 14.0088 1.87165 14.0746 1.71507 14.1887C1.36763 14.4394 1.13646 14.8549 1.08154 15.3107C1.04107 15.5837 1.01099 15.858 1.00317 16.1193C0.975753 16.596 1.12726 17.0467 1.41988 17.3562C1.55025 17.4945 1.70605 17.59 1.87217 17.6557C1.87389 17.7783 1.88205 17.9009 1.88549 18.0235C1.72771 18.0973 1.5817 18.1995 1.46035 18.3398C1.18346 18.6624 1.04889 19.1196 1.09727 19.6265L1.21354 20.3671C1.27885 20.823 1.51922 21.2227 1.8732 21.4643C2.04043 21.5784 2.22348 21.6365 2.40928 21.6655C2.43386 21.7731 2.46574 21.8783 2.49375 21.9848C1.99566 22.437 1.90568 23.2249 2.32514 23.8926C2.44666 24.0729 2.56551 24.257 2.68694 24.4621C2.98867 24.9545 3.49939 25.2353 3.99706 25.2353C4.19514 25.2353 4.38885 25.1829 4.56889 25.0899C4.63007 25.1269 4.69135 25.1623 4.74557 25.1909C4.79525 25.2183 4.84612 25.2445 4.89708 25.2771C4.96918 25.3235 5.05736 25.3523 5.13547 25.3924L5.13478 25.4156C5.13478 25.4181 5.1335 25.4208 5.1335 25.4234C5.12301 26.1431 5.7226 26.7518 6.54287 26.8393C6.76236 26.8576 6.98304 26.8772 7.21559 26.9085C7.28614 26.9164 7.35532 26.9203 7.4233 26.9203C8.02916 26.9203 8.54771 26.5877 8.77407 26.1008C8.9175 26.0995 9.06161 26.0951 9.2059 26.0889C9.27895 26.2493 9.38053 26.3978 9.52104 26.5205C9.80059 26.7648 10.1833 26.8994 10.6052 26.8994C10.6614 26.8994 10.7175 26.8968 10.775 26.8928L11.5104 26.804C11.9545 26.753 12.3555 26.5322 12.6089 26.1978C12.7284 26.0395 12.8 25.864 12.8399 25.6834L13.186 25.6246C13.2799 25.7773 13.4014 25.9146 13.5586 26.0215C13.8133 26.1966 14.1255 26.288 14.4494 26.288C14.5604 26.288 14.6727 26.2775 14.7851 26.2553L15.4982 26.1156C15.9332 26.0281 16.3147 25.7812 16.542 25.439C16.6447 25.284 16.7062 25.1149 16.7372 24.942L17.0635 24.8771C17.3197 25.2725 17.7953 25.5226 18.3223 25.5226C18.4268 25.5226 18.5339 25.5135 18.6424 25.4926L19.3464 25.3645C19.9932 25.2426 20.4614 24.7866 20.5841 24.2424C20.6949 24.2253 20.8059 24.2088 20.9169 24.193C21.1657 24.6344 21.6738 24.9269 22.2593 24.9269C22.309 24.9269 22.3586 24.9243 22.4095 24.9204L23.0809 24.8603C23.7133 24.8307 24.2351 24.4346 24.4329 23.9108C24.5348 23.908 24.6415 23.9177 24.7466 23.9192C24.9142 24.4215 25.3823 24.8226 25.9899 24.9218L26.5843 25.0184C26.7123 25.0537 26.8416 25.0707 26.9709 25.0707C27.4003 25.0707 27.8126 24.8796 28.0913 24.5672C28.1731 24.6011 28.2479 24.6413 28.3255 24.6776C28.2576 25.1693 28.4594 25.7036 28.9223 26.113C29.0373 26.1901 29.1443 26.3115 29.2919 26.4761C29.6263 26.7922 30.0338 26.9581 30.4296 26.9581C30.6304 26.9581 30.8245 26.9025 31.008 26.8154L31.2918 26.9758C31.0867 27.4214 31.0527 27.9452 31.2435 28.4381C31.3793 28.7869 31.6105 29.0795 31.907 29.2885C31.6653 30.1205 31.7215 31.4921 33.0995 32.797C33.4927 33.1693 33.8167 33.565 34.0635 33.9739C34.1157 34.0601 34.168 34.1607 34.2202 34.2704C34.3966 34.6479 34.5312 35.0724 34.5481 35.318C34.5481 35.3205 34.5729 35.6197 34.4592 35.8953C34.3783 36.0938 34.4226 36.3211 34.5729 36.4739C34.6748 36.5784 34.8132 36.6346 34.9542 36.6346C34.9809 36.6346 35.0066 36.624 35.033 36.6197C34.0671 39.2629 34.5173 41.4566 34.5402 41.5617C34.5937 41.8124 34.8145 41.9835 35.0614 41.9835C35.098 41.9835 35.1358 41.9796 35.1737 41.9718C35.4624 41.9104 35.6466 41.6269 35.5865 41.3382C35.5838 41.3246 35.4474 40.6108 35.5134 39.5454C35.659 40.3381 35.9013 41.1674 36.3219 41.9639C36.4173 42.1455 36.6028 42.25 36.7948 42.25C36.8797 42.25 36.9646 42.2291 37.0442 42.1873C37.3055 42.0501 37.406 41.7262 37.2676 41.465C36.7299 40.4465 36.5139 39.3423 36.4395 38.3758L37.3864 40.9242C37.4884 41.2011 37.7979 41.3422 38.0748 41.239C38.3517 41.1358 38.4928 40.8275 38.3896 40.5506L37.4726 38.0819C38.0213 38.8591 38.5451 39.827 38.784 40.9176C38.8389 41.1671 39.0596 41.3382 39.3065 41.3382C39.3444 41.3382 39.3823 41.3343 39.4215 41.3252C39.7102 41.2624 39.8931 40.9764 39.829 40.6878C39.6369 39.811 39.2878 39.0227 38.8882 38.324C39.6268 39.0967 39.9836 39.7298 39.9897 39.742C40.0863 39.9209 40.2718 40.0229 40.4612 40.0229C40.5474 40.0229 40.6336 40.002 40.7146 39.9588C40.9751 39.8204 41.0731 39.4964 40.9333 39.2365ZM34.1031 23.5566C34.0064 23.7878 33.9228 24.0151 33.8497 24.2241C33.7608 24.454 33.5584 24.6029 33.4148 24.5625L33.2384 24.5115C33.1901 24.4984 33.1587 24.4462 33.143 24.4161C33.0986 24.3247 33.0738 24.1653 33.1483 23.9746C33.2292 23.7448 33.3128 23.5187 33.4043 23.2981C33.4656 23.1465 33.5715 23.0263 33.6891 22.9767C33.7466 22.9519 33.7975 22.9506 33.8406 22.9662L34.0051 23.0341C34.1279 23.0838 34.1958 23.3268 34.1031 23.5566ZM35.4955 19.8326L35.2695 20.5511C35.2198 20.7026 35.1205 20.8267 35.0043 20.8816C34.9716 20.8972 34.9089 20.9221 34.8527 20.8999L34.6842 20.8346C34.5471 20.7823 34.4909 20.5354 34.568 20.3003L34.7744 19.6419C34.8475 19.4016 35.0213 19.2488 35.1741 19.2775L35.3517 19.3154C35.3557 19.3154 35.4522 19.4003 35.4562 19.4016C35.5099 19.4904 35.5491 19.6537 35.4955 19.8326ZM35.4733 15.4007L35.7581 15.4019C35.8456 15.466 35.9515 15.6175 35.9776 15.8082C35.9854 15.974 35.9841 16.1413 35.9841 16.3084L35.9854 16.5893C35.9906 16.7512 35.9371 16.8988 35.843 16.985C35.8038 17.0216 35.7621 17.0425 35.7267 17.0425C35.7228 17.0438 35.7189 17.0438 35.7071 17.0399L35.536 17.0229C35.3832 17.0059 35.25 16.7891 35.2396 16.5631L35.2317 15.8356C35.199 15.6122 35.3388 15.4254 35.4733 15.4007ZM34.3369 11.674L34.5027 11.5878C34.521 11.5787 34.5445 11.5734 34.5706 11.5734C34.5993 11.5734 34.6334 11.58 34.6673 11.593C34.7235 11.6139 34.8593 11.6832 34.9403 11.8947L35.2447 12.6275C35.327 12.8026 35.2761 12.9501 35.25 13.0051C35.2133 13.0847 35.1638 13.12 35.1455 13.1252C35.1402 13.1265 35.135 13.1278 35.1298 13.1292L34.9691 13.1762C34.7104 13.2415 34.5472 12.8797 34.525 12.8365L34.2755 12.2396C34.1841 11.9901 34.2141 11.7406 34.3369 11.674ZM32.2613 8.35094L32.3409 8.28692H32.341L32.3411 8.28683L32.401 8.23862C32.435 8.21121 32.4781 8.20468 32.5146 8.20468C32.533 8.20468 32.5499 8.20597 32.5629 8.20863C32.6845 8.22694 32.802 8.30918 32.8935 8.44634L33.3271 9.06156C33.4238 9.19743 33.4668 9.35023 33.4421 9.47037C33.4251 9.55132 33.3833 9.57744 33.3702 9.58535C33.369 9.58664 33.3677 9.58664 33.3677 9.58793L33.3103 9.62316H33.3102L33.3101 9.62325L33.2187 9.67937C33.0999 9.74863 32.8477 9.67026 32.7002 9.46779L32.3136 8.9153C32.1595 8.68146 32.162 8.43061 32.2613 8.35094ZM29.6398 5.44462L29.7548 5.29312C29.7769 5.26304 29.8319 5.24087 29.8945 5.23691C29.901 5.23691 29.9076 5.23562 29.9154 5.23562C29.9859 5.23562 30.127 5.2578 30.2759 5.41197L30.8271 5.93971C30.9342 6.05074 30.993 6.1879 30.9878 6.31586C30.9852 6.38641 30.963 6.44519 30.9264 6.47785L30.8651 6.52993C30.8643 6.53062 30.8633 6.53079 30.8625 6.53139C30.8617 6.53216 30.8614 6.53311 30.8605 6.5338L30.788 6.59533C30.6809 6.68548 30.4405 6.61097 30.259 6.42552L29.8044 5.99187C29.6463 5.82344 29.5404 5.57783 29.6398 5.44462ZM26.4133 3.22013C26.4578 3.19925 26.5204 3.1849 26.5949 3.1849C26.672 3.1849 26.7634 3.20054 26.8601 3.23973C26.9503 3.2802 27.043 3.31681 27.1357 3.35333C27.2651 3.40301 27.3944 3.4513 27.5276 3.52839C27.7301 3.63942 27.8306 3.78835 27.8581 3.89148C27.8699 3.93591 27.8686 3.97114 27.8529 3.99598C27.8516 3.99726 27.8503 3.99993 27.8503 4.00122L27.7589 4.15144C27.6818 4.27553 27.4519 4.33302 27.2612 4.2311C27.111 4.14095 26.9477 4.07564 26.7831 4.01299L26.5767 3.92937C26.3546 3.83923 26.2331 3.60934 26.275 3.47743L26.4133 3.22013ZM22.5378 2.32277C22.6057 2.26528 22.735 2.20916 22.9179 2.20916C22.948 2.20916 22.9793 2.21045 23.0119 2.21441C23.1504 2.22223 23.2888 2.2523 23.426 2.27843L23.6938 2.3281C23.9093 2.36987 24.0425 2.47308 24.0947 2.55669C24.1339 2.61676 24.1248 2.65466 24.1196 2.6703C24.1196 2.67159 24.1196 2.67159 24.1196 2.67288L24.1044 2.73605C24.1039 2.73733 24.103 2.73819 24.1026 2.73948C24.102 2.74146 24.1027 2.74344 24.1021 2.74533L24.0777 2.84656C24.0425 2.98243 23.8152 3.11305 23.5644 3.06209L23.3502 3.02291C23.1817 2.98767 23.0131 2.9563 22.8603 2.94711C22.6134 2.92356 22.4515 2.74988 22.4606 2.61144L22.5378 2.32277ZM18.5813 2.27181C18.6217 2.22609 18.7367 2.11764 18.9575 2.10982L19.7204 2.07063C19.7347 2.07063 19.7491 2.06934 19.7635 2.06934C19.8928 2.06934 20.0156 2.11377 20.0992 2.19344C20.1475 2.23916 20.1775 2.29269 20.1763 2.33188C20.1763 2.33317 20.1763 2.33446 20.1763 2.33584L20.175 2.51347C20.171 2.6807 19.9307 2.79955 19.7178 2.81786L19.0398 2.85309C18.7799 2.85962 18.5565 2.74988 18.5396 2.60748L18.529 2.50651C18.5289 2.50573 18.5293 2.50505 18.5292 2.50427C18.5291 2.50367 18.5287 2.50333 18.5286 2.50273L18.52 2.42066C18.5147 2.38026 18.5382 2.32277 18.5813 2.27181ZM14.6457 2.96017C14.6953 2.87526 14.8194 2.76552 15.0087 2.7198L15.2843 2.65191C15.4255 2.61668 15.5652 2.58007 15.7154 2.55523C15.7624 2.54612 15.8081 2.54217 15.8513 2.54217C15.9897 2.54217 16.0995 2.58265 16.1635 2.62837C16.2105 2.66102 16.2366 2.69626 16.2419 2.73416L16.2432 2.73544L16.2706 2.91308C16.2927 3.05023 16.1347 3.23569 15.8983 3.27883C15.739 3.30495 15.5808 3.34543 15.4228 3.38462L15.1811 3.4434C14.9382 3.50613 14.7083 3.3951 14.6717 3.26705L14.6234 3.092C14.6221 3.0908 14.6457 2.96155 14.6457 2.96017ZM11.2299 3.92946C11.3618 3.86673 11.499 3.81714 11.6361 3.76747L11.8869 3.67474C11.9783 3.6408 12.0619 3.62773 12.1351 3.62773C12.216 3.62773 12.284 3.64337 12.331 3.66692C12.4042 3.70216 12.4185 3.7453 12.4225 3.75965C12.4237 3.76094 12.4237 3.7636 12.425 3.76489L12.4483 3.8351C12.4487 3.83605 12.4482 3.83708 12.4486 3.83802C12.4488 3.8388 12.4495 3.83905 12.4498 3.83983L12.4799 3.93075C12.5217 4.06137 12.3911 4.28215 12.1494 4.37221L11.9326 4.45187C11.7759 4.50937 11.6178 4.56686 11.482 4.63217C11.2599 4.73014 11.0209 4.66483 10.9595 4.54073L10.885 4.24812C10.9216 4.15144 11.0274 4.01823 11.2299 3.92946ZM7.70311 5.83126C7.81939 5.73587 7.94872 5.65887 8.0754 5.58049L8.29617 5.44076C8.40591 5.36891 8.52476 5.32973 8.62926 5.32973C8.66063 5.32973 8.69062 5.33368 8.71941 5.3415C8.77424 5.35456 8.81214 5.38069 8.83173 5.4173C8.83302 5.41987 8.83431 5.42254 8.83568 5.42383L8.91801 5.57405C8.98332 5.69556 8.89713 5.93584 8.68418 6.07695L8.51179 6.18541C8.36028 6.27813 8.21006 6.37223 8.09507 6.4702C7.90696 6.61389 7.65877 6.5943 7.56733 6.4898L7.42365 6.24161C7.43404 6.13823 7.50975 5.98019 7.70311 5.83126ZM4.78107 8.69057L4.95217 8.46198C5.03836 8.34441 5.12327 8.22556 5.2343 8.10929C5.38452 7.94205 5.54909 7.87941 5.6523 7.87674C5.65488 7.87674 5.65754 7.87674 5.65883 7.87674C5.72414 7.87674 5.74632 7.89891 5.75422 7.90682C5.75551 7.90811 5.7568 7.9094 5.75818 7.91077L5.88227 8.03358C5.98677 8.13937 5.99072 8.38231 5.8405 8.54826C5.72165 8.66977 5.62239 8.80555 5.52305 8.94271L5.39638 9.11381C5.24092 9.30846 5.00579 9.39594 4.88307 9.32152L4.80186 9.27022C4.80143 9.26996 4.80118 9.26944 4.80083 9.26927C4.8004 9.26901 4.80006 9.2691 4.79971 9.26884L4.72383 9.22089C4.67811 9.19219 4.66247 9.1255 4.65723 9.09808C4.63351 8.97141 4.68052 8.81862 4.78107 8.69057ZM2.87403 12.2565L3.15882 11.5355C3.21365 11.3906 3.31953 11.2769 3.44225 11.2299C3.47886 11.2168 3.51014 11.2115 3.53626 11.2115C3.55714 11.2115 3.57416 11.2155 3.58593 11.2207C3.58722 11.2219 3.58989 11.2232 3.59118 11.2246L3.74921 11.3043C3.90596 11.3866 3.90992 11.6491 3.83541 11.8464L3.5794 12.4982C3.50627 12.7163 3.31033 12.8627 3.16536 12.8261L2.895 12.6902C2.84532 12.5975 2.81653 12.4289 2.87403 12.2565ZM2.14253 15.4542C2.16736 15.2491 2.26138 15.1133 2.34242 15.0545C2.38685 15.0231 2.42079 15.0166 2.44296 15.0166C2.45998 15.0166 2.46651 15.0166 2.47304 15.0206L2.64285 15.0519C2.78001 15.0793 2.91193 15.2936 2.88451 15.5235C2.84661 15.7704 2.8192 16.0172 2.81396 16.2497C2.80089 16.4901 2.6285 16.6768 2.49393 16.6768L2.19744 16.6206C2.12818 16.5475 2.059 16.3946 2.07206 16.1674C2.07988 15.9336 2.10463 15.7011 2.14253 15.4542ZM2.80089 20.5798L2.69562 20.6033C2.69545 20.6034 2.69528 20.6032 2.69511 20.6033L2.69476 20.6035L2.61931 20.6203C2.55657 20.636 2.5057 20.6007 2.47691 20.5811C2.37241 20.5093 2.29661 20.3721 2.27315 20.2076L2.15954 19.4931C2.13866 19.2776 2.20397 19.1169 2.27186 19.0386C2.3071 18.9968 2.30847 18.9824 2.38032 18.9758L2.55537 18.9641C2.55795 18.9641 2.5619 18.9641 2.56448 18.9641C2.70559 18.9641 2.87274 19.126 2.89886 19.4004L3.00336 20.0678C3.03731 20.3107 2.94192 20.5471 2.80089 20.5798ZM4.23382 24.053L4.0836 24.1445C3.97257 24.215 3.73486 24.1236 3.60424 23.9106C3.47757 23.6951 3.34557 23.4926 3.22156 23.3097C3.09093 23.1007 3.08698 22.8538 3.20978 22.7559L3.35743 22.6461C3.39661 22.6174 3.45668 22.6213 3.49063 22.6278C3.59118 22.6448 3.73228 22.7218 3.84203 22.8956C3.97661 23.0981 4.10852 23.2979 4.22995 23.5043C4.31614 23.6454 4.3488 23.8022 4.31881 23.9249C4.303 23.9851 4.27558 24.0282 4.23382 24.053ZM7.83503 25.6166C7.81801 25.7472 7.60514 25.8687 7.35171 25.8464C7.10353 25.8138 6.86711 25.7916 6.64376 25.7746C6.40082 25.7485 6.20359 25.5995 6.20488 25.4415L6.21012 25.2573C6.21012 25.2077 6.25189 25.1633 6.27672 25.1411C6.35252 25.0745 6.50789 25.0117 6.7065 25.0313C6.94815 25.0509 7.18586 25.0731 7.42622 25.1057C7.58693 25.1241 7.72924 25.1959 7.80761 25.2964C7.8468 25.3447 7.86244 25.3931 7.85729 25.4414L7.83503 25.6166ZM11.7563 25.5512C11.6805 25.6518 11.542 25.7236 11.3853 25.7407L10.6668 25.8281C10.4631 25.8425 10.3011 25.7811 10.2254 25.7145C10.164 25.661 10.1626 25.6179 10.1614 25.6035C10.1614 25.6022 10.1614 25.6009 10.1614 25.5995L10.1509 25.4245C10.1443 25.286 10.3246 25.1097 10.5885 25.0874L11.2755 25.0025C11.303 25 11.3291 24.9986 11.3552 24.9986C11.5694 24.9986 11.7588 25.094 11.7784 25.2206L11.793 25.3131C11.7933 25.315 11.7924 25.3167 11.7928 25.3186C11.793 25.3196 11.794 25.3201 11.7942 25.3211L11.8071 25.4035C11.8164 25.4624 11.7798 25.5212 11.7563 25.5512ZM15.6515 24.8459C15.5809 24.953 15.4451 25.034 15.291 25.0654L14.5791 25.2051C14.4249 25.239 14.2681 25.2116 14.1623 25.1385C14.1257 25.1137 14.0814 25.0732 14.0709 25.0184C14.0709 25.0171 14.0709 25.0171 14.0709 25.0158L14.0564 24.9385C14.0561 24.9368 14.0569 24.9352 14.0566 24.9334C14.0561 24.9312 14.0548 24.9297 14.0543 24.9275L14.0383 24.842C14.0161 24.7101 14.1754 24.5246 14.4392 24.4723L15.1446 24.3351C15.189 24.326 15.2335 24.3221 15.2765 24.3221C15.4764 24.3221 15.6331 24.4135 15.6541 24.5206L15.6711 24.6038C15.6713 24.6052 15.6707 24.6066 15.6711 24.6081C15.6712 24.6089 15.6723 24.6095 15.6724 24.6104L15.6907 24.6995C15.7011 24.7544 15.6749 24.8106 15.6515 24.8459ZM19.1508 24.3117L18.4455 24.441C18.1882 24.488 17.9661 24.3797 17.94 24.2477L17.923 24.1634C17.9227 24.1623 17.9232 24.1612 17.923 24.1602C17.9227 24.1591 17.922 24.1583 17.9218 24.1572L17.9047 24.0727C17.8929 24.0165 17.9203 23.9617 17.9451 23.9264C18.0157 23.8194 18.1529 23.7383 18.3044 23.7083L19.0267 23.5777C19.1834 23.5476 19.3349 23.5751 19.4394 23.6495C19.4695 23.6704 19.5204 23.7136 19.5296 23.7723L19.544 23.8652C19.5442 23.8659 19.5438 23.8669 19.5439 23.8676C19.544 23.8681 19.5445 23.8684 19.5446 23.8688L19.557 23.9486C19.578 24.0804 19.4147 24.262 19.1508 24.3117ZM23.0094 23.7931L22.3183 23.8544C22.0727 23.8701 21.8442 23.7643 21.8246 23.6167L21.8011 23.4391C21.7933 23.3803 21.8312 23.3228 21.8546 23.2941C21.9343 23.1948 22.0754 23.1269 22.2347 23.1138L22.9557 23.0485C23.1738 23.0432 23.3202 23.1073 23.4521 23.2941L23.4561 23.4704C23.4587 23.6089 23.2733 23.78 23.0094 23.7931ZM27.3815 23.6882C27.3814 23.6884 27.3813 23.6884 27.3813 23.6886C27.3812 23.6888 27.3813 23.689 27.3812 23.6892L27.3473 23.7852C27.2951 23.925 27.0743 24.04 26.8144 23.9746L26.1652 23.8662C25.9249 23.827 25.7368 23.6703 25.7434 23.5161L25.7539 23.3319C25.7551 23.298 25.7839 23.2548 25.8297 23.2169C25.9316 23.1333 26.0896 23.0981 26.2464 23.1242L26.9752 23.2457C27.2103 23.3071 27.3475 23.4325 27.4036 23.6258L27.3815 23.6882ZM30.72 25.755L30.5763 25.849C30.3909 25.9692 30.144 25.8073 30.0604 25.7327C29.9219 25.576 29.7495 25.3788 29.5783 25.2703C29.4321 25.1397 29.3249 24.9137 29.4059 24.7465L29.6006 24.5284C29.6503 24.5232 29.8305 24.5023 30.0721 24.7087C30.2615 24.8459 30.4313 25.03 30.6103 25.2286C30.7304 25.3487 30.7931 25.4989 30.7775 25.6322L30.72 25.755ZM31.7556 26.0082C31.7838 25.9222 31.8302 25.8461 31.8407 25.7524C31.893 25.29 31.7192 24.8224 31.3875 24.4933C31.1903 24.2725 30.9734 24.04 30.7344 23.8702C30.349 23.5358 29.8605 23.3896 29.4085 23.4758C29.1984 23.5142 29.0185 23.6092 28.8637 23.731C28.7329 23.6673 28.6034 23.6079 28.4725 23.5542C28.4676 23.375 28.4302 23.1963 28.3427 23.0278C28.1403 22.6386 27.7406 22.3407 27.2011 22.201L26.4187 22.0678C25.9524 21.9934 25.4912 22.1122 25.1543 22.3878C24.9942 22.5187 24.8825 22.6789 24.8025 22.8509C24.6777 22.8487 24.5557 22.8404 24.4265 22.8398C24.3593 22.6774 24.263 22.5259 24.1276 22.3983C23.8219 22.1096 23.3895 21.9607 22.8815 21.9816L22.1422 22.0482C21.6928 22.0861 21.2853 22.2951 21.0215 22.6229C20.8966 22.7782 20.82 22.9526 20.7755 23.1331C20.6591 23.1495 20.5429 23.1666 20.4265 23.1845C20.3346 23.0283 20.2148 22.8868 20.0575 22.7757C19.7153 22.5328 19.2659 22.4426 18.8323 22.525L18.1073 22.6569C17.6697 22.7418 17.287 22.986 17.0571 23.3283C16.9528 23.4837 16.8903 23.6529 16.8586 23.8263L16.5141 23.8948C16.2027 23.4229 15.5842 23.1564 14.9384 23.2853L14.2331 23.4224C13.5812 23.5528 13.1171 24.0189 13.0055 24.5697L12.6645 24.6276C12.3808 24.1626 11.7979 23.8816 11.1517 23.9397L10.479 24.0233C9.84743 24.0754 9.33928 24.4892 9.16027 25.0201C9.05629 25.0244 8.95222 25.0193 8.84814 25.0217C8.80157 24.8877 8.74322 24.7559 8.65152 24.6385C8.39809 24.3132 7.99711 24.0964 7.5608 24.0442C7.31132 24.0102 7.05265 23.9854 6.80584 23.9671C6.33954 23.9174 5.89146 24.0533 5.56757 24.3406C5.54823 24.3578 5.54075 24.3816 5.52271 24.3997C5.50861 24.3912 5.48971 24.3859 5.47621 24.3773C5.42336 24.3427 5.3669 24.3128 5.31104 24.2821C5.32316 24.2463 5.34808 24.2186 5.35736 24.1813C5.45662 23.7816 5.37825 23.3323 5.14836 22.9548C5.02032 22.7393 4.878 22.5212 4.74085 22.3148C4.49266 21.9216 4.10732 21.6512 3.6815 21.5754C3.61661 21.5631 3.5562 21.5805 3.49226 21.5779C3.48032 21.5277 3.46433 21.4787 3.45307 21.4284C3.8972 21.1237 4.15157 20.5482 4.06289 19.9114L3.96096 19.2701C3.90373 18.6458 3.48599 18.1495 2.95378 17.9733C2.95111 17.8647 2.94432 17.7562 2.94269 17.6477C3.45565 17.444 3.84787 16.9236 3.88259 16.2919C3.88783 16.0882 3.91267 15.8857 3.94532 15.6689C4.01957 15.0506 3.73916 14.4799 3.27604 14.186C3.27621 14.1852 3.27639 14.1845 3.27656 14.1837C3.2971 14.0807 3.32718 13.9801 3.34978 13.8777C3.89299 13.8177 4.39297 13.4353 4.5841 12.8645L4.83357 12.2309C5.05426 11.6445 4.95105 11.0473 4.6055 10.6513C4.65543 10.5623 4.70278 10.4718 4.75571 10.3845C4.83168 10.3977 4.90714 10.4145 4.98508 10.414C5.43703 10.414 5.90599 10.1907 6.23384 9.78051L6.39188 9.56894C6.45977 9.47355 6.52775 9.37824 6.62176 9.28027C7.03151 8.82781 7.11788 8.18964 6.8959 7.67908L7.13335 7.4602C7.33564 7.56711 7.55556 7.63835 7.79077 7.63835C8.12644 7.63835 8.4726 7.52861 8.7665 7.30397C8.85923 7.2243 8.96502 7.16286 9.06952 7.09892L9.27594 6.96958C9.79071 6.6285 10.0505 6.05186 9.98707 5.51355C10.0827 5.46284 10.1806 5.4173 10.2767 5.36754C10.5354 5.60687 10.8859 5.74695 11.2614 5.74695C11.4835 5.74695 11.7108 5.70123 11.9302 5.60455C12.0478 5.54706 12.1706 5.50401 12.2947 5.45958L12.5324 5.37209C13.1228 5.1508 13.5044 4.61894 13.5412 4.06387L13.8526 3.96839C14.121 4.31841 14.5667 4.53223 15.043 4.53223C15.1696 4.53223 15.299 4.51787 15.427 4.48651L15.6857 4.42248C15.815 4.38983 15.9443 4.35717 16.0814 4.33362C16.7122 4.21976 17.1786 3.75398 17.2995 3.20612C17.4068 3.19194 17.5131 3.17218 17.6212 3.16015C17.8656 3.62009 18.3867 3.92344 19.0243 3.92344C19.0439 3.92344 19.0622 3.92216 19.0818 3.92216L19.7898 3.88555C20.4352 3.83252 20.9384 3.47141 21.1412 2.97633C21.2482 2.97693 21.3545 2.98578 21.4615 2.9893C21.6289 3.52598 22.1323 3.95309 22.7797 4.01488C22.9012 4.02141 23.0201 4.04754 23.139 4.07109L23.3793 4.1168C23.4812 4.1364 23.5818 4.14551 23.681 4.14551C24.1818 4.14551 24.6484 3.90858 24.9173 3.5308L25.2129 3.61562C25.2487 4.15994 25.6082 4.68958 26.1563 4.91491C26.2373 4.95014 26.3196 4.98151 26.4019 5.01287C26.5077 5.05335 26.6149 5.09125 26.7272 5.15785C26.961 5.28848 27.2183 5.34983 27.4705 5.34983C27.7914 5.34983 28.098 5.24121 28.3464 5.05223C28.4256 5.10869 28.5106 5.15587 28.5884 5.21431C28.4483 5.70467 28.6 6.27023 29.0445 6.74486L29.5082 7.18769C29.8439 7.5299 30.2671 7.70624 30.6681 7.70624C30.8139 7.70624 30.9563 7.6808 31.0915 7.63362L31.2985 7.87958C31.0419 8.34338 31.0708 8.97227 31.4283 9.5166L31.8293 10.0887C32.1467 10.5289 32.6365 10.7745 33.112 10.7745C33.1847 10.7745 33.2553 10.7581 33.3267 10.7465L33.4821 11.0239C33.1479 11.4174 33.0547 12.0121 33.2791 12.6293L33.5508 13.2771C33.829 13.8491 34.2886 14.1848 34.7934 14.2335C34.822 14.3312 34.8485 14.4256 34.8724 14.5189C34.3876 14.802 34.0845 15.3634 34.1661 15.9131L34.1701 16.5924C34.1991 17.195 34.5157 17.6999 34.9725 17.9416C34.9612 18.0389 34.9393 18.1347 34.9244 18.2315C34.3916 18.3185 33.9334 18.7245 33.7521 19.3275L33.5496 19.9741C33.3494 20.5872 33.516 21.2112 33.9185 21.582C33.8772 21.6856 33.838 21.7901 33.7957 21.8932C33.6201 21.8911 33.4429 21.9198 33.2726 21.9909C32.8925 22.1516 32.579 22.482 32.4144 22.8935C32.3178 23.1246 32.229 23.369 32.1454 23.6027C31.9781 24.0363 31.9926 24.5066 32.1859 24.8945C32.2794 25.0816 32.416 25.225 32.5713 25.3409C32.5667 25.3779 32.5624 25.4127 32.5568 25.4614C32.545 25.5672 32.5235 25.7407 32.4948 25.9599C32.4344 25.9767 32.3735 25.9869 32.3139 26.0101C32.2099 26.0505 32.1144 26.1028 32.0221 26.1588L31.7556 26.0082ZM35.6183 35.2669C35.617 35.2473 35.6157 35.2343 35.6157 35.229C35.5765 34.6804 35.28 34.009 35.1899 33.817C35.1899 33.8157 35.1886 33.8144 35.1886 33.813C35.118 33.6654 35.0475 33.5322 34.9796 33.4186C34.6831 32.93 34.2991 32.4598 33.8366 32.0209C32.3527 30.6154 33.0059 29.3954 33.0516 29.3131C33.1365 29.172 33.1521 28.9996 33.0934 28.8468C33.0346 28.6926 32.9079 28.575 32.7511 28.5268C32.5173 28.4536 32.3306 28.2799 32.2417 28.05C32.081 27.6359 32.2861 27.1683 32.7002 27.0076C32.7956 26.971 32.8935 26.9528 32.9915 26.9528C33.3141 26.9528 33.6198 27.1487 33.7439 27.4661C33.8328 27.696 33.8132 27.9507 33.6891 28.1637C33.6081 28.3021 33.6198 28.4785 33.676 28.6287C33.7335 28.7802 33.8798 28.9043 34.0326 28.9552C34.0888 28.9735 35.3937 29.4333 35.2487 31.471C35.203 32.1018 35.237 32.708 35.3493 33.2749C35.4564 33.8104 35.7673 34.6177 36.0926 35.0252C36.0978 35.0317 36.1096 35.0473 36.1265 35.0696L35.6183 35.2669Z"/>
</mask>
<path d="M40.9333 39.2365C40.8828 39.1411 39.7972 37.157 37.3236 35.7517L37.3713 35.7331C37.5712 35.6547 37.7057 35.4653 37.7122 35.2525C37.7201 35.0382 37.5986 34.8397 37.4053 34.7496C37.1335 34.6229 36.952 34.3865 36.9415 34.3734C36.7443 34.1265 36.4856 33.5035 36.3995 33.0659C36.3054 32.5943 36.2779 32.0836 36.3171 31.5481C36.449 29.675 35.5856 28.6274 34.8254 28.161C34.9038 27.8057 34.8777 27.4308 34.7418 27.0782C34.5293 26.5343 34.0871 26.152 33.571 25.983C33.5906 25.8271 33.6057 25.703 33.6159 25.6142C34.1398 25.5506 34.6254 25.1819 34.8527 24.5951C34.9259 24.3887 35.0017 24.1824 35.0931 23.9642C35.3394 23.352 35.1907 22.6986 34.7825 22.3061C34.8275 22.1967 34.8685 22.0859 34.9122 21.9762C35.0967 21.9744 35.2848 21.934 35.4641 21.8481C35.8442 21.6678 36.1434 21.3165 36.2883 20.8789L36.5195 20.1448C36.6527 19.6942 36.5979 19.2187 36.3693 18.8438C36.264 18.6717 36.1248 18.5418 35.9705 18.441C35.9915 18.3109 36.0214 18.1825 36.0368 18.0512C36.2279 17.9983 36.4123 17.9159 36.5678 17.7741C36.8931 17.4749 37.0707 17.0295 37.055 16.5658L37.0537 16.3098C37.0537 16.1269 37.0537 15.9427 37.0419 15.7167C36.9792 15.223 36.7402 14.7932 36.3875 14.536C36.2441 14.4318 36.0878 14.363 35.9274 14.3263C35.8959 14.1946 35.8595 14.0671 35.8224 13.9417C35.9835 13.8166 36.1245 13.6606 36.219 13.4597C36.4097 13.0534 36.4071 12.5845 36.2229 12.1953L35.9343 11.5004C35.7736 11.0746 35.4484 10.7428 35.0434 10.5912C34.8404 10.5142 34.6315 10.5031 34.4287 10.5268L34.2452 10.1991C34.3605 10.0498 34.4503 9.88037 34.4909 9.68478C34.5745 9.27202 34.4673 8.81741 34.1995 8.44255L33.7763 7.84168C33.5281 7.46811 33.1454 7.21597 32.7274 7.15066C32.5203 7.1192 32.3202 7.14679 32.1302 7.20694L31.8957 6.92825C31.9864 6.75723 32.0485 6.56929 32.0574 6.36175C32.0744 5.94117 31.9059 5.51664 31.5806 5.18097L31.032 4.65589C30.7067 4.31755 30.2705 4.13992 29.8251 4.17C29.6064 4.18349 29.4114 4.25886 29.2375 4.36387C29.1326 4.28447 29.0178 4.22225 28.9101 4.14766C28.9397 3.97638 28.9393 3.79832 28.8925 3.61871C28.7827 3.20071 28.4719 2.82585 28.0539 2.59726C27.8841 2.49929 27.7039 2.42616 27.5236 2.3556L27.2806 2.25634C26.8287 2.06951 26.3506 2.07089 25.9613 2.24981C25.7866 2.33137 25.6464 2.45219 25.5316 2.59279L25.1754 2.49052C25.1526 2.31323 25.0987 2.13964 24.9973 1.98074C24.77 1.62419 24.3677 1.36809 23.8778 1.27408L23.6336 1.22965C23.4494 1.19304 23.264 1.1578 23.0968 1.14732C22.6265 1.10942 22.1693 1.23223 21.8441 1.50783C21.7049 1.62625 21.6013 1.7683 21.5263 1.92205C21.4026 1.91809 21.279 1.90967 21.1552 1.90838C21.0856 1.72791 20.9837 1.55767 20.8345 1.4163C20.5222 1.12111 20.1004 0.974843 19.6523 1.00355L18.9117 1.04144C18.465 1.0558 18.0483 1.25044 17.7701 1.57572C17.6369 1.73084 17.5533 1.91062 17.5026 2.09641C17.3813 2.11008 17.2614 2.13242 17.1405 2.14866C17.0511 1.9981 16.9343 1.86223 16.7826 1.75464C16.4391 1.51169 15.9832 1.42155 15.5286 1.50121C15.3588 1.52991 15.1902 1.57176 15.0231 1.61482L14.7631 1.67755C14.3099 1.78987 13.9298 2.06161 13.7194 2.42341C13.6256 2.58608 13.5773 2.76088 13.56 2.93714L13.2184 3.04198C13.1049 2.90405 12.9667 2.78555 12.7972 2.70296C12.4184 2.52009 11.9508 2.50831 11.504 2.67555L11.2715 2.76174C11.103 2.8231 10.9358 2.88455 10.7843 2.95639C10.3559 3.1458 10.0267 3.48147 9.88172 3.87859C9.817 4.05312 9.79784 4.23102 9.80961 4.40495C9.70142 4.46081 9.5909 4.51263 9.48382 4.56995C9.34065 4.44904 9.17582 4.35313 8.98307 4.30441C8.56902 4.19595 8.10401 4.28739 7.70818 4.54735L7.51482 4.66887C7.34501 4.77337 7.1752 4.87916 7.03804 4.99414C6.65141 5.28934 6.40451 5.70338 6.35879 6.13058C6.33963 6.31663 6.36678 6.49366 6.4229 6.65858L6.15332 6.90711C6.00189 6.84094 5.83191 6.80312 5.626 6.80725C5.19623 6.81773 4.76259 7.03189 4.4478 7.38329C4.31589 7.52173 4.20219 7.6759 4.08858 7.83128L3.93965 8.0298C3.6497 8.39941 3.52689 8.85798 3.60398 9.28637C3.64033 9.49305 3.72936 9.67009 3.84469 9.82486C3.77826 9.93469 3.71905 10.0486 3.65675 10.1607C3.46175 10.1409 3.26092 10.1546 3.06446 10.2295C2.653 10.3836 2.32257 10.7219 2.16057 11.1491L1.86925 11.8897C1.71774 12.3403 1.74773 12.8171 1.95286 13.1985C2.04516 13.3688 2.17175 13.503 2.31535 13.6105C2.28776 13.7314 2.25132 13.8502 2.22718 13.9719C2.22692 13.973 2.22666 13.9743 2.2264 13.9754C2.04628 14.0088 1.87165 14.0746 1.71507 14.1887C1.36763 14.4394 1.13646 14.8549 1.08154 15.3107C1.04107 15.5837 1.01099 15.858 1.00317 16.1193C0.975753 16.596 1.12726 17.0467 1.41988 17.3562C1.55025 17.4945 1.70605 17.59 1.87217 17.6557C1.87389 17.7783 1.88205 17.9009 1.88549 18.0235C1.72771 18.0973 1.5817 18.1995 1.46035 18.3398C1.18346 18.6624 1.04889 19.1196 1.09727 19.6265L1.21354 20.3671C1.27885 20.823 1.51922 21.2227 1.8732 21.4643C2.04043 21.5784 2.22348 21.6365 2.40928 21.6655C2.43386 21.7731 2.46574 21.8783 2.49375 21.9848C1.99566 22.437 1.90568 23.2249 2.32514 23.8926C2.44666 24.0729 2.56551 24.257 2.68694 24.4621C2.98867 24.9545 3.49939 25.2353 3.99706 25.2353C4.19514 25.2353 4.38885 25.1829 4.56889 25.0899C4.63007 25.1269 4.69135 25.1623 4.74557 25.1909C4.79525 25.2183 4.84612 25.2445 4.89708 25.2771C4.96918 25.3235 5.05736 25.3523 5.13547 25.3924L5.13478 25.4156C5.13478 25.4181 5.1335 25.4208 5.1335 25.4234C5.12301 26.1431 5.7226 26.7518 6.54287 26.8393C6.76236 26.8576 6.98304 26.8772 7.21559 26.9085C7.28614 26.9164 7.35532 26.9203 7.4233 26.9203C8.02916 26.9203 8.54771 26.5877 8.77407 26.1008C8.9175 26.0995 9.06161 26.0951 9.2059 26.0889C9.27895 26.2493 9.38053 26.3978 9.52104 26.5205C9.80059 26.7648 10.1833 26.8994 10.6052 26.8994C10.6614 26.8994 10.7175 26.8968 10.775 26.8928L11.5104 26.804C11.9545 26.753 12.3555 26.5322 12.6089 26.1978C12.7284 26.0395 12.8 25.864 12.8399 25.6834L13.186 25.6246C13.2799 25.7773 13.4014 25.9146 13.5586 26.0215C13.8133 26.1966 14.1255 26.288 14.4494 26.288C14.5604 26.288 14.6727 26.2775 14.7851 26.2553L15.4982 26.1156C15.9332 26.0281 16.3147 25.7812 16.542 25.439C16.6447 25.284 16.7062 25.1149 16.7372 24.942L17.0635 24.8771C17.3197 25.2725 17.7953 25.5226 18.3223 25.5226C18.4268 25.5226 18.5339 25.5135 18.6424 25.4926L19.3464 25.3645C19.9932 25.2426 20.4614 24.7866 20.5841 24.2424C20.6949 24.2253 20.8059 24.2088 20.9169 24.193C21.1657 24.6344 21.6738 24.9269 22.2593 24.9269C22.309 24.9269 22.3586 24.9243 22.4095 24.9204L23.0809 24.8603C23.7133 24.8307 24.2351 24.4346 24.4329 23.9108C24.5348 23.908 24.6415 23.9177 24.7466 23.9192C24.9142 24.4215 25.3823 24.8226 25.9899 24.9218L26.5843 25.0184C26.7123 25.0537 26.8416 25.0707 26.9709 25.0707C27.4003 25.0707 27.8126 24.8796 28.0913 24.5672C28.1731 24.6011 28.2479 24.6413 28.3255 24.6776C28.2576 25.1693 28.4594 25.7036 28.9223 26.113C29.0373 26.1901 29.1443 26.3115 29.2919 26.4761C29.6263 26.7922 30.0338 26.9581 30.4296 26.9581C30.6304 26.9581 30.8245 26.9025 31.008 26.8154L31.2918 26.9758C31.0867 27.4214 31.0527 27.9452 31.2435 28.4381C31.3793 28.7869 31.6105 29.0795 31.907 29.2885C31.6653 30.1205 31.7215 31.4921 33.0995 32.797C33.4927 33.1693 33.8167 33.565 34.0635 33.9739C34.1157 34.0601 34.168 34.1607 34.2202 34.2704C34.3966 34.6479 34.5312 35.0724 34.5481 35.318C34.5481 35.3205 34.5729 35.6197 34.4592 35.8953C34.3783 36.0938 34.4226 36.3211 34.5729 36.4739C34.6748 36.5784 34.8132 36.6346 34.9542 36.6346C34.9809 36.6346 35.0066 36.624 35.033 36.6197C34.0671 39.2629 34.5173 41.4566 34.5402 41.5617C34.5937 41.8124 34.8145 41.9835 35.0614 41.9835C35.098 41.9835 35.1358 41.9796 35.1737 41.9718C35.4624 41.9104 35.6466 41.6269 35.5865 41.3382C35.5838 41.3246 35.4474 40.6108 35.5134 39.5454C35.659 40.3381 35.9013 41.1674 36.3219 41.9639C36.4173 42.1455 36.6028 42.25 36.7948 42.25C36.8797 42.25 36.9646 42.2291 37.0442 42.1873C37.3055 42.0501 37.406 41.7262 37.2676 41.465C36.7299 40.4465 36.5139 39.3423 36.4395 38.3758L37.3864 40.9242C37.4884 41.2011 37.7979 41.3422 38.0748 41.239C38.3517 41.1358 38.4928 40.8275 38.3896 40.5506L37.4726 38.0819C38.0213 38.8591 38.5451 39.827 38.784 40.9176C38.8389 41.1671 39.0596 41.3382 39.3065 41.3382C39.3444 41.3382 39.3823 41.3343 39.4215 41.3252C39.7102 41.2624 39.8931 40.9764 39.829 40.6878C39.6369 39.811 39.2878 39.0227 38.8882 38.324C39.6268 39.0967 39.9836 39.7298 39.9897 39.742C40.0863 39.9209 40.2718 40.0229 40.4612 40.0229C40.5474 40.0229 40.6336 40.002 40.7146 39.9588C40.9751 39.8204 41.0731 39.4964 40.9333 39.2365ZM34.1031 23.5566C34.0064 23.7878 33.9228 24.0151 33.8497 24.2241C33.7608 24.454 33.5584 24.6029 33.4148 24.5625L33.2384 24.5115C33.1901 24.4984 33.1587 24.4462 33.143 24.4161C33.0986 24.3247 33.0738 24.1653 33.1483 23.9746C33.2292 23.7448 33.3128 23.5187 33.4043 23.2981C33.4656 23.1465 33.5715 23.0263 33.6891 22.9767C33.7466 22.9519 33.7975 22.9506 33.8406 22.9662L34.0051 23.0341C34.1279 23.0838 34.1958 23.3268 34.1031 23.5566ZM35.4955 19.8326L35.2695 20.5511C35.2198 20.7026 35.1205 20.8267 35.0043 20.8816C34.9716 20.8972 34.9089 20.9221 34.8527 20.8999L34.6842 20.8346C34.5471 20.7823 34.4909 20.5354 34.568 20.3003L34.7744 19.6419C34.8475 19.4016 35.0213 19.2488 35.1741 19.2775L35.3517 19.3154C35.3557 19.3154 35.4522 19.4003 35.4562 19.4016C35.5099 19.4904 35.5491 19.6537 35.4955 19.8326ZM35.4733 15.4007L35.7581 15.4019C35.8456 15.466 35.9515 15.6175 35.9776 15.8082C35.9854 15.974 35.9841 16.1413 35.9841 16.3084L35.9854 16.5893C35.9906 16.7512 35.9371 16.8988 35.843 16.985C35.8038 17.0216 35.7621 17.0425 35.7267 17.0425C35.7228 17.0438 35.7189 17.0438 35.7071 17.0399L35.536 17.0229C35.3832 17.0059 35.25 16.7891 35.2396 16.5631L35.2317 15.8356C35.199 15.6122 35.3388 15.4254 35.4733 15.4007ZM34.3369 11.674L34.5027 11.5878C34.521 11.5787 34.5445 11.5734 34.5706 11.5734C34.5993 11.5734 34.6334 11.58 34.6673 11.593C34.7235 11.6139 34.8593 11.6832 34.9403 11.8947L35.2447 12.6275C35.327 12.8026 35.2761 12.9501 35.25 13.0051C35.2133 13.0847 35.1638 13.12 35.1455 13.1252C35.1402 13.1265 35.135 13.1278 35.1298 13.1292L34.9691 13.1762C34.7104 13.2415 34.5472 12.8797 34.525 12.8365L34.2755 12.2396C34.1841 11.9901 34.2141 11.7406 34.3369 11.674ZM32.2613 8.35094L32.3409 8.28692H32.341L32.3411 8.28683L32.401 8.23862C32.435 8.21121 32.4781 8.20468 32.5146 8.20468C32.533 8.20468 32.5499 8.20597 32.5629 8.20863C32.6845 8.22694 32.802 8.30918 32.8935 8.44634L33.3271 9.06156C33.4238 9.19743 33.4668 9.35023 33.4421 9.47037C33.4251 9.55132 33.3833 9.57744 33.3702 9.58535C33.369 9.58664 33.3677 9.58664 33.3677 9.58793L33.3103 9.62316H33.3102L33.3101 9.62325L33.2187 9.67937C33.0999 9.74863 32.8477 9.67026 32.7002 9.46779L32.3136 8.9153C32.1595 8.68146 32.162 8.43061 32.2613 8.35094ZM29.6398 5.44462L29.7548 5.29312C29.7769 5.26304 29.8319 5.24087 29.8945 5.23691C29.901 5.23691 29.9076 5.23562 29.9154 5.23562C29.9859 5.23562 30.127 5.2578 30.2759 5.41197L30.8271 5.93971C30.9342 6.05074 30.993 6.1879 30.9878 6.31586C30.9852 6.38641 30.963 6.44519 30.9264 6.47785L30.8651 6.52993C30.8643 6.53062 30.8633 6.53079 30.8625 6.53139C30.8617 6.53216 30.8614 6.53311 30.8605 6.5338L30.788 6.59533C30.6809 6.68548 30.4405 6.61097 30.259 6.42552L29.8044 5.99187C29.6463 5.82344 29.5404 5.57783 29.6398 5.44462ZM26.4133 3.22013C26.4578 3.19925 26.5204 3.1849 26.5949 3.1849C26.672 3.1849 26.7634 3.20054 26.8601 3.23973C26.9503 3.2802 27.043 3.31681 27.1357 3.35333C27.2651 3.40301 27.3944 3.4513 27.5276 3.52839C27.7301 3.63942 27.8306 3.78835 27.8581 3.89148C27.8699 3.93591 27.8686 3.97114 27.8529 3.99598C27.8516 3.99726 27.8503 3.99993 27.8503 4.00122L27.7589 4.15144C27.6818 4.27553 27.4519 4.33302 27.2612 4.2311C27.111 4.14095 26.9477 4.07564 26.7831 4.01299L26.5767 3.92937C26.3546 3.83923 26.2331 3.60934 26.275 3.47743L26.4133 3.22013ZM22.5378 2.32277C22.6057 2.26528 22.735 2.20916 22.9179 2.20916C22.948 2.20916 22.9793 2.21045 23.0119 2.21441C23.1504 2.22223 23.2888 2.2523 23.426 2.27843L23.6938 2.3281C23.9093 2.36987 24.0425 2.47308 24.0947 2.55669C24.1339 2.61676 24.1248 2.65466 24.1196 2.6703C24.1196 2.67159 24.1196 2.67159 24.1196 2.67288L24.1044 2.73605C24.1039 2.73733 24.103 2.73819 24.1026 2.73948C24.102 2.74146 24.1027 2.74344 24.1021 2.74533L24.0777 2.84656C24.0425 2.98243 23.8152 3.11305 23.5644 3.06209L23.3502 3.02291C23.1817 2.98767 23.0131 2.9563 22.8603 2.94711C22.6134 2.92356 22.4515 2.74988 22.4606 2.61144L22.5378 2.32277ZM18.5813 2.27181C18.6217 2.22609 18.7367 2.11764 18.9575 2.10982L19.7204 2.07063C19.7347 2.07063 19.7491 2.06934 19.7635 2.06934C19.8928 2.06934 20.0156 2.11377 20.0992 2.19344C20.1475 2.23916 20.1775 2.29269 20.1763 2.33188C20.1763 2.33317 20.1763 2.33446 20.1763 2.33584L20.175 2.51347C20.171 2.6807 19.9307 2.79955 19.7178 2.81786L19.0398 2.85309C18.7799 2.85962 18.5565 2.74988 18.5396 2.60748L18.529 2.50651C18.5289 2.50573 18.5293 2.50505 18.5292 2.50427C18.5291 2.50367 18.5287 2.50333 18.5286 2.50273L18.52 2.42066C18.5147 2.38026 18.5382 2.32277 18.5813 2.27181ZM14.6457 2.96017C14.6953 2.87526 14.8194 2.76552 15.0087 2.7198L15.2843 2.65191C15.4255 2.61668 15.5652 2.58007 15.7154 2.55523C15.7624 2.54612 15.8081 2.54217 15.8513 2.54217C15.9897 2.54217 16.0995 2.58265 16.1635 2.62837C16.2105 2.66102 16.2366 2.69626 16.2419 2.73416L16.2432 2.73544L16.2706 2.91308C16.2927 3.05023 16.1347 3.23569 15.8983 3.27883C15.739 3.30495 15.5808 3.34543 15.4228 3.38462L15.1811 3.4434C14.9382 3.50613 14.7083 3.3951 14.6717 3.26705L14.6234 3.092C14.6221 3.0908 14.6457 2.96155 14.6457 2.96017ZM11.2299 3.92946C11.3618 3.86673 11.499 3.81714 11.6361 3.76747L11.8869 3.67474C11.9783 3.6408 12.0619 3.62773 12.1351 3.62773C12.216 3.62773 12.284 3.64337 12.331 3.66692C12.4042 3.70216 12.4185 3.7453 12.4225 3.75965C12.4237 3.76094 12.4237 3.7636 12.425 3.76489L12.4483 3.8351C12.4487 3.83605 12.4482 3.83708 12.4486 3.83802C12.4488 3.8388 12.4495 3.83905 12.4498 3.83983L12.4799 3.93075C12.5217 4.06137 12.3911 4.28215 12.1494 4.37221L11.9326 4.45187C11.7759 4.50937 11.6178 4.56686 11.482 4.63217C11.2599 4.73014 11.0209 4.66483 10.9595 4.54073L10.885 4.24812C10.9216 4.15144 11.0274 4.01823 11.2299 3.92946ZM7.70311 5.83126C7.81939 5.73587 7.94872 5.65887 8.0754 5.58049L8.29617 5.44076C8.40591 5.36891 8.52476 5.32973 8.62926 5.32973C8.66063 5.32973 8.69062 5.33368 8.71941 5.3415C8.77424 5.35456 8.81214 5.38069 8.83173 5.4173C8.83302 5.41987 8.83431 5.42254 8.83568 5.42383L8.91801 5.57405C8.98332 5.69556 8.89713 5.93584 8.68418 6.07695L8.51179 6.18541C8.36028 6.27813 8.21006 6.37223 8.09507 6.4702C7.90696 6.61389 7.65877 6.5943 7.56733 6.4898L7.42365 6.24161C7.43404 6.13823 7.50975 5.98019 7.70311 5.83126ZM4.78107 8.69057L4.95217 8.46198C5.03836 8.34441 5.12327 8.22556 5.2343 8.10929C5.38452 7.94205 5.54909 7.87941 5.6523 7.87674C5.65488 7.87674 5.65754 7.87674 5.65883 7.87674C5.72414 7.87674 5.74632 7.89891 5.75422 7.90682C5.75551 7.90811 5.7568 7.9094 5.75818 7.91077L5.88227 8.03358C5.98677 8.13937 5.99072 8.38231 5.8405 8.54826C5.72165 8.66977 5.62239 8.80555 5.52305 8.94271L5.39638 9.11381C5.24092 9.30846 5.00579 9.39594 4.88307 9.32152L4.80186 9.27022C4.80143 9.26996 4.80118 9.26944 4.80083 9.26927C4.8004 9.26901 4.80006 9.2691 4.79971 9.26884L4.72383 9.22089C4.67811 9.19219 4.66247 9.1255 4.65723 9.09808C4.63351 8.97141 4.68052 8.81862 4.78107 8.69057ZM2.87403 12.2565L3.15882 11.5355C3.21365 11.3906 3.31953 11.2769 3.44225 11.2299C3.47886 11.2168 3.51014 11.2115 3.53626 11.2115C3.55714 11.2115 3.57416 11.2155 3.58593 11.2207C3.58722 11.2219 3.58989 11.2232 3.59118 11.2246L3.74921 11.3043C3.90596 11.3866 3.90992 11.6491 3.83541 11.8464L3.5794 12.4982C3.50627 12.7163 3.31033 12.8627 3.16536 12.8261L2.895 12.6902C2.84532 12.5975 2.81653 12.4289 2.87403 12.2565ZM2.14253 15.4542C2.16736 15.2491 2.26138 15.1133 2.34242 15.0545C2.38685 15.0231 2.42079 15.0166 2.44296 15.0166C2.45998 15.0166 2.46651 15.0166 2.47304 15.0206L2.64285 15.0519C2.78001 15.0793 2.91193 15.2936 2.88451 15.5235C2.84661 15.7704 2.8192 16.0172 2.81396 16.2497C2.80089 16.4901 2.6285 16.6768 2.49393 16.6768L2.19744 16.6206C2.12818 16.5475 2.059 16.3946 2.07206 16.1674C2.07988 15.9336 2.10463 15.7011 2.14253 15.4542ZM2.80089 20.5798L2.69562 20.6033C2.69545 20.6034 2.69528 20.6032 2.69511 20.6033L2.69476 20.6035L2.61931 20.6203C2.55657 20.636 2.5057 20.6007 2.47691 20.5811C2.37241 20.5093 2.29661 20.3721 2.27315 20.2076L2.15954 19.4931C2.13866 19.2776 2.20397 19.1169 2.27186 19.0386C2.3071 18.9968 2.30847 18.9824 2.38032 18.9758L2.55537 18.9641C2.55795 18.9641 2.5619 18.9641 2.56448 18.9641C2.70559 18.9641 2.87274 19.126 2.89886 19.4004L3.00336 20.0678C3.03731 20.3107 2.94192 20.5471 2.80089 20.5798ZM4.23382 24.053L4.0836 24.1445C3.97257 24.215 3.73486 24.1236 3.60424 23.9106C3.47757 23.6951 3.34557 23.4926 3.22156 23.3097C3.09093 23.1007 3.08698 22.8538 3.20978 22.7559L3.35743 22.6461C3.39661 22.6174 3.45668 22.6213 3.49063 22.6278C3.59118 22.6448 3.73228 22.7218 3.84203 22.8956C3.97661 23.0981 4.10852 23.2979 4.22995 23.5043C4.31614 23.6454 4.3488 23.8022 4.31881 23.9249C4.303 23.9851 4.27558 24.0282 4.23382 24.053ZM7.83503 25.6166C7.81801 25.7472 7.60514 25.8687 7.35171 25.8464C7.10353 25.8138 6.86711 25.7916 6.64376 25.7746C6.40082 25.7485 6.20359 25.5995 6.20488 25.4415L6.21012 25.2573C6.21012 25.2077 6.25189 25.1633 6.27672 25.1411C6.35252 25.0745 6.50789 25.0117 6.7065 25.0313C6.94815 25.0509 7.18586 25.0731 7.42622 25.1057C7.58693 25.1241 7.72924 25.1959 7.80761 25.2964C7.8468 25.3447 7.86244 25.3931 7.85729 25.4414L7.83503 25.6166ZM11.7563 25.5512C11.6805 25.6518 11.542 25.7236 11.3853 25.7407L10.6668 25.8281C10.4631 25.8425 10.3011 25.7811 10.2254 25.7145C10.164 25.661 10.1626 25.6179 10.1614 25.6035C10.1614 25.6022 10.1614 25.6009 10.1614 25.5995L10.1509 25.4245C10.1443 25.286 10.3246 25.1097 10.5885 25.0874L11.2755 25.0025C11.303 25 11.3291 24.9986 11.3552 24.9986C11.5694 24.9986 11.7588 25.094 11.7784 25.2206L11.793 25.3131C11.7933 25.315 11.7924 25.3167 11.7928 25.3186C11.793 25.3196 11.794 25.3201 11.7942 25.3211L11.8071 25.4035C11.8164 25.4624 11.7798 25.5212 11.7563 25.5512ZM15.6515 24.8459C15.5809 24.953 15.4451 25.034 15.291 25.0654L14.5791 25.2051C14.4249 25.239 14.2681 25.2116 14.1623 25.1385C14.1257 25.1137 14.0814 25.0732 14.0709 25.0184C14.0709 25.0171 14.0709 25.0171 14.0709 25.0158L14.0564 24.9385C14.0561 24.9368 14.0569 24.9352 14.0566 24.9334C14.0561 24.9312 14.0548 24.9297 14.0543 24.9275L14.0383 24.842C14.0161 24.7101 14.1754 24.5246 14.4392 24.4723L15.1446 24.3351C15.189 24.326 15.2335 24.3221 15.2765 24.3221C15.4764 24.3221 15.6331 24.4135 15.6541 24.5206L15.6711 24.6038C15.6713 24.6052 15.6707 24.6066 15.6711 24.6081C15.6712 24.6089 15.6723 24.6095 15.6724 24.6104L15.6907 24.6995C15.7011 24.7544 15.6749 24.8106 15.6515 24.8459ZM19.1508 24.3117L18.4455 24.441C18.1882 24.488 17.9661 24.3797 17.94 24.2477L17.923 24.1634C17.9227 24.1623 17.9232 24.1612 17.923 24.1602C17.9227 24.1591 17.922 24.1583 17.9218 24.1572L17.9047 24.0727C17.8929 24.0165 17.9203 23.9617 17.9451 23.9264C18.0157 23.8194 18.1529 23.7383 18.3044 23.7083L19.0267 23.5777C19.1834 23.5476 19.3349 23.5751 19.4394 23.6495C19.4695 23.6704 19.5204 23.7136 19.5296 23.7723L19.544 23.8652C19.5442 23.8659 19.5438 23.8669 19.5439 23.8676C19.544 23.8681 19.5445 23.8684 19.5446 23.8688L19.557 23.9486C19.578 24.0804 19.4147 24.262 19.1508 24.3117ZM23.0094 23.7931L22.3183 23.8544C22.0727 23.8701 21.8442 23.7643 21.8246 23.6167L21.8011 23.4391C21.7933 23.3803 21.8312 23.3228 21.8546 23.2941C21.9343 23.1948 22.0754 23.1269 22.2347 23.1138L22.9557 23.0485C23.1738 23.0432 23.3202 23.1073 23.4521 23.2941L23.4561 23.4704C23.4587 23.6089 23.2733 23.78 23.0094 23.7931ZM27.3815 23.6882C27.3814 23.6884 27.3813 23.6884 27.3813 23.6886C27.3812 23.6888 27.3813 23.689 27.3812 23.6892L27.3473 23.7852C27.2951 23.925 27.0743 24.04 26.8144 23.9746L26.1652 23.8662C25.9249 23.827 25.7368 23.6703 25.7434 23.5161L25.7539 23.3319C25.7551 23.298 25.7839 23.2548 25.8297 23.2169C25.9316 23.1333 26.0896 23.0981 26.2464 23.1242L26.9752 23.2457C27.2103 23.3071 27.3475 23.4325 27.4036 23.6258L27.3815 23.6882ZM30.72 25.755L30.5763 25.849C30.3909 25.9692 30.144 25.8073 30.0604 25.7327C29.9219 25.576 29.7495 25.3788 29.5783 25.2703C29.4321 25.1397 29.3249 24.9137 29.4059 24.7465L29.6006 24.5284C29.6503 24.5232 29.8305 24.5023 30.0721 24.7087C30.2615 24.8459 30.4313 25.03 30.6103 25.2286C30.7304 25.3487 30.7931 25.4989 30.7775 25.6322L30.72 25.755ZM31.7556 26.0082C31.7838 25.9222 31.8302 25.8461 31.8407 25.7524C31.893 25.29 31.7192 24.8224 31.3875 24.4933C31.1903 24.2725 30.9734 24.04 30.7344 23.8702C30.349 23.5358 29.8605 23.3896 29.4085 23.4758C29.1984 23.5142 29.0185 23.6092 28.8637 23.731C28.7329 23.6673 28.6034 23.6079 28.4725 23.5542C28.4676 23.375 28.4302 23.1963 28.3427 23.0278C28.1403 22.6386 27.7406 22.3407 27.2011 22.201L26.4187 22.0678C25.9524 21.9934 25.4912 22.1122 25.1543 22.3878C24.9942 22.5187 24.8825 22.6789 24.8025 22.8509C24.6777 22.8487 24.5557 22.8404 24.4265 22.8398C24.3593 22.6774 24.263 22.5259 24.1276 22.3983C23.8219 22.1096 23.3895 21.9607 22.8815 21.9816L22.1422 22.0482C21.6928 22.0861 21.2853 22.2951 21.0215 22.6229C20.8966 22.7782 20.82 22.9526 20.7755 23.1331C20.6591 23.1495 20.5429 23.1666 20.4265 23.1845C20.3346 23.0283 20.2148 22.8868 20.0575 22.7757C19.7153 22.5328 19.2659 22.4426 18.8323 22.525L18.1073 22.6569C17.6697 22.7418 17.287 22.986 17.0571 23.3283C16.9528 23.4837 16.8903 23.6529 16.8586 23.8263L16.5141 23.8948C16.2027 23.4229 15.5842 23.1564 14.9384 23.2853L14.2331 23.4224C13.5812 23.5528 13.1171 24.0189 13.0055 24.5697L12.6645 24.6276C12.3808 24.1626 11.7979 23.8816 11.1517 23.9397L10.479 24.0233C9.84743 24.0754 9.33928 24.4892 9.16027 25.0201C9.05629 25.0244 8.95222 25.0193 8.84814 25.0217C8.80157 24.8877 8.74322 24.7559 8.65152 24.6385C8.39809 24.3132 7.99711 24.0964 7.5608 24.0442C7.31132 24.0102 7.05265 23.9854 6.80584 23.9671C6.33954 23.9174 5.89146 24.0533 5.56757 24.3406C5.54823 24.3578 5.54075 24.3816 5.52271 24.3997C5.50861 24.3912 5.48971 24.3859 5.47621 24.3773C5.42336 24.3427 5.3669 24.3128 5.31104 24.2821C5.32316 24.2463 5.34808 24.2186 5.35736 24.1813C5.45662 23.7816 5.37825 23.3323 5.14836 22.9548C5.02032 22.7393 4.878 22.5212 4.74085 22.3148C4.49266 21.9216 4.10732 21.6512 3.6815 21.5754C3.61661 21.5631 3.5562 21.5805 3.49226 21.5779C3.48032 21.5277 3.46433 21.4787 3.45307 21.4284C3.8972 21.1237 4.15157 20.5482 4.06289 19.9114L3.96096 19.2701C3.90373 18.6458 3.48599 18.1495 2.95378 17.9733C2.95111 17.8647 2.94432 17.7562 2.94269 17.6477C3.45565 17.444 3.84787 16.9236 3.88259 16.2919C3.88783 16.0882 3.91267 15.8857 3.94532 15.6689C4.01957 15.0506 3.73916 14.4799 3.27604 14.186C3.27621 14.1852 3.27639 14.1845 3.27656 14.1837C3.2971 14.0807 3.32718 13.9801 3.34978 13.8777C3.89299 13.8177 4.39297 13.4353 4.5841 12.8645L4.83357 12.2309C5.05426 11.6445 4.95105 11.0473 4.6055 10.6513C4.65543 10.5623 4.70278 10.4718 4.75571 10.3845C4.83168 10.3977 4.90714 10.4145 4.98508 10.414C5.43703 10.414 5.90599 10.1907 6.23384 9.78051L6.39188 9.56894C6.45977 9.47355 6.52775 9.37824 6.62176 9.28027C7.03151 8.82781 7.11788 8.18964 6.8959 7.67908L7.13335 7.4602C7.33564 7.56711 7.55556 7.63835 7.79077 7.63835C8.12644 7.63835 8.4726 7.52861 8.7665 7.30397C8.85923 7.2243 8.96502 7.16286 9.06952 7.09892L9.27594 6.96958C9.79071 6.6285 10.0505 6.05186 9.98707 5.51355C10.0827 5.46284 10.1806 5.4173 10.2767 5.36754C10.5354 5.60687 10.8859 5.74695 11.2614 5.74695C11.4835 5.74695 11.7108 5.70123 11.9302 5.60455C12.0478 5.54706 12.1706 5.50401 12.2947 5.45958L12.5324 5.37209C13.1228 5.1508 13.5044 4.61894 13.5412 4.06387L13.8526 3.96839C14.121 4.31841 14.5667 4.53223 15.043 4.53223C15.1696 4.53223 15.299 4.51787 15.427 4.48651L15.6857 4.42248C15.815 4.38983 15.9443 4.35717 16.0814 4.33362C16.7122 4.21976 17.1786 3.75398 17.2995 3.20612C17.4068 3.19194 17.5131 3.17218 17.6212 3.16015C17.8656 3.62009 18.3867 3.92344 19.0243 3.92344C19.0439 3.92344 19.0622 3.92216 19.0818 3.92216L19.7898 3.88555C20.4352 3.83252 20.9384 3.47141 21.1412 2.97633C21.2482 2.97693 21.3545 2.98578 21.4615 2.9893C21.6289 3.52598 22.1323 3.95309 22.7797 4.01488C22.9012 4.02141 23.0201 4.04754 23.139 4.07109L23.3793 4.1168C23.4812 4.1364 23.5818 4.14551 23.681 4.14551C24.1818 4.14551 24.6484 3.90858 24.9173 3.5308L25.2129 3.61562C25.2487 4.15994 25.6082 4.68958 26.1563 4.91491C26.2373 4.95014 26.3196 4.98151 26.4019 5.01287C26.5077 5.05335 26.6149 5.09125 26.7272 5.15785C26.961 5.28848 27.2183 5.34983 27.4705 5.34983C27.7914 5.34983 28.098 5.24121 28.3464 5.05223C28.4256 5.10869 28.5106 5.15587 28.5884 5.21431C28.4483 5.70467 28.6 6.27023 29.0445 6.74486L29.5082 7.18769C29.8439 7.5299 30.2671 7.70624 30.6681 7.70624C30.8139 7.70624 30.9563 7.6808 31.0915 7.63362L31.2985 7.87958C31.0419 8.34338 31.0708 8.97227 31.4283 9.5166L31.8293 10.0887C32.1467 10.5289 32.6365 10.7745 33.112 10.7745C33.1847 10.7745 33.2553 10.7581 33.3267 10.7465L33.4821 11.0239C33.1479 11.4174 33.0547 12.0121 33.2791 12.6293L33.5508 13.2771C33.829 13.8491 34.2886 14.1848 34.7934 14.2335C34.822 14.3312 34.8485 14.4256 34.8724 14.5189C34.3876 14.802 34.0845 15.3634 34.1661 15.9131L34.1701 16.5924C34.1991 17.195 34.5157 17.6999 34.9725 17.9416C34.9612 18.0389 34.9393 18.1347 34.9244 18.2315C34.3916 18.3185 33.9334 18.7245 33.7521 19.3275L33.5496 19.9741C33.3494 20.5872 33.516 21.2112 33.9185 21.582C33.8772 21.6856 33.838 21.7901 33.7957 21.8932C33.6201 21.8911 33.4429 21.9198 33.2726 21.9909C32.8925 22.1516 32.579 22.482 32.4144 22.8935C32.3178 23.1246 32.229 23.369 32.1454 23.6027C31.9781 24.0363 31.9926 24.5066 32.1859 24.8945C32.2794 25.0816 32.416 25.225 32.5713 25.3409C32.5667 25.3779 32.5624 25.4127 32.5568 25.4614C32.545 25.5672 32.5235 25.7407 32.4948 25.9599C32.4344 25.9767 32.3735 25.9869 32.3139 26.0101C32.2099 26.0505 32.1144 26.1028 32.0221 26.1588L31.7556 26.0082ZM35.6183 35.2669C35.617 35.2473 35.6157 35.2343 35.6157 35.229C35.5765 34.6804 35.28 34.009 35.1899 33.817C35.1899 33.8157 35.1886 33.8144 35.1886 33.813C35.118 33.6654 35.0475 33.5322 34.9796 33.4186C34.6831 32.93 34.2991 32.4598 33.8366 32.0209C32.3527 30.6154 33.0059 29.3954 33.0516 29.3131C33.1365 29.172 33.1521 28.9996 33.0934 28.8468C33.0346 28.6926 32.9079 28.575 32.7511 28.5268C32.5173 28.4536 32.3306 28.2799 32.2417 28.05C32.081 27.6359 32.2861 27.1683 32.7002 27.0076C32.7956 26.971 32.8935 26.9528 32.9915 26.9528C33.3141 26.9528 33.6198 27.1487 33.7439 27.4661C33.8328 27.696 33.8132 27.9507 33.6891 28.1637C33.6081 28.3021 33.6198 28.4785 33.676 28.6287C33.7335 28.7802 33.8798 28.9043 34.0326 28.9552C34.0888 28.9735 35.3937 29.4333 35.2487 31.471C35.203 32.1018 35.237 32.708 35.3493 33.2749C35.4564 33.8104 35.7673 34.6177 36.0926 35.0252C36.0978 35.0317 36.1096 35.0473 36.1265 35.0696L35.6183 35.2669Z" stroke="#FFD699" stroke-width="2" mask="url(#path-1-outside-1_330_204)"/>
</svg>
