<svg width="36" height="45" viewBox="0 0 36 45" fill="none" xmlns="http://www.w3.org/2000/svg">
<mask id="path-1-outside-1_330_286" maskUnits="userSpaceOnUse" x="-1" y="0" width="37" height="45" fill="black">
<rect fill="white" x="-1" width="37" height="45"/>
<path d="M11.7692 2.66909C11.6594 2.61373 11.5434 2.57185 11.4236 2.54436C11.2511 2.48071 11.0661 2.45838 10.8835 2.47917C10.7008 2.49996 10.5255 2.5633 10.3718 2.66409C10.3303 2.69921 10.2941 2.74028 10.2646 2.78595C10.2742 2.79346 10.2864 2.80061 10.2889 2.80311C10.3472 2.82261 10.4069 2.83731 10.4676 2.84707C10.7794 2.88126 11.0949 2.86144 11.4 2.78846C11.5275 2.7642 11.6516 2.7241 11.7692 2.66909ZM33.5812 22.9126C34.3317 23.7939 33.9568 25.5729 33.3689 26.615C33.0758 28.5356 32.0216 29.9608 30.5402 31.1859C29.9205 31.6984 29.2054 32.0912 28.5929 32.6155C27.8363 33.2587 28.1243 34.016 28.3806 34.8705C28.9295 36.6789 29.6314 38.6727 29.6082 40.5811C29.5957 41.7112 29.2347 42.7458 28.1429 43.2615C25.9783 44.2814 23.0913 43.8887 20.8656 43.2418C18.7943 42.6007 16.803 41.7254 14.9302 40.6329C13.2805 39.708 11.4965 38.9443 10.3082 37.4094C10.3035 37.4031 10.2994 37.3966 10.2957 37.3897C10.2469 37.36 10.2057 37.3194 10.1752 37.2711C10.1448 37.2228 10.126 37.1681 10.1202 37.1113C9.99548 36.0963 10.3618 35.5789 10.7635 34.7026C11.3174 33.5021 11.0051 31.5665 10.7463 30.3196C10.4361 28.8358 9.94831 27.1811 8.85472 26.0668C8.10422 25.3056 7.17503 24.7659 6.44383 23.9851C6.40539 23.9481 6.37641 23.9025 6.35937 23.8519C6.34232 23.8014 6.3377 23.7476 6.34591 23.6949C6.33833 23.6462 6.33918 23.5967 6.34841 23.5483C6.37307 23.4115 6.38415 23.2532 6.40202 23.0945C5.89704 22.8575 5.3942 22.6159 4.88922 22.3769C4.81664 22.3469 4.75849 22.29 4.72702 22.2181C4.69556 22.1462 4.69323 22.0648 4.72054 21.9912C4.71269 21.9602 4.70861 21.9282 4.70839 21.8962C4.77506 20.9714 4.74992 20.0423 4.63334 19.1225C3.81219 18.6968 3.17251 17.9888 2.83214 17.1287C2.14633 15.5155 2.03661 13.8219 1.978 12.0896C1.89973 9.81242 1.62419 7.54519 1.59953 5.26368C0.945528 4.78014 0.735746 4.05787 1.43371 2.95964C1.46187 2.91305 1.50063 2.87375 1.54683 2.84493C1.59302 2.81612 1.64537 2.79861 1.6996 2.79382C2.37076 2.0837 3.35427 2.29098 4.49646 2.21772C6.88901 2.09699 9.27312 1.84489 11.638 1.46257C12.5629 1.30175 13.4732 0.974749 14.4227 1.00155C15.5554 1.00525 16.682 1.16642 17.7703 1.48044C18.9833 1.87356 19.3224 2.70054 19.0637 3.91349C19.0553 3.97236 19.0298 4.02747 18.9903 4.07196C18.9509 4.11644 18.8992 4.14833 18.8417 4.16366C18.747 4.24005 18.6485 4.31161 18.5465 4.37809C18.5708 4.62432 18.5823 4.87091 18.5976 5.12001C19.1013 4.68491 19.6561 4.31287 20.2498 4.01213C22.4827 2.90925 27.5322 2.17197 28.169 5.6425C28.7183 8.63199 27.1076 12.1658 25.4651 14.7407C26.3781 14.3993 27.3165 14.1299 28.2716 13.9352C29.5285 13.6961 31.5759 13.2129 32.4401 14.4305C32.4554 14.453 32.4685 14.4769 32.479 14.502C32.5261 14.554 32.5523 14.6216 32.5528 14.6918C32.5533 14.762 32.5279 14.8299 32.4815 14.8826C31.4004 16.2882 29.6939 16.9554 28.0471 17.4693C26.6341 17.911 25.2381 18.3985 23.8422 18.8824C25.6573 19.2273 27.4304 19.7649 29.1314 20.4859C30.6342 21.1042 32.4912 21.6339 33.5812 22.9126ZM33.2492 24.4232C33.2855 24.1973 33.2674 23.9661 33.1966 23.7486C33.1257 23.5311 33.0041 23.3335 32.8418 23.1724C31.5409 22.067 29.7397 21.4813 28.1601 20.8784C26.3389 20.148 24.4308 19.6567 22.4834 19.4167C22.4447 19.4115 22.4069 19.4008 22.3712 19.3849C21.8587 19.5582 21.3488 19.729 20.8345 19.8898C20.785 19.9059 20.7327 19.9118 20.6808 19.907C19.3276 20.2355 17.9572 20.4889 16.5759 20.6661C15.1189 20.8541 13.5886 20.8369 12.1487 21.1174C11.6216 21.3029 11.0766 21.4323 10.548 21.6081C11.0751 22.5941 13.1079 22.9722 14.0328 23.3164C15.3387 23.8021 16.6345 24.3024 17.9719 24.6977C20.8127 25.5325 23.6703 26.1744 26.6451 26.2083C28.0032 26.2255 29.4102 26.3892 30.7454 26.0329C31.5759 25.807 32.8353 25.1994 33.2477 24.4232H33.2492ZM32.7806 26.1269C32.9166 25.8115 33.0299 25.4869 33.1198 25.1555C32.6531 25.6573 32.0609 26.0254 31.4044 26.2219C29.9498 26.6661 28.5539 26.5954 27.0529 26.5793C25.414 26.5789 23.7786 26.4287 22.1672 26.1304C18.6391 25.4335 15.3419 24.1563 11.9743 22.9412C11.1166 22.6288 10.4733 22.3897 10.1159 21.5259C9.76711 20.6861 8.35153 20.3373 7.57851 20.12C6.8734 19.9224 6.16079 19.7737 5.44066 19.6443C5.49677 20.3691 5.45281 21.0989 5.44316 21.8283C12.1977 25.0572 19.4929 28.5031 27.144 28.4152C28.4764 28.4005 29.9723 28.3251 31.1756 27.6832C31.8725 27.3631 32.4385 26.8138 32.7792 26.1269H32.7806ZM32.2446 27.878C32.2385 27.8754 32.2328 27.8722 32.2274 27.8684C31.5174 28.3903 30.6965 28.7414 29.8287 28.8944C25.9654 29.6363 21.7161 28.8229 17.9994 27.7376C16.7353 27.3666 15.4906 26.9442 14.258 26.4867C14.3873 26.8799 14.5339 27.3141 14.7143 27.7679C14.9746 28.4347 15.3232 29.0634 15.7507 29.6374C15.863 29.7911 16.0009 29.9376 16.1217 30.0863L16.2096 30.1888L16.3047 30.2864C16.3704 30.35 16.4265 30.4183 16.4973 30.4744C16.7611 30.7185 17.0491 30.9283 17.3193 31.1359C17.5895 31.3435 17.8554 31.5408 18.0952 31.7531C18.2149 31.8632 18.3074 31.9507 18.4197 32.073C18.6053 32.2839 18.7443 32.5318 18.8274 32.8002C18.8549 32.9142 18.8745 33.0299 18.886 33.1465C18.9 33.3269 18.8991 33.5081 18.8835 33.6883C18.8614 33.9814 18.8299 34.14 18.8031 34.14C18.7763 34.14 18.7492 33.9789 18.7249 33.6908C18.7122 33.5188 18.6894 33.3477 18.6566 33.1783C18.6377 33.0774 18.6115 32.9779 18.5783 32.8806C18.5357 32.7755 18.4826 32.6749 18.4197 32.5804C18.3523 32.4755 18.2747 32.3774 18.1881 32.2877C18.1027 32.2095 17.9758 32.0973 17.8664 32.0068C17.6395 31.8281 17.3786 31.6384 17.0977 31.4432C16.7962 31.2363 16.5061 31.0131 16.2289 30.7746C16.1532 30.716 16.086 30.6402 16.0145 30.572L15.9098 30.4647L15.8097 30.35C15.685 30.201 15.5535 30.0641 15.4337 29.8983C14.9766 29.2924 14.615 28.6199 14.3616 27.9045C14.1793 27.3945 14.0229 26.8756 13.8931 26.3499C11.5869 25.4739 9.33182 24.4682 7.09641 23.4215C7.0914 23.4751 7.08676 23.5287 7.07925 23.5848C7.90123 24.4068 8.95372 24.9639 9.66383 25.901C10.5048 27.0305 11.0861 28.3317 11.3664 29.7117C11.6684 31.1256 11.7825 32.5731 11.7055 34.0167C11.6423 35.1028 10.8053 35.8008 10.8368 36.904C12.0451 38.4561 13.9167 39.227 15.5899 40.1669C17.3534 41.2087 19.2441 42.0184 21.2151 42.5757C23.0846 43.0588 26.8135 43.8715 28.3463 42.2265C29.5764 40.9063 28.5757 38.1631 28.1558 36.6478C27.8727 35.6178 27.0576 34.1168 27.3695 33.0261C27.4411 32.7885 27.5629 32.569 27.7269 32.3828C27.486 32.4573 27.2407 32.517 26.9925 32.5615C26.687 32.6127 26.3771 32.6323 26.0676 32.6201C25.5315 32.5933 25.2378 32.4771 25.2378 32.43C25.2428 32.3664 25.5723 32.3785 26.0597 32.3299C26.3482 32.2989 26.6346 32.2512 26.9175 32.187C27.2629 32.1051 27.6029 32.0015 27.9353 31.8767C28.2816 31.7427 28.6014 31.5908 28.892 31.445C29.2068 31.2424 29.5192 31.0519 29.7679 30.8639C30.842 30.1033 31.6964 29.0729 32.2449 27.8766L32.2446 27.878ZM27.1733 15.4472C28.54 15.1081 30.1239 14.5538 31.5566 14.5809C30.7904 14.1367 29.0796 14.5052 28.4671 14.6396C27.534 14.8473 26.6159 15.1171 25.7188 15.4472C24.1181 16.0305 22.5513 16.7138 20.9235 17.2263C18.2485 18.0708 15.259 18.5711 12.97 20.264C13.7144 20.1883 14.466 20.1614 15.2125 20.0932C15.923 19.2952 17.0748 19.0364 18.0755 18.7852C19.653 18.3383 21.1889 17.7559 22.6661 17.0444C24.119 16.3814 25.6272 15.847 27.1733 15.4472ZM30.9123 15.3715C31.0488 15.2285 31.1832 15.0884 31.3197 14.9469C29.8726 14.9826 28.1962 15.5377 26.8524 15.9086C25.2162 16.3873 23.6187 16.9893 22.0735 17.7095C20.9127 18.2647 19.7058 18.7178 18.4665 19.0639C17.5952 19.2837 16.5702 19.4692 15.8308 20.0256C17.4209 19.838 18.9987 19.5569 20.5557 19.1837C20.5924 19.1747 20.6303 19.1715 20.6679 19.174C22.7886 18.5028 24.8532 17.668 26.9839 17.0297C28.2576 16.6466 29.7147 16.2538 30.8436 15.4605C30.8567 15.4244 30.8807 15.3933 30.9123 15.3715ZM26.8488 10.0855C27.2345 8.97507 27.6151 7.77678 27.5493 6.58312C27.5477 6.18037 27.4564 5.78303 27.2819 5.42001C27.1075 5.057 26.8543 4.73744 26.5408 4.48458C25.9028 4.34482 25.2417 4.34898 24.6056 4.49674C26.0622 5.08248 26.2745 7.11562 25.7939 8.59446C25.2814 10.1759 24.2174 11.5915 23.4462 13.0556C22.8941 14.2048 22.2164 15.2892 21.4256 16.2892C21.5328 16.2535 21.6425 16.2178 21.7526 16.177C22.6103 15.8622 23.4609 15.5109 24.32 15.1738C24.3309 15.141 24.3464 15.1098 24.3661 15.0813C25.4039 13.529 26.2383 11.85 26.8488 10.0855ZM24.6688 10.093C25.5133 8.59446 26.7263 4.74833 23.7439 4.70187C23.7414 4.69937 23.7414 4.69937 23.7389 4.69937C23.4852 4.76763 23.2607 4.83839 23.0799 4.897C21.4524 5.42914 20.3027 6.33224 19.0948 7.54984C17.4955 9.10402 16.2053 10.9473 15.2926 12.982C14.7565 14.2329 14.2562 15.4883 13.689 16.7281C13.2548 17.6848 12.5883 18.7366 12.386 19.7958C14.7679 17.9653 17.8479 17.4261 20.6958 16.5305C22.4731 14.8286 23.4859 12.1965 24.6695 10.093H24.6688ZM25.4719 3.9696C23.6535 3.45712 21.1007 4.16008 19.7438 5.19256C17.5205 6.88118 15.9913 9.51186 14.5846 11.8791C13.7469 13.2831 13.0435 14.7629 12.4836 16.2989C12.1704 17.0838 11.904 17.8866 11.6855 18.703C11.5172 19.4202 11.4193 19.8466 11.8807 20.2136C11.91 20.1868 11.9393 20.1597 11.9686 20.1354C12.0833 18.8785 12.8592 17.6694 13.3742 16.543C14.0428 15.0777 14.57 13.5363 15.3022 12.1039C16.5827 9.6458 18.3662 7.4847 20.5368 5.76115C22.0006 4.74938 23.7006 4.13232 25.4726 3.9696H25.4719ZM18.375 3.60865C18.4797 2.98144 18.2896 2.61513 17.9308 2.38354C17.9256 2.41561 17.912 2.44573 17.8914 2.47084C17.8709 2.49595 17.844 2.51516 17.8135 2.5265C15.2315 3.53467 12.342 3.87382 9.59629 4.16187C6.9631 4.43741 4.55186 4.53748 2.17492 3.38314C2.07828 3.483 2.00204 3.60075 1.95048 3.7298C1.92167 3.80149 1.87184 3.86279 1.80753 3.90563C1.51198 5.2576 4.12836 5.21614 5.07292 5.34051C6.59012 5.55068 8.12388 5.61602 9.65347 5.53564C11.4565 5.41291 13.2482 5.15849 15.0142 4.77442C16.1492 4.53748 17.4329 4.36915 18.3603 3.61758C18.3647 3.61349 18.37 3.61043 18.3757 3.60865H18.375ZM17.9315 5.744C17.89 5.41699 17.8825 5.08749 17.86 4.76048C16.7618 5.26796 15.4781 5.4463 14.3162 5.67073C12.0299 6.15229 9.69404 6.35794 7.35872 6.28328C6.40916 6.23682 3.90786 6.25648 2.3411 5.65358C2.3847 7.49873 2.58733 9.32888 2.67275 11.1715C2.75102 12.8334 2.67025 14.6024 3.24634 16.1917C4.52255 19.7158 7.93196 18.9885 10.9218 18.703C11.0047 18.3831 11.1169 18.044 11.2317 17.6902C11.8143 15.7973 12.585 13.9676 13.5321 12.2283C14.7025 10.1759 16.0938 7.5913 17.9315 5.744ZM17.602 2.21736C17.2943 2.10889 16.9772 2.02885 16.6549 1.97827C15.7706 1.76924 14.8607 1.68955 13.9535 1.74169C13.1186 1.83675 12.2938 2.01723 11.4618 2.17591C11.4675 2.17723 11.4731 2.1789 11.4786 2.18091C11.7089 2.21476 11.9251 2.31258 12.1026 2.46324C12.4171 2.82062 11.8388 3.05864 11.5755 3.12225C11.1491 3.2442 10.6998 3.26343 10.2646 3.17836C9.83287 3.06364 9.80357 2.69018 10.1109 2.40463C10.1138 2.40021 10.1181 2.39683 10.1231 2.39498C10.1013 2.39748 10.0816 2.40213 10.0598 2.40463C8.60026 2.57546 7.14573 2.71698 5.68154 2.84885C4.85956 2.92212 3.36321 2.68303 2.50406 3.1394C4.89065 4.23263 7.46308 4.08861 10.0573 3.73945C12.5965 3.40101 15.1957 3.13512 17.602 2.21736ZM11.5422 20.9287C11.5328 20.9066 11.5253 20.8836 11.5201 20.8601C11.2821 20.7135 11.0894 20.5039 10.9632 20.2545C10.8371 20.0051 10.7824 19.7256 10.8053 19.447C9.67176 19.5928 8.53107 19.6763 7.38839 19.6972C7.91032 19.8368 8.42171 20.0132 8.91869 20.2251C9.4905 20.4692 10.122 20.6961 10.3975 21.2722C10.776 21.1432 11.1616 21.041 11.5422 20.9287Z"/>
</mask>
<path d="M11.7692 2.66909C11.6594 2.61373 11.5434 2.57185 11.4236 2.54436C11.2511 2.48071 11.0661 2.45838 10.8835 2.47917C10.7008 2.49996 10.5255 2.5633 10.3718 2.66409C10.3303 2.69921 10.2941 2.74028 10.2646 2.78595C10.2742 2.79346 10.2864 2.80061 10.2889 2.80311C10.3472 2.82261 10.4069 2.83731 10.4676 2.84707C10.7794 2.88126 11.0949 2.86144 11.4 2.78846C11.5275 2.7642 11.6516 2.7241 11.7692 2.66909ZM33.5812 22.9126C34.3317 23.7939 33.9568 25.5729 33.3689 26.615C33.0758 28.5356 32.0216 29.9608 30.5402 31.1859C29.9205 31.6984 29.2054 32.0912 28.5929 32.6155C27.8363 33.2587 28.1243 34.016 28.3806 34.8705C28.9295 36.6789 29.6314 38.6727 29.6082 40.5811C29.5957 41.7112 29.2347 42.7458 28.1429 43.2615C25.9783 44.2814 23.0913 43.8887 20.8656 43.2418C18.7943 42.6007 16.803 41.7254 14.9302 40.6329C13.2805 39.708 11.4965 38.9443 10.3082 37.4094C10.3035 37.4031 10.2994 37.3966 10.2957 37.3897C10.2469 37.36 10.2057 37.3194 10.1752 37.2711C10.1448 37.2228 10.126 37.1681 10.1202 37.1113C9.99548 36.0963 10.3618 35.5789 10.7635 34.7026C11.3174 33.5021 11.0051 31.5665 10.7463 30.3196C10.4361 28.8358 9.94831 27.1811 8.85472 26.0668C8.10422 25.3056 7.17503 24.7659 6.44383 23.9851C6.40539 23.9481 6.37641 23.9025 6.35937 23.8519C6.34232 23.8014 6.3377 23.7476 6.34591 23.6949C6.33833 23.6462 6.33918 23.5967 6.34841 23.5483C6.37307 23.4115 6.38415 23.2532 6.40202 23.0945C5.89704 22.8575 5.3942 22.6159 4.88922 22.3769C4.81664 22.3469 4.75849 22.29 4.72702 22.2181C4.69556 22.1462 4.69323 22.0648 4.72054 21.9912C4.71269 21.9602 4.70861 21.9282 4.70839 21.8962C4.77506 20.9714 4.74992 20.0423 4.63334 19.1225C3.81219 18.6968 3.17251 17.9888 2.83214 17.1287C2.14633 15.5155 2.03661 13.8219 1.978 12.0896C1.89973 9.81242 1.62419 7.54519 1.59953 5.26368C0.945528 4.78014 0.735746 4.05787 1.43371 2.95964C1.46187 2.91305 1.50063 2.87375 1.54683 2.84493C1.59302 2.81612 1.64537 2.79861 1.6996 2.79382C2.37076 2.0837 3.35427 2.29098 4.49646 2.21772C6.88901 2.09699 9.27312 1.84489 11.638 1.46257C12.5629 1.30175 13.4732 0.974749 14.4227 1.00155C15.5554 1.00525 16.682 1.16642 17.7703 1.48044C18.9833 1.87356 19.3224 2.70054 19.0637 3.91349C19.0553 3.97236 19.0298 4.02747 18.9903 4.07196C18.9509 4.11644 18.8992 4.14833 18.8417 4.16366C18.747 4.24005 18.6485 4.31161 18.5465 4.37809C18.5708 4.62432 18.5823 4.87091 18.5976 5.12001C19.1013 4.68491 19.6561 4.31287 20.2498 4.01213C22.4827 2.90925 27.5322 2.17197 28.169 5.6425C28.7183 8.63199 27.1076 12.1658 25.4651 14.7407C26.3781 14.3993 27.3165 14.1299 28.2716 13.9352C29.5285 13.6961 31.5759 13.2129 32.4401 14.4305C32.4554 14.453 32.4685 14.4769 32.479 14.502C32.5261 14.554 32.5523 14.6216 32.5528 14.6918C32.5533 14.762 32.5279 14.8299 32.4815 14.8826C31.4004 16.2882 29.6939 16.9554 28.0471 17.4693C26.6341 17.911 25.2381 18.3985 23.8422 18.8824C25.6573 19.2273 27.4304 19.7649 29.1314 20.4859C30.6342 21.1042 32.4912 21.6339 33.5812 22.9126ZM33.2492 24.4232C33.2855 24.1973 33.2674 23.9661 33.1966 23.7486C33.1257 23.5311 33.0041 23.3335 32.8418 23.1724C31.5409 22.067 29.7397 21.4813 28.1601 20.8784C26.3389 20.148 24.4308 19.6567 22.4834 19.4167C22.4447 19.4115 22.4069 19.4008 22.3712 19.3849C21.8587 19.5582 21.3488 19.729 20.8345 19.8898C20.785 19.9059 20.7327 19.9118 20.6808 19.907C19.3276 20.2355 17.9572 20.4889 16.5759 20.6661C15.1189 20.8541 13.5886 20.8369 12.1487 21.1174C11.6216 21.3029 11.0766 21.4323 10.548 21.6081C11.0751 22.5941 13.1079 22.9722 14.0328 23.3164C15.3387 23.8021 16.6345 24.3024 17.9719 24.6977C20.8127 25.5325 23.6703 26.1744 26.6451 26.2083C28.0032 26.2255 29.4102 26.3892 30.7454 26.0329C31.5759 25.807 32.8353 25.1994 33.2477 24.4232H33.2492ZM32.7806 26.1269C32.9166 25.8115 33.0299 25.4869 33.1198 25.1555C32.6531 25.6573 32.0609 26.0254 31.4044 26.2219C29.9498 26.6661 28.5539 26.5954 27.0529 26.5793C25.414 26.5789 23.7786 26.4287 22.1672 26.1304C18.6391 25.4335 15.3419 24.1563 11.9743 22.9412C11.1166 22.6288 10.4733 22.3897 10.1159 21.5259C9.76711 20.6861 8.35153 20.3373 7.57851 20.12C6.8734 19.9224 6.16079 19.7737 5.44066 19.6443C5.49677 20.3691 5.45281 21.0989 5.44316 21.8283C12.1977 25.0572 19.4929 28.5031 27.144 28.4152C28.4764 28.4005 29.9723 28.3251 31.1756 27.6832C31.8725 27.3631 32.4385 26.8138 32.7792 26.1269H32.7806ZM32.2446 27.878C32.2385 27.8754 32.2328 27.8722 32.2274 27.8684C31.5174 28.3903 30.6965 28.7414 29.8287 28.8944C25.9654 29.6363 21.7161 28.8229 17.9994 27.7376C16.7353 27.3666 15.4906 26.9442 14.258 26.4867C14.3873 26.8799 14.5339 27.3141 14.7143 27.7679C14.9746 28.4347 15.3232 29.0634 15.7507 29.6374C15.863 29.7911 16.0009 29.9376 16.1217 30.0863L16.2096 30.1888L16.3047 30.2864C16.3704 30.35 16.4265 30.4183 16.4973 30.4744C16.7611 30.7185 17.0491 30.9283 17.3193 31.1359C17.5895 31.3435 17.8554 31.5408 18.0952 31.7531C18.2149 31.8632 18.3074 31.9507 18.4197 32.073C18.6053 32.2839 18.7443 32.5318 18.8274 32.8002C18.8549 32.9142 18.8745 33.0299 18.886 33.1465C18.9 33.3269 18.8991 33.5081 18.8835 33.6883C18.8614 33.9814 18.8299 34.14 18.8031 34.14C18.7763 34.14 18.7492 33.9789 18.7249 33.6908C18.7122 33.5188 18.6894 33.3477 18.6566 33.1783C18.6377 33.0774 18.6115 32.9779 18.5783 32.8806C18.5357 32.7755 18.4826 32.6749 18.4197 32.5804C18.3523 32.4755 18.2747 32.3774 18.1881 32.2877C18.1027 32.2095 17.9758 32.0973 17.8664 32.0068C17.6395 31.8281 17.3786 31.6384 17.0977 31.4432C16.7962 31.2363 16.5061 31.0131 16.2289 30.7746C16.1532 30.716 16.086 30.6402 16.0145 30.572L15.9098 30.4647L15.8097 30.35C15.685 30.201 15.5535 30.0641 15.4337 29.8983C14.9766 29.2924 14.615 28.6199 14.3616 27.9045C14.1793 27.3945 14.0229 26.8756 13.8931 26.3499C11.5869 25.4739 9.33182 24.4682 7.09641 23.4215C7.0914 23.4751 7.08676 23.5287 7.07925 23.5848C7.90123 24.4068 8.95372 24.9639 9.66383 25.901C10.5048 27.0305 11.0861 28.3317 11.3664 29.7117C11.6684 31.1256 11.7825 32.5731 11.7055 34.0167C11.6423 35.1028 10.8053 35.8008 10.8368 36.904C12.0451 38.4561 13.9167 39.227 15.5899 40.1669C17.3534 41.2087 19.2441 42.0184 21.2151 42.5757C23.0846 43.0588 26.8135 43.8715 28.3463 42.2265C29.5764 40.9063 28.5757 38.1631 28.1558 36.6478C27.8727 35.6178 27.0576 34.1168 27.3695 33.0261C27.4411 32.7885 27.5629 32.569 27.7269 32.3828C27.486 32.4573 27.2407 32.517 26.9925 32.5615C26.687 32.6127 26.3771 32.6323 26.0676 32.6201C25.5315 32.5933 25.2378 32.4771 25.2378 32.43C25.2428 32.3664 25.5723 32.3785 26.0597 32.3299C26.3482 32.2989 26.6346 32.2512 26.9175 32.187C27.2629 32.1051 27.6029 32.0015 27.9353 31.8767C28.2816 31.7427 28.6014 31.5908 28.892 31.445C29.2068 31.2424 29.5192 31.0519 29.7679 30.8639C30.842 30.1033 31.6964 29.0729 32.2449 27.8766L32.2446 27.878ZM27.1733 15.4472C28.54 15.1081 30.1239 14.5538 31.5566 14.5809C30.7904 14.1367 29.0796 14.5052 28.4671 14.6396C27.534 14.8473 26.6159 15.1171 25.7188 15.4472C24.1181 16.0305 22.5513 16.7138 20.9235 17.2263C18.2485 18.0708 15.259 18.5711 12.97 20.264C13.7144 20.1883 14.466 20.1614 15.2125 20.0932C15.923 19.2952 17.0748 19.0364 18.0755 18.7852C19.653 18.3383 21.1889 17.7559 22.6661 17.0444C24.119 16.3814 25.6272 15.847 27.1733 15.4472ZM30.9123 15.3715C31.0488 15.2285 31.1832 15.0884 31.3197 14.9469C29.8726 14.9826 28.1962 15.5377 26.8524 15.9086C25.2162 16.3873 23.6187 16.9893 22.0735 17.7095C20.9127 18.2647 19.7058 18.7178 18.4665 19.0639C17.5952 19.2837 16.5702 19.4692 15.8308 20.0256C17.4209 19.838 18.9987 19.5569 20.5557 19.1837C20.5924 19.1747 20.6303 19.1715 20.6679 19.174C22.7886 18.5028 24.8532 17.668 26.9839 17.0297C28.2576 16.6466 29.7147 16.2538 30.8436 15.4605C30.8567 15.4244 30.8807 15.3933 30.9123 15.3715ZM26.8488 10.0855C27.2345 8.97507 27.6151 7.77678 27.5493 6.58312C27.5477 6.18037 27.4564 5.78303 27.2819 5.42001C27.1075 5.057 26.8543 4.73744 26.5408 4.48458C25.9028 4.34482 25.2417 4.34898 24.6056 4.49674C26.0622 5.08248 26.2745 7.11562 25.7939 8.59446C25.2814 10.1759 24.2174 11.5915 23.4462 13.0556C22.8941 14.2048 22.2164 15.2892 21.4256 16.2892C21.5328 16.2535 21.6425 16.2178 21.7526 16.177C22.6103 15.8622 23.4609 15.5109 24.32 15.1738C24.3309 15.141 24.3464 15.1098 24.3661 15.0813C25.4039 13.529 26.2383 11.85 26.8488 10.0855ZM24.6688 10.093C25.5133 8.59446 26.7263 4.74833 23.7439 4.70187C23.7414 4.69937 23.7414 4.69937 23.7389 4.69937C23.4852 4.76763 23.2607 4.83839 23.0799 4.897C21.4524 5.42914 20.3027 6.33224 19.0948 7.54984C17.4955 9.10402 16.2053 10.9473 15.2926 12.982C14.7565 14.2329 14.2562 15.4883 13.689 16.7281C13.2548 17.6848 12.5883 18.7366 12.386 19.7958C14.7679 17.9653 17.8479 17.4261 20.6958 16.5305C22.4731 14.8286 23.4859 12.1965 24.6695 10.093H24.6688ZM25.4719 3.9696C23.6535 3.45712 21.1007 4.16008 19.7438 5.19256C17.5205 6.88118 15.9913 9.51186 14.5846 11.8791C13.7469 13.2831 13.0435 14.7629 12.4836 16.2989C12.1704 17.0838 11.904 17.8866 11.6855 18.703C11.5172 19.4202 11.4193 19.8466 11.8807 20.2136C11.91 20.1868 11.9393 20.1597 11.9686 20.1354C12.0833 18.8785 12.8592 17.6694 13.3742 16.543C14.0428 15.0777 14.57 13.5363 15.3022 12.1039C16.5827 9.6458 18.3662 7.4847 20.5368 5.76115C22.0006 4.74938 23.7006 4.13232 25.4726 3.9696H25.4719ZM18.375 3.60865C18.4797 2.98144 18.2896 2.61513 17.9308 2.38354C17.9256 2.41561 17.912 2.44573 17.8914 2.47084C17.8709 2.49595 17.844 2.51516 17.8135 2.5265C15.2315 3.53467 12.342 3.87382 9.59629 4.16187C6.9631 4.43741 4.55186 4.53748 2.17492 3.38314C2.07828 3.483 2.00204 3.60075 1.95048 3.7298C1.92167 3.80149 1.87184 3.86279 1.80753 3.90563C1.51198 5.2576 4.12836 5.21614 5.07292 5.34051C6.59012 5.55068 8.12388 5.61602 9.65347 5.53564C11.4565 5.41291 13.2482 5.15849 15.0142 4.77442C16.1492 4.53748 17.4329 4.36915 18.3603 3.61758C18.3647 3.61349 18.37 3.61043 18.3757 3.60865H18.375ZM17.9315 5.744C17.89 5.41699 17.8825 5.08749 17.86 4.76048C16.7618 5.26796 15.4781 5.4463 14.3162 5.67073C12.0299 6.15229 9.69404 6.35794 7.35872 6.28328C6.40916 6.23682 3.90786 6.25648 2.3411 5.65358C2.3847 7.49873 2.58733 9.32888 2.67275 11.1715C2.75102 12.8334 2.67025 14.6024 3.24634 16.1917C4.52255 19.7158 7.93196 18.9885 10.9218 18.703C11.0047 18.3831 11.1169 18.044 11.2317 17.6902C11.8143 15.7973 12.585 13.9676 13.5321 12.2283C14.7025 10.1759 16.0938 7.5913 17.9315 5.744ZM17.602 2.21736C17.2943 2.10889 16.9772 2.02885 16.6549 1.97827C15.7706 1.76924 14.8607 1.68955 13.9535 1.74169C13.1186 1.83675 12.2938 2.01723 11.4618 2.17591C11.4675 2.17723 11.4731 2.1789 11.4786 2.18091C11.7089 2.21476 11.9251 2.31258 12.1026 2.46324C12.4171 2.82062 11.8388 3.05864 11.5755 3.12225C11.1491 3.2442 10.6998 3.26343 10.2646 3.17836C9.83287 3.06364 9.80357 2.69018 10.1109 2.40463C10.1138 2.40021 10.1181 2.39683 10.1231 2.39498C10.1013 2.39748 10.0816 2.40213 10.0598 2.40463C8.60026 2.57546 7.14573 2.71698 5.68154 2.84885C4.85956 2.92212 3.36321 2.68303 2.50406 3.1394C4.89065 4.23263 7.46308 4.08861 10.0573 3.73945C12.5965 3.40101 15.1957 3.13512 17.602 2.21736ZM11.5422 20.9287C11.5328 20.9066 11.5253 20.8836 11.5201 20.8601C11.2821 20.7135 11.0894 20.5039 10.9632 20.2545C10.8371 20.0051 10.7824 19.7256 10.8053 19.447C9.67176 19.5928 8.53107 19.6763 7.38839 19.6972C7.91032 19.8368 8.42171 20.0132 8.91869 20.2251C9.4905 20.4692 10.122 20.6961 10.3975 21.2722C10.776 21.1432 11.1616 21.041 11.5422 20.9287Z" stroke="#FFD699" stroke-width="2" mask="url(#path-1-outside-1_330_286)"/>
<path d="M30.7853 23.9422C30.7933 23.9032 30.7959 23.8632 30.7929 23.8233C30.7881 23.7576 30.7685 23.6939 30.7355 23.6369C30.7026 23.5799 30.6571 23.5311 30.6026 23.4941L30.5899 23.4856L30.5778 23.4762C30.0339 23.0571 29.4029 22.7652 28.7313 22.6221L28.7188 22.6194L28.7064 22.6161C28.1776 22.4747 27.6232 22.2981 27.0782 22.1245C26.7273 22.0127 26.3803 21.9021 26.0465 21.803C25.167 21.5418 24.3115 21.3368 23.4685 21.2929C22.6722 21.2706 21.8755 21.3187 21.0877 21.4368L21.0753 21.4386L21.0753 21.4385C19.8643 21.5891 18.6627 21.7602 17.488 22.0208L17.4795 22.0227L17.4795 22.0226C16.9978 22.1208 16.5226 22.2484 16.0566 22.4049C15.9717 22.436 15.8876 22.4738 15.8122 22.5146C15.8273 22.5188 15.8431 22.523 15.8595 22.5273L30.7853 23.9422ZM30.7853 23.9422C28.8027 23.248 26.669 22.6524 24.5308 22.5151C22.5362 22.3869 20.007 22.3652 17.9914 23.1628C17.2946 22.9381 16.5847 22.7137 15.8597 22.5273L30.7853 23.9422ZM31.5117 22.4865L31.5111 22.4858C30.8983 21.813 29.9393 21.4484 29.052 21.1997C28.6084 21.0754 28.1564 20.9735 27.7418 20.88L27.7133 20.8736C27.2861 20.7773 26.9063 20.691 26.588 20.5952C24.8418 20.0285 22.9941 19.8444 21.1704 20.0555C19.6682 20.2169 18.1768 20.467 16.7041 20.8044L16.7041 20.8044L16.7022 20.8049C16.6679 20.8129 16.6217 20.8228 16.566 20.8349C16.2993 20.8923 15.8149 20.9967 15.3793 21.1575C15.1155 21.2549 14.8289 21.3866 14.6 21.5681C14.372 21.749 14.1344 22.0357 14.1357 22.4371L14.1358 22.4644L14.1389 22.4915C14.1733 22.7966 14.3015 23.0836 14.5058 23.3129C14.7043 23.5357 14.9652 23.6934 15.2544 23.7656C15.7287 23.9232 16.207 24.0627 16.6751 24.1992C16.7206 24.2125 16.766 24.2257 16.8113 24.239C17.3329 24.3913 17.8423 24.5423 18.3431 24.7181L18.3447 24.7186C21.0816 25.6685 23.9473 26.1954 26.843 26.281V26.281L26.8457 26.2811C28.103 26.3115 29.5362 26.3355 30.8421 25.7766C31.5263 25.4853 31.9551 24.9337 32.0698 24.2971C32.1832 23.6683 31.982 23.005 31.5117 22.4865ZM20.816 24.0269C20.7127 24.0003 20.6096 23.9729 20.5066 23.9447C21.8039 23.7848 23.1998 23.834 24.4802 23.8807L24.4807 23.8807C26.0247 23.9355 27.6448 24.3434 29.2076 24.8484C28.5199 24.96 27.7728 24.9394 27.0084 24.9182C26.9629 24.9169 26.9173 24.9157 26.8717 24.9144C24.8272 24.8414 22.797 24.5439 20.8175 24.0273L20.816 24.0269Z" stroke="#FFD699"/>
<path d="M19.2137 34.1544C19.2739 33.7435 19.3153 33.396 19.3481 33.1196C19.3565 33.049 19.3644 32.9831 19.3718 32.9219C19.3895 32.7769 19.4066 32.6455 19.4251 32.5485C19.4336 32.5038 19.4473 32.4392 19.4707 32.3772C19.4813 32.349 19.5058 32.2882 19.5539 32.2257C19.5961 32.171 19.7249 32.029 19.9484 32.0234C20.2379 32.0147 20.3776 32.2372 20.3931 32.2619C20.3934 32.2623 20.3936 32.2627 20.3938 32.263C20.4309 32.3215 20.4495 32.3765 20.4574 32.4013C20.4756 32.4585 20.4867 32.5188 20.494 32.567C20.5099 32.6704 20.5216 32.8065 20.5287 32.9659C20.5431 33.2881 20.54 33.7423 20.4997 34.2947L20.4995 34.2968C20.457 34.8468 20.3826 35.4913 20.2788 36.1979C20.2585 36.3357 20.2377 36.475 20.2167 36.616C20.1301 37.1958 20.0395 37.803 19.966 38.4447L19.9656 38.4481L19.9656 38.4481C19.9534 38.5483 19.9414 38.6474 19.9301 38.7437L19.5207 38.6957C19.5204 38.6984 19.52 38.701 19.5197 38.7036L19.5192 38.7082L19.5192 38.7082C19.5171 38.7242 19.5149 38.7422 19.5126 38.7616C19.5044 38.8291 19.4941 38.9141 19.4799 38.9946C19.4795 38.9982 19.4791 39.0018 19.4787 39.0054L19.8887 39.053C19.888 39.0589 19.8873 39.0647 19.8866 39.0706M19.2137 34.1544L15.0151 38.3712C14.9074 38.5428 14.7351 38.5804 14.7045 38.5867C14.6465 38.5986 14.603 38.5956 14.5951 38.595L14.5946 38.595C14.5854 38.5944 14.5802 38.5936 14.5802 38.5936C14.5802 38.5937 14.5876 38.5949 14.6047 38.5989C14.6605 38.6119 14.7554 38.6395 14.8938 38.6848C15.1627 38.773 15.5525 38.9141 16.0384 39.0994C16.0409 39.1004 16.0434 39.1013 16.0459 39.1023C16.0499 39.1038 16.054 39.1053 16.058 39.1069L16.0656 39.1098L16.0733 39.1124C16.5746 39.2854 17.1688 39.4901 17.8314 39.7166C17.8314 39.7166 17.8314 39.7166 17.8314 39.7166C17.8326 39.717 17.8337 39.7174 17.8349 39.7177C17.8354 39.7179 17.836 39.7181 17.8365 39.7183L17.8762 39.6023C18.0482 39.6675 18.2236 39.7235 18.4015 39.7702L18.375 39.8765C18.3758 39.8767 18.3766 39.8769 18.3774 39.8771M19.2137 34.1544C19.1361 34.6745 19.0368 35.2916 18.9135 35.9794L18.9134 35.9794L18.9127 35.984C18.8985 36.0673 18.884 36.1523 18.8692 36.2386C18.7627 36.8611 18.6432 37.5592 18.562 38.2839L18.562 38.2842C18.5534 38.3614 18.5444 38.4367 18.5351 38.5149C18.5324 38.5375 18.5297 38.5604 18.5269 38.5837C18.5231 38.6136 18.5199 38.6402 18.5169 38.6645C18.5088 38.7312 18.5028 38.7807 18.493 38.8321L18.4883 38.8567L18.4869 38.8732C18.3778 38.8438 18.2699 38.8105 18.1633 38.7732L18.1633 38.7732L18.1599 38.772C17.5 38.5465 16.9078 38.3425 16.4071 38.1698C15.9105 37.9802 15.4991 37.8309 15.2053 37.7346C15.0599 37.6869 14.9318 37.6484 14.8327 37.6252C14.7868 37.6144 14.725 37.6016 14.6626 37.5973C14.6349 37.5954 14.574 37.5925 14.5026 37.6072C14.4561 37.6168 14.2342 37.6681 14.1322 37.9083C14.0296 38.1497 14.1485 38.3458 14.1741 38.3858C14.2135 38.4474 14.2582 38.489 14.2789 38.5076C14.3256 38.5493 14.378 38.5846 14.4179 38.61C14.5038 38.6648 14.6211 38.7297 14.7571 38.8006C15.0332 38.9445 15.4311 39.1361 15.9181 39.3605L15.9267 39.3644L15.9353 39.368C16.4324 39.5748 17.0327 39.8169 17.6975 40.0693L17.6977 40.0694C17.8895 40.1421 18.0851 40.2044 18.2836 40.2562M19.2137 34.1544L18.2836 40.2562M19.8866 39.0706C19.8856 39.0761 19.8845 39.0817 19.8835 39.0873L19.478 39.0114C19.4521 39.2323 19.3763 39.4445 19.2561 39.632L19.2358 39.6637L19.2109 39.692C19.2099 39.6931 19.2089 39.6942 19.2079 39.6953C19.2053 39.6983 19.2026 39.7013 19.1998 39.7043C19.14 39.769 19.0678 39.8212 18.9873 39.8575C18.9126 39.8913 18.8323 39.9108 18.7505 39.9151C18.7498 39.9151 18.749 39.9152 18.7483 39.9152C18.7396 39.9156 18.7309 39.9159 18.7222 39.916M19.8866 39.0706C19.8467 39.3868 19.7243 39.687 19.5315 39.941L19.512 39.9667L19.4894 39.9897C19.2983 40.1835 19.0414 40.2983 18.7696 40.3114L18.7589 40.3119L18.7589 40.3118C18.5986 40.3161 18.4386 40.2973 18.2836 40.2562M19.8866 39.0706C19.9047 38.9698 19.9157 38.8714 19.9248 38.7904C19.9266 38.7739 19.9284 38.7581 19.9301 38.7432L19.5207 38.6956M18.7222 39.916C18.72 39.916 18.7177 39.916 18.7154 39.916L18.7155 39.8124C18.6127 39.8125 18.5104 39.7992 18.411 39.7727M18.7222 39.916C18.7236 39.9159 18.725 39.9159 18.7264 39.9159L18.7242 39.8124C18.7313 39.8123 18.7384 39.8122 18.7455 39.812M18.7222 39.916C18.6082 39.918 18.4943 39.9054 18.3835 39.8785M18.411 39.7727C18.4091 39.7722 18.4071 39.7717 18.4052 39.7712L18.3797 39.8776C18.3789 39.8774 18.3781 39.8772 18.3774 39.8771M18.411 39.7727L18.3835 39.8785M18.411 39.7727L18.3828 39.8784M18.3774 39.8771C18.3792 39.8775 18.381 39.8779 18.3828 39.8784M18.3774 39.8771L18.7455 39.812M18.0089 39.2489L18.0524 39.1344C18.2061 39.1926 18.3627 39.2428 18.5216 39.2848C18.5219 39.2849 18.5223 39.2849 18.5226 39.285C18.5274 39.2863 18.5322 39.2875 18.5369 39.2888L18.5399 39.2896L18.5399 39.2896C18.5966 39.3047 18.655 39.3124 18.7137 39.3124C18.7144 39.3124 18.7152 39.3124 18.716 39.3124C18.719 39.3124 18.722 39.3124 18.725 39.3123L18.0089 39.2489ZM18.0089 39.2489C18.1688 39.3044 18.3314 39.352 18.4961 39.3913C18.5005 39.3925 18.505 39.3935 18.5094 39.3946C18.5102 39.3947 18.511 39.3949 18.5117 39.3951C18.5786 39.4104 18.6472 39.4175 18.7159 39.416C18.7194 39.416 18.7229 39.4159 18.7264 39.4157L18.0089 39.2489ZM18.7455 39.812C18.8151 39.8086 18.883 39.7929 18.946 39.7661C19.0156 39.7365 19.0793 39.6934 19.1333 39.6387M18.7455 39.812L19.1333 39.6387M18.3835 39.8785C18.3832 39.8785 18.383 39.8784 18.3828 39.8784M18.3835 39.8785L18.2851 40.2566C18.2846 40.2564 18.2841 40.2563 18.2836 40.2562M18.3828 39.8784L18.2822 40.2558C18.2826 40.2559 18.2831 40.256 18.2836 40.2562M18.2836 40.2562L20.001 34.2583C20.0388 33.7406 20.0424 33.3174 20.0305 33.0186C20.2115 32.994 20.3148 32.8767 20.3462 32.836C20.3859 32.7843 20.4029 32.7391 20.4064 32.73L20.4065 32.7297C20.4106 32.7188 20.4124 32.712 20.4124 32.7121C20.4125 32.7121 20.4106 32.7191 20.4074 32.7358C20.3962 32.7946 20.3828 32.8928 20.3645 33.043C20.3574 33.1005 20.3499 33.1638 20.3418 33.2325C20.3095 33.5036 20.2673 33.8587 20.2069 34.2733C20.2069 34.2736 20.2068 34.2739 20.2068 34.2742C20.2055 34.2828 20.2043 34.2914 20.203 34.3001L20.2028 34.3013C20.1244 34.8269 20.0244 35.4492 19.9002 36.1423C19.8995 36.1461 19.8988 36.1499 19.8982 36.1537M19.5207 38.6956C19.523 38.6757 19.5254 38.6557 19.5278 38.6356C19.5371 38.5577 19.5465 38.4785 19.5555 38.3983C19.5555 38.3981 19.5555 38.3979 19.5556 38.3977C19.5557 38.3969 19.5557 38.396 19.5558 38.3952M19.5207 38.6956L19.4335 38.6855M19.5207 38.6956L19.4335 38.6855M19.5558 38.3952C19.6335 37.7014 19.7478 37.0334 19.8546 36.4089C19.8693 36.323 19.8839 36.2379 19.8982 36.1537M19.5558 38.3952C19.5558 38.3951 19.5559 38.3951 19.5559 38.395L19.4695 38.3853C19.544 37.7352 19.6361 37.1184 19.7227 36.5387C19.743 36.4022 19.7631 36.2677 19.7826 36.1353L19.8977 36.156C19.8979 36.1552 19.898 36.1544 19.8982 36.1537M19.5558 38.3952L19.4695 38.3855C19.4694 38.3863 19.4693 38.3871 19.4692 38.3878C19.4571 38.4879 19.4449 38.588 19.4335 38.6855M19.8982 36.1537C19.8983 36.1529 19.8984 36.1521 19.8986 36.1514L19.7831 36.1318L19.398 38.9616C19.4107 38.8867 19.4189 38.8139 19.4273 38.7395C19.4289 38.7254 19.4305 38.7113 19.4322 38.697C19.4323 38.6958 19.4324 38.6945 19.4326 38.6933C19.4329 38.6907 19.4332 38.6881 19.4335 38.6855M18.9843 38.9253C18.9846 38.9233 18.985 38.9213 18.9854 38.9193C18.9979 38.8521 19.0063 38.7825 19.0149 38.7122C19.0176 38.6898 19.0203 38.6673 19.0232 38.6448M18.9843 38.9253L18.9727 38.3293C18.9726 38.3295 18.9726 38.3297 18.9726 38.3299C18.9726 38.3299 18.9726 38.3299 18.9726 38.3299M18.9843 38.9253C18.9836 38.9328 18.9829 38.9403 18.982 38.9478C18.9661 39.0911 18.9182 39.229 18.8419 39.3514L18.9843 38.9253ZM19.0232 38.6448C19.0235 38.6425 19.0237 38.6403 19.024 38.638C19.024 38.6378 19.024 38.6377 19.0241 38.6375C19.0265 38.6167 19.029 38.5959 19.0315 38.5752C19.0408 38.497 19.05 38.4196 19.0588 38.3408L18.9725 38.3309C18.9725 38.3306 18.9725 38.3303 18.9726 38.3299M19.0232 38.6448L18.9361 38.6336M19.0232 38.6448L18.9361 38.6345C18.9361 38.6342 18.9361 38.6339 18.9361 38.6336M18.9726 38.3299C18.9605 38.429 18.9484 38.5293 18.9369 38.6273L18.9368 38.6279C18.9366 38.6298 18.9364 38.6317 18.9361 38.6336M18.9726 38.3299L18.9361 38.6336M19.1333 39.6387C19.1355 39.6357 19.1378 39.6327 19.14 39.6297C19.1521 39.6134 19.1639 39.5969 19.1752 39.5801C19.2918 39.4077 19.366 39.2098 19.3912 39.0025M19.1333 39.6387L19.3912 39.0025M19.3912 39.0025L19.4755 39.0185C19.4759 39.0161 19.4764 39.0137 19.4769 39.0112L19.3912 39.0025ZM17.8749 39.6018C17.8745 39.6017 17.8741 39.6015 17.8737 39.6014L17.8749 39.6018ZM16.2364 38.6398L16.3122 38.441C16.3101 38.4401 16.308 38.4391 16.3059 38.4381L16.2364 38.6398ZM16.328 38.4483C16.3252 38.4471 16.3223 38.4459 16.3194 38.4447L16.238 38.6403C16.2414 38.6415 16.2449 38.6427 16.2483 38.6439L16.3366 38.4523C16.3337 38.4509 16.3309 38.4496 16.328 38.4483ZM18.0522 39.1343L18.0088 39.2488C18.0053 39.2476 18.0017 39.2464 17.9982 39.2452L18.0522 39.1343ZM18.7814 39.4019C18.7894 39.3983 18.7972 39.394 18.8045 39.389L18.7349 39.4149C18.7509 39.4129 18.7666 39.4086 18.7814 39.4019Z" stroke="#FFD699"/>
<path d="M17.6793 38.2318C17.7705 38.0073 17.671 37.8238 17.6457 37.7804C17.6095 37.7183 17.5678 37.6759 17.5476 37.6563C17.503 37.6131 17.4537 37.5776 17.4174 37.5529C17.3388 37.4996 17.2341 37.4389 17.1137 37.3747C16.8692 37.2445 16.5184 37.0776 16.0826 36.8933C15.8189 36.7791 15.5324 36.6629 15.2284 36.5397C14.51 36.2485 13.6937 35.9176 12.8483 35.4789L12.8484 35.4788L12.8387 35.474C12.8079 35.4589 12.7776 35.4434 12.7477 35.4276C12.7846 35.3526 12.8189 35.2763 12.8505 35.1988C12.9719 34.9104 13.0612 34.6094 13.1166 34.3014C13.2132 33.8051 13.2383 33.2975 13.1913 32.794C13.1514 32.3633 13.061 32.0204 12.9684 31.7778C12.9228 31.6583 12.8732 31.5543 12.8234 31.4728C12.8005 31.4355 12.7661 31.3838 12.7204 31.3359C12.7005 31.315 12.6538 31.2684 12.5832 31.2301C12.5334 31.2032 12.3351 31.1093 12.1146 31.2203C11.9796 31.2861 11.9065 31.3954 11.8722 31.4713C11.8368 31.5496 11.8286 31.6195 11.8258 31.6522C11.8199 31.7198 11.8264 31.7829 11.8299 31.8138C11.8351 31.8611 11.8452 31.9265 11.855 31.9903C11.859 32.0163 11.863 32.042 11.8665 32.0662C11.8946 32.2552 11.9276 32.5196 11.9264 32.8532L11.9264 32.8563C11.9275 33.2473 11.8821 33.637 11.7911 34.0173L11.7909 34.0173L11.788 34.0311C11.6979 34.4614 11.505 34.8634 11.2258 35.2029L11.0655 35.3846L10.6632 35.8407L11.1884 36.1472L11.3935 36.267L11.3941 36.2673C11.4584 36.3047 11.5317 36.3496 11.6109 36.398C11.7903 36.5079 11.9997 36.636 12.2006 36.7363L12.2006 36.7363L12.2041 36.7381C13.3099 37.2793 14.4554 37.7354 15.6306 38.1024C15.7252 38.1336 15.8165 38.1638 15.9042 38.1928C16.2113 38.2944 16.4731 38.3809 16.67 38.4412C16.7949 38.4795 16.9106 38.5125 17.002 38.5317C17.0436 38.5404 17.1075 38.5524 17.1749 38.5535C17.2058 38.5541 17.2728 38.5535 17.3505 38.5301C17.4237 38.5079 17.5968 38.4356 17.6793 38.2318ZM17.6793 38.2318L17.2161 38.0437L17.6811 38.2274C17.6805 38.2289 17.6799 38.2304 17.6793 38.2318ZM12.9264 32.8551C12.9264 32.8556 12.9264 32.8561 12.9264 32.8566L12.6948 32.8558C12.7356 33.3071 12.7123 33.7618 12.6257 34.2066L12.7211 34.2266L12.9264 32.8551ZM12.9264 32.8551C12.9264 32.8546 12.9264 32.8541 12.9264 32.8536L12.6947 32.8542C12.6943 32.8496 12.6938 32.8449 12.6934 32.8403C12.6664 32.5479 12.6139 32.3061 12.5571 32.1196M12.9264 32.8551L12.5571 32.1196M12.9264 32.8551C12.9265 32.8429 12.9265 32.8308 12.9264 32.8187L12.9264 32.8551ZM12.2774 34.1336C12.3768 33.7182 12.4268 33.2924 12.4265 32.8652C12.4265 32.8651 12.4265 32.865 12.4265 32.8649C12.4265 32.8616 12.4265 32.8583 12.4264 32.8549C12.4274 32.5814 12.4074 32.3503 12.3849 32.1667C12.246 32.1789 12.1378 32.1261 12.1071 32.1095C12.0441 32.0754 12.0066 32.0363 11.997 32.0263C11.982 32.0106 11.973 31.9984 11.9697 31.9936C11.9699 31.9939 11.9701 31.9944 11.9704 31.9948C11.9798 32.0101 12.0039 32.0552 12.0342 32.1346C12.0916 32.2848 12.1594 32.5275 12.1924 32.8541C12.1925 32.8546 12.1925 32.8551 12.1926 32.8556C12.1936 32.8657 12.1946 32.8759 12.1955 32.8863L12.1956 32.8868C12.2335 33.292 12.2138 33.7005 12.137 34.1001C12.1368 34.1014 12.1365 34.1027 12.1363 34.1041C12.1357 34.1072 12.135 34.1104 12.1344 34.1135L12.1344 34.1135L12.133 34.1213C12.0905 34.3588 12.0217 34.5908 11.9279 34.8131L11.9279 34.813L11.9254 34.8192C11.8534 34.9961 11.7618 35.1644 11.6521 35.3208L11.5451 35.4735L12.2774 34.1336ZM12.2774 34.1336C12.2769 34.1361 12.2764 34.1387 12.2758 34.1412C12.2754 34.143 12.2751 34.1448 12.2747 34.1467C12.222 34.3931 12.1408 34.6316 12.0333 34.8575C12.0326 34.8591 12.0318 34.8606 12.0311 34.8621C11.9543 35.023 11.8641 35.1774 11.7615 35.3238L12.2774 34.1336ZM12.5571 32.1196L12.5964 32.0956C12.583 32.1038 12.5697 32.1111 12.5565 32.1177M12.5571 32.1196L12.5565 32.1177M12.5565 32.1177C12.5565 32.1177 12.5565 32.1176 12.5564 32.1176C12.5705 32.1107 12.5838 32.1033 12.5964 32.0956C12.6991 32.0324 12.7561 31.9436 12.7835 31.8832C12.8148 31.8137 12.8205 31.7558 12.8221 31.7381C12.8238 31.7183 12.8234 31.7032 12.8231 31.6969C12.8232 31.6985 12.8235 31.7008 12.8238 31.7037C12.8267 31.7298 12.8314 31.7603 12.8386 31.8071C12.8432 31.8369 12.8489 31.8734 12.8557 31.9196L12.5565 32.1177ZM17.222 37.5558C17.222 37.5558 17.2216 37.5557 17.2209 37.5556L17.222 37.5558ZM12.3886 35.0074C12.3567 35.0858 12.3216 35.1628 12.2834 35.2381L12.6239 34.2165C12.5747 34.488 12.4958 34.7532 12.3886 35.0074Z" stroke="#FFD699"/>
<path d="M6.69678 16.2867C6.71929 16.3802 6.74117 16.4708 6.76226 16.5581C6.84957 16.9196 6.92337 17.2252 6.97311 17.4525C7.00362 17.592 7.02869 17.718 7.04148 17.8156C7.04737 17.8604 7.05433 17.925 7.05127 17.9908C7.04987 18.0209 7.04531 18.085 7.01952 18.1581C6.99728 18.221 6.91819 18.4025 6.6985 18.4761L6.69073 18.4787L6.68287 18.4811C6.43069 18.5566 6.24831 18.4141 6.21934 18.3914C6.16488 18.3486 6.12913 18.3032 6.11297 18.2818C6.07662 18.2337 6.04687 18.181 6.02531 18.1403C5.97895 18.0529 5.92618 17.9356 5.86992 17.7988C5.75584 17.5214 5.61109 17.1239 5.45335 16.6319L5.45256 16.6295C5.2682 16.0441 5.11916 15.4482 5.00624 14.845C4.95726 14.5926 4.92331 14.341 4.89062 14.0988C4.8761 13.9912 4.86182 13.8854 4.84658 13.7823C4.79237 13.415 4.74212 13.0368 4.70454 12.6301M6.69678 16.2867L5.6433 11.4347C5.64329 11.4343 5.64327 11.4338 5.64326 11.4334C5.63974 11.3299 5.63638 11.2267 5.63305 11.1243C5.625 10.877 5.61709 10.634 5.60742 10.4013L5.60705 10.3924L5.60655 10.3858L5.60637 10.3835C5.60624 10.3819 5.60611 10.3802 5.60599 10.3786C5.55501 9.71855 5.51177 9.13178 5.48793 8.62896L5.488 8.62896L5.48743 8.62018C5.4873 8.61808 5.48716 8.61598 5.48703 8.61388C5.48686 8.61135 5.4867 8.60882 5.48654 8.60629C5.46324 8.23755 5.46734 7.86759 5.49882 7.49945L5.49889 7.49946L5.49946 7.49112C5.50124 7.46533 5.50302 7.44118 5.50481 7.41865C5.51246 7.32207 5.52013 7.25506 5.52684 7.2144C5.52907 7.20094 5.53043 7.19514 5.53043 7.19514C5.53042 7.19514 5.52859 7.20285 5.52416 7.21537L5.52406 7.21567C5.52076 7.225 5.50488 7.26989 5.46703 7.32177C5.4524 7.34181 5.41397 7.39061 5.35007 7.43474C5.32887 7.44938 5.30486 7.46351 5.27799 7.47591C5.27512 7.47723 5.27221 7.47854 5.26927 7.47982C5.23876 7.49316 5.20471 7.50419 5.16703 7.51126C5.16576 7.49747 5.16446 7.48396 5.16313 7.47075C5.16304 7.46983 5.16295 7.46891 5.16286 7.468C5.1624 7.46341 5.16193 7.45886 5.16146 7.45435C5.13251 7.17595 5.10321 7.01978 5.0739 7.01978C5.0446 7.01978 5.01994 7.17595 5.00064 7.45685M6.69678 16.2867C6.58618 15.8037 6.46202 15.2484 6.36365 14.6073L6.3637 14.6073L6.36247 14.6C6.33183 14.4182 6.31026 14.2273 6.2864 14.0161C6.27142 13.8835 6.25553 13.7429 6.23592 13.5914L6.23184 13.5599C6.18642 13.2092 6.14118 12.8599 6.11136 12.5122L6.11145 12.5122L6.11044 12.5025L6.08254 12.2375M6.69678 16.2867L5.66261 11.9898C5.66594 12.0553 5.66657 12.0948 5.66708 12.1267C5.6677 12.1653 5.66814 12.1929 5.67299 12.2421C5.67384 12.2507 5.67464 12.259 5.6754 12.2669L6.08114 12.2241L6.08254 12.2375M4.70454 12.6301C4.70447 12.6293 4.70439 12.6284 4.70431 12.6276L5.1141 12.5898L5.08663 12.3288L5.08526 12.3158L5.08458 12.3028C5.08453 12.3019 5.08448 12.301 5.08444 12.3001C5.0818 12.2496 5.07984 12.1998 5.07805 12.1535L5.07776 12.1461C5.07601 12.1009 5.0744 12.0593 5.07236 12.0184L5.07211 12.0135L5.07214 12.0135C5.07213 12.0133 5.07212 12.0131 5.07211 12.0129C5.07208 12.012 5.07204 12.0112 5.07201 12.0103C5.06782 11.9066 5.06351 11.8164 5.05915 11.7252C5.05535 11.6457 5.05152 11.5654 5.04769 11.4748C5.04731 11.4683 5.04693 11.4619 5.04655 11.4554C5.04654 11.4553 5.04653 11.4551 5.04652 11.455C5.03162 11.2023 5.01769 10.9575 5.00422 10.7207C4.99875 10.6246 4.99336 10.5299 4.988 10.4364C4.9878 10.4347 4.9876 10.433 4.9874 10.4313L4.60934 10.4606C4.60911 10.4576 4.60888 10.4546 4.60865 10.4516M4.70454 12.6301C4.69984 12.5839 4.69389 12.5173 4.68847 12.4567C4.68435 12.4105 4.68054 12.3678 4.67781 12.3402C4.67024 12.2633 4.6672 12.1548 4.66531 12.0874C4.66464 12.0633 4.66411 12.0445 4.66358 12.0343L4.66285 12.0205L4.66304 12.0205C4.65889 11.8526 4.65238 11.6863 4.64579 11.5176C4.64518 11.5021 4.64458 11.4866 4.64397 11.4711L4.64387 11.4686L4.64388 11.4686C4.64023 11.3613 4.63679 11.2557 4.63341 11.1519C4.62553 10.9098 4.61795 10.6769 4.60865 10.4516M4.70454 12.6301C4.70463 12.631 4.70472 12.6318 4.70481 12.6327L5.1142 12.5907M4.60865 10.4516C4.60853 10.4487 4.60841 10.4457 4.60828 10.4428L4.98689 10.4271C4.93759 10.0101 4.89219 9.61988 4.85077 9.26387C4.82783 9.06671 4.80611 8.88003 4.78562 8.70509C4.78364 8.69212 4.78169 8.67916 4.77977 8.66623L4.48954 8.68511C4.48945 8.68364 4.48935 8.68216 4.48926 8.68068M4.60865 10.4516C4.55802 9.796 4.51389 9.19823 4.48926 8.68068M4.48926 8.68068C4.48919 8.67923 4.48912 8.67778 4.48905 8.67633L4.77923 8.66257C4.72907 8.32237 4.70396 7.998 4.68539 7.75806C4.67762 7.65758 4.67099 7.5719 4.66414 7.50606C4.66144 7.48012 4.6588 7.45584 4.65621 7.43319L4.50182 7.42258C4.50191 7.42119 4.50201 7.41981 4.5021 7.41842M4.48926 8.68068C4.46212 8.26019 4.46641 7.83827 4.5021 7.41842M4.5021 7.41842C4.50222 7.41703 4.50234 7.41564 4.50246 7.41425L4.65554 7.42734C4.64488 7.3347 4.63525 7.2698 4.62732 7.22969C4.62457 7.21578 4.62296 7.20983 4.62297 7.20982C4.62298 7.20982 4.62491 7.21687 4.62934 7.22837L4.62945 7.22865C4.63286 7.23751 4.64936 7.28034 4.68696 7.32976C4.70114 7.34841 4.74038 7.39689 4.80593 7.4402L5.00064 7.45685M4.5021 7.41842L5.37577 14.7625C5.34164 14.5592 5.31412 14.3177 5.28758 14.0849C5.27328 13.9595 5.25927 13.8366 5.24467 13.7235C5.24451 13.7223 5.24436 13.721 5.2442 13.7198L5.23915 13.6809C5.19464 13.3372 5.14714 12.9706 5.11544 12.6025L5.1142 12.5907M4.5021 7.41842C4.51198 7.27557 4.52415 7.14877 4.54019 7.05155C4.54765 7.00639 4.55971 6.9432 4.58145 6.88177C4.59124 6.85411 4.61392 6.7944 4.65924 6.7323C4.69579 6.68221 4.82945 6.51978 5.0739 6.51978C5.31442 6.51978 5.44748 6.67783 5.48283 6.7243C5.52818 6.78391 5.55194 6.84152 5.56241 6.86869C5.58556 6.92872 5.59945 6.99086 5.60831 7.03563C5.62751 7.13269 5.64393 7.25983 5.65878 7.40264C5.66993 7.50986 5.67834 7.62012 5.68726 7.7369C5.70543 7.97495 5.72567 8.24007 5.77533 8.5617L5.77672 8.57074L5.77779 8.57982C5.79876 8.75885 5.82091 8.9492 5.84427 9.15004C5.88641 9.51223 5.93252 9.90852 5.98286 10.334L5.98463 10.349L5.9855 10.3641C5.99118 10.4633 5.99689 10.5635 6.00266 10.665C6.01655 10.9089 6.03083 11.1599 6.0462 11.42L6.04671 11.4285L6.04663 11.4285C6.04966 11.5006 6.05355 11.5829 6.05756 11.6676C6.06238 11.7696 6.06737 11.8752 6.07123 11.9709M4.5021 7.41842L6.07123 11.9709M5.00064 7.45685L4.81155 7.44386C4.83355 7.45797 4.8584 7.47143 4.88612 7.48298C4.91873 7.49656 4.95532 7.50752 4.99597 7.51384C4.99709 7.49963 4.99824 7.48541 4.99943 7.4712C4.99983 7.46642 5.00023 7.46163 5.00064 7.45685ZM5.1142 12.5907L5.2022 12.5817L5.1142 12.5907ZM6.08254 12.2375C6.08055 12.1979 6.07896 12.1577 6.0773 12.1148L6.07696 12.1059C6.07529 12.0628 6.07351 12.0168 6.07123 11.9709M6.08254 12.2375L6.07123 11.9709" stroke="#FFD699"/>
</svg>
