<svg width="38" height="41" viewBox="0 0 38 41" fill="none" xmlns="http://www.w3.org/2000/svg">
<mask id="path-1-outside-1_330_282" maskUnits="userSpaceOnUse" x="0" y="0" width="38" height="41" fill="black">
<rect fill="white" width="38" height="41"/>
<path fill-rule="evenodd" clip-rule="evenodd" d="M19.9961 24.6247C19.9961 25.0056 19.8409 25.348 19.5904 25.5987C19.3399 25.8478 18.9941 26.0021 18.611 26.0021C18.2296 26.0021 17.8838 25.8478 17.6316 25.5987C17.3811 25.3496 17.226 25.0056 17.226 24.6247C17.226 24.2422 17.6752 23.1846 17.9646 22.5032C18.0389 22.3296 18.1019 22.1801 18.1391 22.0885C18.2426 21.8298 18.5367 21.7028 18.7969 21.8057C18.931 21.8587 19.0312 21.9632 19.0813 22.0885C19.1185 22.1818 19.1815 22.3296 19.2543 22.5032C19.5468 23.1846 19.9961 24.2438 19.9961 24.6247ZM28.8302 3.49597V4.69819H29.1583L29.1599 3.49597H28.8302ZM27.8121 4.69819V3.49597H26.4011C25.8048 3.49597 25.4185 3.16328 25.2472 2.73899C25.1841 2.58148 25.1518 2.41272 25.1518 2.24718C25.1518 2.08164 25.1841 1.91449 25.2472 1.75538C25.4185 1.33109 25.8048 1 26.4011 1H31.589C32.1854 1 32.5716 1.33109 32.743 1.75698C32.806 1.91449 32.8383 2.08325 32.8383 2.24879C32.8383 2.41433 32.806 2.58309 32.743 2.74059C32.5716 3.16488 32.1854 3.49758 31.589 3.49758H30.1781V4.69979H30.5999C30.8811 4.69979 31.109 4.92641 31.109 5.20608V6.8808H36.4909C36.7721 6.8808 37 7.10742 37 7.38869V11.8052C37 12.0848 36.7721 12.3115 36.4909 12.3115L25.514 12.3099V13.6391C25.7677 13.7644 25.939 13.9926 26.0296 14.2578C26.0764 14.3944 26.099 14.5391 26.099 14.6805C26.099 14.8236 26.0748 14.9682 26.0296 15.1032C25.8906 15.5098 25.5641 15.8264 25.0485 15.8264L20.4329 15.828C19.9173 15.828 19.5908 15.5114 19.4519 15.1048C19.405 14.9682 19.3824 14.8235 19.3824 14.6821C19.3824 14.5391 19.4066 14.3944 19.4519 14.2594C19.5537 13.9637 19.7525 13.7162 20.0531 13.6037V9.59686C20.0531 8.8495 20.3601 8.17127 20.8547 7.67942C21.3492 7.18762 22.0313 6.88224 22.7828 6.88224H26.8797V5.20752C26.8797 4.92786 27.1076 4.70123 27.3888 4.70123L27.8121 4.69819ZM30.0909 6.8808V5.71237H27.8993V6.8808H30.0909ZM26.4011 2.48323H31.5907C31.7054 2.48323 31.7749 2.43019 31.8008 2.3643C31.8137 2.33055 31.8218 2.29037 31.8218 2.24858C31.8218 2.20679 31.8153 2.16661 31.8008 2.13286C31.7733 2.06536 31.7038 2.01393 31.5907 2.01393L26.4011 2.01232C26.2864 2.01232 26.2169 2.06536 26.191 2.13125C26.1781 2.165 26.17 2.20519 26.17 2.24697C26.17 2.29037 26.1781 2.32894 26.191 2.36269C26.2169 2.43019 26.2864 2.48323 26.4011 2.48323ZM9.61906 28.0688H15.6894C15.8236 28.0688 15.9658 28.0736 16.1177 28.0833C17.4786 28.1652 18.5711 28.6426 19.3274 29.3401C20.0256 29.983 20.4378 30.8091 20.5186 31.6899H23.9497H23.9788C24.7707 31.6995 25.3137 32.0901 25.6095 32.6188L30.8329 31.227C31.6265 31.0148 32.2681 31.243 32.6899 31.6802C32.8903 31.8876 33.0374 32.1399 33.1231 32.4115C33.2087 32.6799 33.2362 32.9692 33.2006 33.2569C33.1198 33.9207 32.7061 34.5684 31.8867 34.8995L20.0757 39.6892C19.7234 39.8676 19.3921 39.9656 19.043 39.9929C18.6971 40.0186 18.348 39.9736 17.9504 39.8676L9.62064 37.648V37.7155C9.62064 38.0482 9.48489 38.3504 9.26347 38.5689C9.04367 38.7875 8.73984 38.9225 8.40529 38.9225L2.21535 38.9241C1.8808 38.9241 1.57695 38.7891 1.35717 38.5705C1.13737 38.3503 1 38.0482 1 37.7171L1.00162 29.8996C1.00162 29.6199 1.2295 29.3933 1.51072 29.3933C1.79194 29.3933 2.01983 29.6199 2.01983 29.8996V37.7171C2.01983 37.7702 2.04245 37.8184 2.07801 37.8537C2.11356 37.8891 2.16366 37.9116 2.217 37.9116H8.40529C8.45862 37.9116 8.5071 37.8891 8.54428 37.8537C8.57983 37.8184 8.60246 37.7685 8.60246 37.7171V37.1385C8.57337 37.0485 8.56852 36.9505 8.59438 36.8524C8.59761 36.8444 8.59923 36.8364 8.60246 36.8267L8.60085 27.86C8.60085 27.807 8.57822 27.7588 8.54267 27.7234C8.50711 27.688 8.45701 27.6655 8.40367 27.6655L2.21539 27.6639C2.16205 27.6639 2.11357 27.6864 2.07639 27.7218C2.04084 27.7572 2.01821 27.8054 2.01821 27.8584C2.01821 28.1381 1.79034 28.3647 1.50911 28.3647C1.2279 28.3647 1 28.1381 1 27.8584C1 27.5257 1.13576 27.2235 1.35718 27.005C1.57697 26.7864 1.8808 26.6498 2.21535 26.6498H8.40364C8.73819 26.6498 9.04204 26.7864 9.26182 27.005C9.4816 27.2236 9.61899 27.5257 9.61899 27.8584L9.61737 28.069L9.61906 28.0688ZM9.61906 36.6014L18.2124 38.8917C18.5001 38.9672 18.7425 39.0026 18.9672 38.9849C19.1805 38.9689 19.3906 38.9046 19.6266 38.7824C19.6411 38.776 19.6557 38.7696 19.6702 38.7615L31.5052 33.964C31.9351 33.7888 32.1501 33.4642 32.1904 33.1347C32.2082 32.9917 32.1953 32.8486 32.1533 32.7168C32.1129 32.5883 32.0466 32.4709 31.9593 32.3809C31.7783 32.1929 31.4842 32.1013 31.0963 32.2041L25.8633 33.5992V33.604C25.8633 33.8628 25.8149 34.1231 25.7163 34.3675C25.4561 35.012 24.8662 35.515 23.9514 35.515V35.5182L16.1371 35.5166C15.8559 35.5166 15.628 35.29 15.628 35.0103C15.628 34.7307 15.8559 34.5041 16.1371 34.5041L23.9481 34.5025V34.5041C24.3796 34.5041 24.6528 34.2774 24.7691 33.9898C24.8176 33.8708 24.8419 33.739 24.8419 33.6024C24.8419 33.4883 24.8241 33.3774 24.7918 33.2745C24.7304 33.1202 24.6253 32.9852 24.4928 32.8856C24.3441 32.7731 24.1615 32.7072 23.9627 32.7024L23.9481 32.704H20.016V32.7024C20.0063 32.7024 19.9966 32.7008 19.9869 32.7008C19.7073 32.6847 19.4924 32.4452 19.5102 32.1655C19.5134 32.1238 19.5134 32.0723 19.5134 32.008C19.5134 31.2864 19.2063 30.6017 18.6391 30.0778C18.0475 29.5329 17.17 29.1584 16.058 29.0909C15.9497 29.0845 15.8269 29.0813 15.6895 29.0813L9.61917 29.0829L9.61906 36.6014ZM24.7594 29.2595C24.7594 28.7211 24.079 27.1187 23.6394 26.0853C23.5247 25.8153 23.4277 25.587 23.3679 25.4376C23.3178 25.3122 23.2176 25.2077 23.0835 25.1547C22.8233 25.0534 22.5275 25.1788 22.4257 25.4376C22.3659 25.5854 22.2689 25.8153 22.1542 26.0853C21.7146 27.1187 21.0342 28.7227 21.0342 29.2595C21.0342 29.7706 21.2427 30.2335 21.5805 30.5694C21.9182 30.9037 22.3837 31.1126 22.8976 31.1126C23.4116 31.1126 23.877 30.9053 24.2148 30.5694C24.551 30.2319 24.7594 29.7706 24.7594 29.2595ZM23.494 29.851C23.6459 29.6999 23.7412 29.4894 23.7412 29.2579C23.7412 28.9654 23.2838 27.8452 22.8976 26.929C22.5113 27.8452 22.0539 28.9654 22.0539 29.2579C22.0539 29.4894 22.1477 29.6983 22.3012 29.851C22.4531 30.0021 22.6648 30.0969 22.8976 30.0969C23.1303 30.0969 23.3404 30.0037 23.494 29.851ZM24.5816 20.3893C24.5816 20.9004 24.3731 21.3633 24.0354 21.6992C23.6992 22.0335 23.2338 22.2424 22.7182 22.2424C22.2042 22.2424 21.7388 22.0351 21.401 21.6992C21.0649 21.3649 20.8548 20.902 20.8548 20.3893C20.8548 19.8525 21.5352 18.2485 21.9747 17.215C22.0895 16.945 22.1865 16.7152 22.2463 16.5673C22.3497 16.3086 22.6438 16.1816 22.904 16.2845C23.0382 16.3375 23.1384 16.442 23.1885 16.5673C23.2483 16.7152 23.3452 16.9434 23.4584 17.2134C23.9012 18.2485 24.5816 19.8525 24.5816 20.3893ZM23.3162 20.984C23.4681 20.8313 23.5634 20.6223 23.5634 20.3909C23.5634 20.0984 23.1061 18.9781 22.7198 18.062C22.3335 18.9781 21.8761 20.0984 21.8761 20.3909C21.8761 20.6223 21.9699 20.8313 22.1234 20.984C22.2753 21.135 22.4871 21.2299 22.7198 21.2299C22.9525 21.2283 23.1626 21.135 23.3162 20.984ZM28.617 29.4413C28.617 29.0588 28.1677 28.0012 27.8784 27.3181C27.804 27.1446 27.741 26.9951 27.7055 26.9035C27.6554 26.7781 27.5552 26.6736 27.421 26.619C27.1608 26.5177 26.8667 26.6431 26.7632 26.9035C26.7261 26.9951 26.663 27.1446 26.5903 27.3181C26.301 28.0012 25.8517 29.0588 25.8517 29.4413C25.8517 29.8222 26.0069 30.1645 26.2574 30.4153C26.5079 30.6644 26.8537 30.8171 27.2368 30.8171C27.6182 30.8171 27.964 30.6628 28.2162 30.4153C28.4634 30.1662 28.617 29.8206 28.617 29.4413ZM27.4921 29.6985C27.5584 29.6326 27.5988 29.5426 27.5988 29.4413C27.5988 29.3175 27.4259 28.8659 27.2335 28.3998C27.0412 28.8659 26.8683 29.3176 26.8683 29.4413C26.8683 29.5409 26.9103 29.6326 26.9749 29.6985C27.0412 29.7644 27.1333 29.8045 27.2335 29.8045C27.3354 29.8045 27.4259 29.7643 27.4921 29.6985ZM26.0262 22.5351C26.0262 22.2555 26.2541 22.0288 26.5353 22.0288C26.8166 22.0288 27.0445 22.2555 27.0445 22.5351V24.0909C27.0445 24.3706 26.8166 24.5972 26.5353 24.5972C26.2541 24.5972 26.0262 24.3706 26.0262 24.0909V22.5351ZM25.779 17.982C25.779 17.7024 26.0068 17.4757 26.2881 17.4757C26.5693 17.4757 26.7972 17.7024 26.7972 17.982V19.5378C26.7972 19.8175 26.5693 20.0441 26.2881 20.0441C26.0069 20.0441 25.779 19.8175 25.779 19.5378V17.982ZM19.1318 26.9393V28.495C19.1318 28.7747 19.3597 29.0013 19.6409 29.0013C19.9222 29.0013 20.1501 28.7747 20.1501 28.495V26.9393C20.1501 26.6596 19.9222 26.433 19.6409 26.433C19.3597 26.433 19.1318 26.6596 19.1318 26.9393ZM24.496 13.5367V11.8042C24.496 11.5245 24.7238 11.2979 25.0051 11.2979H35.982V7.89379H22.7845C22.3142 7.89379 21.8875 8.08505 21.5756 8.39362C21.2653 8.7022 21.073 9.12814 21.073 9.59583V13.5367H24.496ZM20.4329 14.8161H25.0503C25.0551 14.8161 25.0616 14.8016 25.068 14.7823C25.0777 14.7534 25.0826 14.7197 25.0826 14.6827C25.0826 14.6457 25.0777 14.612 25.068 14.5847C25.0616 14.5654 25.0551 14.5509 25.0503 14.5509H20.4329C20.4281 14.5509 20.4216 14.5654 20.4151 14.5847C20.4055 14.612 20.4006 14.6473 20.4006 14.6827C20.4006 14.7197 20.4055 14.7534 20.4151 14.7823C20.4216 14.8016 20.4281 14.8161 20.4329 14.8161ZM18.8701 24.8822C18.9364 24.8163 18.9768 24.7263 18.9768 24.625C18.9768 24.5013 18.8038 24.0513 18.6115 23.5852C18.4192 24.0513 18.2463 24.5013 18.2463 24.625C18.2463 24.7247 18.2867 24.8163 18.3529 24.8822C18.4192 24.9481 18.5097 24.9883 18.6115 24.9883C18.7133 24.9883 18.8038 24.9481 18.8701 24.8822Z"/>
</mask>
<path fill-rule="evenodd" clip-rule="evenodd" d="M19.9961 24.6247C19.9961 25.0056 19.8409 25.348 19.5904 25.5987C19.3399 25.8478 18.9941 26.0021 18.611 26.0021C18.2296 26.0021 17.8838 25.8478 17.6316 25.5987C17.3811 25.3496 17.226 25.0056 17.226 24.6247C17.226 24.2422 17.6752 23.1846 17.9646 22.5032C18.0389 22.3296 18.1019 22.1801 18.1391 22.0885C18.2426 21.8298 18.5367 21.7028 18.7969 21.8057C18.931 21.8587 19.0312 21.9632 19.0813 22.0885C19.1185 22.1818 19.1815 22.3296 19.2543 22.5032C19.5468 23.1846 19.9961 24.2438 19.9961 24.6247ZM28.8302 3.49597V4.69819H29.1583L29.1599 3.49597H28.8302ZM27.8121 4.69819V3.49597H26.4011C25.8048 3.49597 25.4185 3.16328 25.2472 2.73899C25.1841 2.58148 25.1518 2.41272 25.1518 2.24718C25.1518 2.08164 25.1841 1.91449 25.2472 1.75538C25.4185 1.33109 25.8048 1 26.4011 1H31.589C32.1854 1 32.5716 1.33109 32.743 1.75698C32.806 1.91449 32.8383 2.08325 32.8383 2.24879C32.8383 2.41433 32.806 2.58309 32.743 2.74059C32.5716 3.16488 32.1854 3.49758 31.589 3.49758H30.1781V4.69979H30.5999C30.8811 4.69979 31.109 4.92641 31.109 5.20608V6.8808H36.4909C36.7721 6.8808 37 7.10742 37 7.38869V11.8052C37 12.0848 36.7721 12.3115 36.4909 12.3115L25.514 12.3099V13.6391C25.7677 13.7644 25.939 13.9926 26.0296 14.2578C26.0764 14.3944 26.099 14.5391 26.099 14.6805C26.099 14.8236 26.0748 14.9682 26.0296 15.1032C25.8906 15.5098 25.5641 15.8264 25.0485 15.8264L20.4329 15.828C19.9173 15.828 19.5908 15.5114 19.4519 15.1048C19.405 14.9682 19.3824 14.8235 19.3824 14.6821C19.3824 14.5391 19.4066 14.3944 19.4519 14.2594C19.5537 13.9637 19.7525 13.7162 20.0531 13.6037V9.59686C20.0531 8.8495 20.3601 8.17127 20.8547 7.67942C21.3492 7.18762 22.0313 6.88224 22.7828 6.88224H26.8797V5.20752C26.8797 4.92786 27.1076 4.70123 27.3888 4.70123L27.8121 4.69819ZM30.0909 6.8808V5.71237H27.8993V6.8808H30.0909ZM26.4011 2.48323H31.5907C31.7054 2.48323 31.7749 2.43019 31.8008 2.3643C31.8137 2.33055 31.8218 2.29037 31.8218 2.24858C31.8218 2.20679 31.8153 2.16661 31.8008 2.13286C31.7733 2.06536 31.7038 2.01393 31.5907 2.01393L26.4011 2.01232C26.2864 2.01232 26.2169 2.06536 26.191 2.13125C26.1781 2.165 26.17 2.20519 26.17 2.24697C26.17 2.29037 26.1781 2.32894 26.191 2.36269C26.2169 2.43019 26.2864 2.48323 26.4011 2.48323ZM9.61906 28.0688H15.6894C15.8236 28.0688 15.9658 28.0736 16.1177 28.0833C17.4786 28.1652 18.5711 28.6426 19.3274 29.3401C20.0256 29.983 20.4378 30.8091 20.5186 31.6899H23.9497H23.9788C24.7707 31.6995 25.3137 32.0901 25.6095 32.6188L30.8329 31.227C31.6265 31.0148 32.2681 31.243 32.6899 31.6802C32.8903 31.8876 33.0374 32.1399 33.1231 32.4115C33.2087 32.6799 33.2362 32.9692 33.2006 33.2569C33.1198 33.9207 32.7061 34.5684 31.8867 34.8995L20.0757 39.6892C19.7234 39.8676 19.3921 39.9656 19.043 39.9929C18.6971 40.0186 18.348 39.9736 17.9504 39.8676L9.62064 37.648V37.7155C9.62064 38.0482 9.48489 38.3504 9.26347 38.5689C9.04367 38.7875 8.73984 38.9225 8.40529 38.9225L2.21535 38.9241C1.8808 38.9241 1.57695 38.7891 1.35717 38.5705C1.13737 38.3503 1 38.0482 1 37.7171L1.00162 29.8996C1.00162 29.6199 1.2295 29.3933 1.51072 29.3933C1.79194 29.3933 2.01983 29.6199 2.01983 29.8996V37.7171C2.01983 37.7702 2.04245 37.8184 2.07801 37.8537C2.11356 37.8891 2.16366 37.9116 2.217 37.9116H8.40529C8.45862 37.9116 8.5071 37.8891 8.54428 37.8537C8.57983 37.8184 8.60246 37.7685 8.60246 37.7171V37.1385C8.57337 37.0485 8.56852 36.9505 8.59438 36.8524C8.59761 36.8444 8.59923 36.8364 8.60246 36.8267L8.60085 27.86C8.60085 27.807 8.57822 27.7588 8.54267 27.7234C8.50711 27.688 8.45701 27.6655 8.40367 27.6655L2.21539 27.6639C2.16205 27.6639 2.11357 27.6864 2.07639 27.7218C2.04084 27.7572 2.01821 27.8054 2.01821 27.8584C2.01821 28.1381 1.79034 28.3647 1.50911 28.3647C1.2279 28.3647 1 28.1381 1 27.8584C1 27.5257 1.13576 27.2235 1.35718 27.005C1.57697 26.7864 1.8808 26.6498 2.21535 26.6498H8.40364C8.73819 26.6498 9.04204 26.7864 9.26182 27.005C9.4816 27.2236 9.61899 27.5257 9.61899 27.8584L9.61737 28.069L9.61906 28.0688ZM9.61906 36.6014L18.2124 38.8917C18.5001 38.9672 18.7425 39.0026 18.9672 38.9849C19.1805 38.9689 19.3906 38.9046 19.6266 38.7824C19.6411 38.776 19.6557 38.7696 19.6702 38.7615L31.5052 33.964C31.9351 33.7888 32.1501 33.4642 32.1904 33.1347C32.2082 32.9917 32.1953 32.8486 32.1533 32.7168C32.1129 32.5883 32.0466 32.4709 31.9593 32.3809C31.7783 32.1929 31.4842 32.1013 31.0963 32.2041L25.8633 33.5992V33.604C25.8633 33.8628 25.8149 34.1231 25.7163 34.3675C25.4561 35.012 24.8662 35.515 23.9514 35.515V35.5182L16.1371 35.5166C15.8559 35.5166 15.628 35.29 15.628 35.0103C15.628 34.7307 15.8559 34.5041 16.1371 34.5041L23.9481 34.5025V34.5041C24.3796 34.5041 24.6528 34.2774 24.7691 33.9898C24.8176 33.8708 24.8419 33.739 24.8419 33.6024C24.8419 33.4883 24.8241 33.3774 24.7918 33.2745C24.7304 33.1202 24.6253 32.9852 24.4928 32.8856C24.3441 32.7731 24.1615 32.7072 23.9627 32.7024L23.9481 32.704H20.016V32.7024C20.0063 32.7024 19.9966 32.7008 19.9869 32.7008C19.7073 32.6847 19.4924 32.4452 19.5102 32.1655C19.5134 32.1238 19.5134 32.0723 19.5134 32.008C19.5134 31.2864 19.2063 30.6017 18.6391 30.0778C18.0475 29.5329 17.17 29.1584 16.058 29.0909C15.9497 29.0845 15.8269 29.0813 15.6895 29.0813L9.61917 29.0829L9.61906 36.6014ZM24.7594 29.2595C24.7594 28.7211 24.079 27.1187 23.6394 26.0853C23.5247 25.8153 23.4277 25.587 23.3679 25.4376C23.3178 25.3122 23.2176 25.2077 23.0835 25.1547C22.8233 25.0534 22.5275 25.1788 22.4257 25.4376C22.3659 25.5854 22.2689 25.8153 22.1542 26.0853C21.7146 27.1187 21.0342 28.7227 21.0342 29.2595C21.0342 29.7706 21.2427 30.2335 21.5805 30.5694C21.9182 30.9037 22.3837 31.1126 22.8976 31.1126C23.4116 31.1126 23.877 30.9053 24.2148 30.5694C24.551 30.2319 24.7594 29.7706 24.7594 29.2595ZM23.494 29.851C23.6459 29.6999 23.7412 29.4894 23.7412 29.2579C23.7412 28.9654 23.2838 27.8452 22.8976 26.929C22.5113 27.8452 22.0539 28.9654 22.0539 29.2579C22.0539 29.4894 22.1477 29.6983 22.3012 29.851C22.4531 30.0021 22.6648 30.0969 22.8976 30.0969C23.1303 30.0969 23.3404 30.0037 23.494 29.851ZM24.5816 20.3893C24.5816 20.9004 24.3731 21.3633 24.0354 21.6992C23.6992 22.0335 23.2338 22.2424 22.7182 22.2424C22.2042 22.2424 21.7388 22.0351 21.401 21.6992C21.0649 21.3649 20.8548 20.902 20.8548 20.3893C20.8548 19.8525 21.5352 18.2485 21.9747 17.215C22.0895 16.945 22.1865 16.7152 22.2463 16.5673C22.3497 16.3086 22.6438 16.1816 22.904 16.2845C23.0382 16.3375 23.1384 16.442 23.1885 16.5673C23.2483 16.7152 23.3452 16.9434 23.4584 17.2134C23.9012 18.2485 24.5816 19.8525 24.5816 20.3893ZM23.3162 20.984C23.4681 20.8313 23.5634 20.6223 23.5634 20.3909C23.5634 20.0984 23.1061 18.9781 22.7198 18.062C22.3335 18.9781 21.8761 20.0984 21.8761 20.3909C21.8761 20.6223 21.9699 20.8313 22.1234 20.984C22.2753 21.135 22.4871 21.2299 22.7198 21.2299C22.9525 21.2283 23.1626 21.135 23.3162 20.984ZM28.617 29.4413C28.617 29.0588 28.1677 28.0012 27.8784 27.3181C27.804 27.1446 27.741 26.9951 27.7055 26.9035C27.6554 26.7781 27.5552 26.6736 27.421 26.619C27.1608 26.5177 26.8667 26.6431 26.7632 26.9035C26.7261 26.9951 26.663 27.1446 26.5903 27.3181C26.301 28.0012 25.8517 29.0588 25.8517 29.4413C25.8517 29.8222 26.0069 30.1645 26.2574 30.4153C26.5079 30.6644 26.8537 30.8171 27.2368 30.8171C27.6182 30.8171 27.964 30.6628 28.2162 30.4153C28.4634 30.1662 28.617 29.8206 28.617 29.4413ZM27.4921 29.6985C27.5584 29.6326 27.5988 29.5426 27.5988 29.4413C27.5988 29.3175 27.4259 28.8659 27.2335 28.3998C27.0412 28.8659 26.8683 29.3176 26.8683 29.4413C26.8683 29.5409 26.9103 29.6326 26.9749 29.6985C27.0412 29.7644 27.1333 29.8045 27.2335 29.8045C27.3354 29.8045 27.4259 29.7643 27.4921 29.6985ZM26.0262 22.5351C26.0262 22.2555 26.2541 22.0288 26.5353 22.0288C26.8166 22.0288 27.0445 22.2555 27.0445 22.5351V24.0909C27.0445 24.3706 26.8166 24.5972 26.5353 24.5972C26.2541 24.5972 26.0262 24.3706 26.0262 24.0909V22.5351ZM25.779 17.982C25.779 17.7024 26.0068 17.4757 26.2881 17.4757C26.5693 17.4757 26.7972 17.7024 26.7972 17.982V19.5378C26.7972 19.8175 26.5693 20.0441 26.2881 20.0441C26.0069 20.0441 25.779 19.8175 25.779 19.5378V17.982ZM19.1318 26.9393V28.495C19.1318 28.7747 19.3597 29.0013 19.6409 29.0013C19.9222 29.0013 20.1501 28.7747 20.1501 28.495V26.9393C20.1501 26.6596 19.9222 26.433 19.6409 26.433C19.3597 26.433 19.1318 26.6596 19.1318 26.9393ZM24.496 13.5367V11.8042C24.496 11.5245 24.7238 11.2979 25.0051 11.2979H35.982V7.89379H22.7845C22.3142 7.89379 21.8875 8.08505 21.5756 8.39362C21.2653 8.7022 21.073 9.12814 21.073 9.59583V13.5367H24.496ZM20.4329 14.8161H25.0503C25.0551 14.8161 25.0616 14.8016 25.068 14.7823C25.0777 14.7534 25.0826 14.7197 25.0826 14.6827C25.0826 14.6457 25.0777 14.612 25.068 14.5847C25.0616 14.5654 25.0551 14.5509 25.0503 14.5509H20.4329C20.4281 14.5509 20.4216 14.5654 20.4151 14.5847C20.4055 14.612 20.4006 14.6473 20.4006 14.6827C20.4006 14.7197 20.4055 14.7534 20.4151 14.7823C20.4216 14.8016 20.4281 14.8161 20.4329 14.8161ZM18.8701 24.8822C18.9364 24.8163 18.9768 24.7263 18.9768 24.625C18.9768 24.5013 18.8038 24.0513 18.6115 23.5852C18.4192 24.0513 18.2463 24.5013 18.2463 24.625C18.2463 24.7247 18.2867 24.8163 18.3529 24.8822C18.4192 24.9481 18.5097 24.9883 18.6115 24.9883C18.7133 24.9883 18.8038 24.9481 18.8701 24.8822Z" stroke="#FFD699" stroke-width="2" mask="url(#path-1-outside-1_330_282)"/>
</svg>
